<svg id="Capa_1" enable-background="new 0 0 512.028 512.028" height="512" viewBox="0 0 512.028 512.028" width="512" xmlns="http://www.w3.org/2000/svg"><g id="XMLID_909_"><path id="XMLID_3131_" d="m209.023 447.726-156.816-156.816c-56.276-56.276-56.276-147.517 0-203.793 56.276-56.276 147.517-56.276 203.793 0 56.276-56.276 147.517-56.276 203.793 0 56.276 56.276 56.276 147.517 0 203.793l-156.816 156.816c-25.945 25.945-68.009 25.945-93.954 0z" fill="#ff7a7a"/><g id="XMLID_769_"><g id="XMLID_3228_"><path id="XMLID_3229_" d="m380.427 275.21c9.882-23.103 5.412-50.879-13.442-69.733-3.801-3.801-7.967-7.012-12.382-9.645-14.798-40.104-53.36-68.701-98.604-68.701-45.244 0-83.806 28.597-98.604 68.701-4.415 2.633-8.581 5.844-12.382 9.645-18.854 18.854-23.324 46.63-13.442 69.733-24.59 27.368-23.727 69.508 2.598 95.833 27.222 27.222 71.359 27.222 98.581 0 9.801-9.801 16.055-21.795 18.795-34.401h8.907c2.74 12.605 8.994 24.6 18.795 34.401 27.223 27.222 71.359 27.222 98.581 0 26.326-26.325 27.189-68.466 2.599-95.833z" fill="#868eaf"/></g><path id="XMLID_3259_" d="m256.064 467.183c16.981-.016 33.957-6.501 46.913-19.457l83.047-83.047c-12.384-12.71-29.677-20.615-48.825-20.615h-53.015v-29.124h-56.368v29.124h-53.015c-19.147 0-36.44 7.904-48.825 20.615l83.047 83.047c12.956 12.956 29.932 19.441 46.913 19.457z" fill="#cbf4fb"/><g fill="#e4ba89"><path id="XMLID_3221_" d="m227.816 314.94v28.328l28.184 28.184 28.184-28.184v-28.328z"/><path id="XMLID_3220_" d="m199.631 230.392v31.618c0 31.131 25.237 56.369 56.369 56.369 31.131 0 56.369-25.237 56.369-56.369v-31.618h-35.583l-29.759-10.462-26.516 10.462z"/></g></g><g id="XMLID_1292_"><g id="XMLID_1295_"><path id="XMLID_1297_" d="m495.189 118.938c-2.513-4.919-8.536-6.867-13.454-4.358-4.919 2.512-6.87 8.535-4.358 13.454 26.518 51.928 16.609 114.541-24.655 155.805l-44.827 44.827c1.662-19.42-3.748-39.284-16.06-55.357 8.724-26.25 2.056-55.068-17.778-74.902-3.46-3.46-7.257-6.566-11.319-9.266-17.453-43.215-59.91-72.01-106.737-72.01s-89.285 28.795-106.738 72.01c-4.062 2.699-7.859 5.806-11.319 9.266-19.834 19.834-26.502 48.652-17.778 74.902-12.311 16.073-17.721 35.937-16.059 55.357l-44.827-44.827c-25.331-25.329-39.28-59.006-39.28-94.826s13.949-69.496 39.278-94.825c52.287-52.287 137.365-52.287 189.65 0 3.906 3.904 10.236 3.904 14.143 0 41.264-41.265 103.879-51.174 155.806-24.654 4.917 2.51 10.941.562 13.454-4.358 2.512-4.918.561-10.942-4.358-13.454-28.772-14.694-60.951-19.918-93.057-15.098-29.559 4.435-56.651 17.09-78.919 36.775-60.452-53.353-153.078-51.136-210.861 6.646-29.107 29.107-45.136 67.806-45.136 108.968 0 41.163 16.029 79.861 45.136 108.968l156.815 156.816c14.901 14.9 34.475 22.351 54.049 22.351 19.573 0 39.147-7.45 54.049-22.351l156.815-156.816c23.491-23.491 38.506-53.226 43.422-85.986 4.818-32.105-.403-64.284-15.097-93.057zm-354.422 152.34c-8.629-20.173-4.186-43.226 11.318-58.729 3.134-3.134 6.644-5.869 10.433-8.128 1.964-1.172 3.468-2.981 4.26-5.127 13.72-37.182 49.575-62.163 89.223-62.163 39.646 0 75.502 24.981 89.222 62.163.792 2.146 2.296 3.955 4.26 5.127 3.789 2.259 7.299 4.994 10.433 8.128 15.504 15.504 19.947 38.557 11.318 58.729-1.53 3.579-.846 7.721 1.756 10.616 16.478 18.339 19.709 44.817 9.085 66.326-13.044-9.191-28.55-14.155-44.874-14.155h-43.015v-17.821c17.03-12.027 28.184-31.846 28.184-54.234v-31.618c0-5.522-4.478-10-10-10h-34.415c-14.75 0-26.75-12-26.75-26.749 0-5.522-4.478-10-10-10s-10 4.478-10 10c0 6.821 1.48 13.299 4.118 19.148-4.265 4.771-10.406 7.601-16.961 7.601h-18.729c-5.522 0-10 4.478-10 10v31.618c0 22.388 11.153 42.207 28.184 54.234v17.821h-43.015c-16.328 0-31.832 4.963-44.875 14.154-10.624-21.509-7.392-47.988 9.084-66.325 2.601-2.896 3.286-7.037 1.756-10.616zm133.418 67.847-18.185 18.185-18.185-18.185v-13.3c5.783 1.651 11.879 2.553 18.185 2.553s12.401-.903 18.185-2.553zm-64.553-98.733h8.729c10.935 0 21.258-4.193 29.046-11.405 8.2 7.097 18.876 11.405 30.547 11.405h24.415v21.618c0 25.568-20.801 46.369-46.368 46.369s-46.368-20.801-46.368-46.369v-21.618zm86.274 200.263c-22.003 22.003-57.808 22.005-79.812 0l-75.483-75.484c9.869-7.206 21.706-11.106 34.19-11.106h49.669l24.459 24.459c1.953 1.952 4.512 2.929 7.071 2.929s5.118-.977 7.071-2.929l24.459-24.459h49.669c12.481 0 24.32 3.9 34.19 11.106z"/><path id="XMLID_1296_" d="m459.79 97.116c2.63 0 5.21-1.069 7.069-2.93 1.87-1.859 2.931-4.439 2.931-7.07 0-2.63-1.061-5.21-2.931-7.069-1.859-1.86-4.43-2.931-7.069-2.931-2.63 0-5.21 1.07-7.07 2.931-1.86 1.859-2.93 4.439-2.93 7.069 0 2.631 1.069 5.211 2.93 7.07 1.86 1.861 4.44 2.93 7.07 2.93z"/></g></g></g></svg>