<svg id="Capa_1" enable-background="new 0 0 512.011 512.011" height="512" viewBox="0 0 512.011 512.011" width="512" xmlns="http://www.w3.org/2000/svg"><g id="XMLID_15_"><g id="XMLID_864_"><path id="XMLID_2761_" d="m412.071 172.574c10.849-25.364 5.942-55.859-14.758-76.559-4.173-4.173-8.747-7.699-13.594-10.589-16.246-44.03-58.583-75.426-108.255-75.426-49.672 0-92.009 31.396-108.256 75.426-4.847 2.891-9.421 6.416-13.594 10.589-20.7 20.7-25.607 51.195-14.758 76.559-26.997 30.047-26.049 76.312 2.853 105.214 29.887 29.887 78.343 29.887 108.23 0 10.76-10.76 17.627-23.929 20.635-37.768h9.779c3.008 13.839 9.874 27.008 20.635 37.768 29.887 29.887 78.343 29.887 108.231 0 28.901-28.902 29.849-75.167 2.852-105.214z" fill="#ffd88e"/><path id="XMLID_1272_" d="m397.214 374v55.846h-89.75v72.154h67.008" fill="#fff"/><path id="XMLID_1486_" d="m424.214 502c33.689 0 61-27.311 61-61v-46.082c0-73.499-59.583-133.082-133.082-133.082h-153.836c-73.499 0-133.082 59.583-133.082 133.082l242.25 107.082z" fill="#ff7a7a"/><path id="XMLID_1681_" d="m92.981 429.844-45.096-45.096c-28.118-28.118-28.118-73.706 0-101.823 28.118-28.118 73.706-28.118 101.823 0l96.167 96.167c14.596 14.596 21.615 33.899 21.058 53.022l-20.478 48.215c-.192.196-.385.392-.58.586-19.309 19.309-46.856 25.358-71.326 18.148z" fill="#cbf4fb"/><circle id="XMLID_1137_" cx="98.797" cy="333.836" fill="#ffd0c6" r="72"/><path id="XMLID_1168_" d="m305.873 262.183v-31.681h-61.318v31.681h-31.843c0 34.519 27.983 62.502 62.502 62.502 34.519 0 62.502-27.983 62.502-62.502z" fill="#f4c6af"/><path id="XMLID_1206_" d="m343.424 125.239v41.093c0 37.671-30.539 68.21-68.21 68.21-37.671 0-68.21-30.539-68.21-68.21v-41.093h50.072c11.416 0 22.163-5.383 29-14.525 12.053 9.412 26.906 14.525 42.198 14.525z" fill="#f4c6af"/><path id="XMLID_1242_" d="m132.348 429.846h-66.013c-19.922 0-36.073 16.15-36.073 36.073 0 19.922 16.15 36.073 36.073 36.073h66.013z" fill="#ff7a7a"/><g fill="#f4c6af"><path id="XMLID_1271_" d="m279.541 429.846h27.923v72.154h-27.923c-19.925 0-36.077-16.152-36.077-36.077 0-19.925 16.152-36.077 36.077-36.077z"/><path id="XMLID_1427_" d="m160.271 502h-27.923v-72.154h27.923c19.925 0 36.077 16.152 36.077 36.077 0 19.925-16.153 36.077-36.077 36.077z"/></g></g><g id="XMLID_529_"><path id="XMLID_656_" d="m106.962 361.047c10.501 0 19.045-8.544 19.045-19.045 0-5.523-4.477-10-10-10-5.215 0-9.498 3.992-9.959 9.086-5.095.461-9.086 4.744-9.086 9.959 0 5.523 4.477 10 10 10z"/><path id="XMLID_657_" d="m275.463 201.857c6.796 0 13.591-2.586 18.765-7.76 3.905-3.905 3.905-10.237 0-14.143s-10.237-3.905-14.143 0c-2.549 2.55-6.696 2.549-9.245 0-3.905-3.905-10.237-3.905-14.143 0-3.905 3.905-3.905 10.237 0 14.143 5.176 5.174 11.971 7.76 18.766 7.76z"/><path id="XMLID_660_" d="m492.224 365.689c-1.123-5.408-6.42-8.883-11.824-7.758-5.408 1.123-8.881 6.416-7.758 11.824 1.707 8.222 2.572 16.688 2.572 25.164v46.081c0 28.122-22.878 51-51 51h-106.75v-52.154h79.75c5.523 0 10-4.477 10-10v-55.846c0-5.523-4.477-10-10-10s-10 4.477-10 10v45.846h-107.673c-1.079 0-2.147.051-3.208.124-2.245-18.005-10.442-35.004-23.387-47.95l-93.823-93.822c12.546-4.22 25.665-6.362 39.172-6.362h5.123c4.89 35.247 35.213 62.478 71.795 62.478s66.906-27.231 71.795-62.478h5.123c28.354 0 56.027 9.873 77.921 27.801 1.859 1.522 4.101 2.264 6.33 2.264 2.895 0 5.766-1.251 7.743-3.665 3.499-4.273 2.872-10.574-1.401-14.072-5.167-4.231-10.615-8.069-16.286-11.511 9.733-14.149 15.063-30.921 15.19-48.342.142-19.535-6.256-38.355-18.127-53.642 9.71-28.601 2.518-60.088-19.117-81.724-3.823-3.824-8.026-7.25-12.529-10.217-18.942-47.234-65.277-78.728-116.391-78.728-51.115 0-97.45 31.494-116.392 78.728-4.502 2.967-8.706 6.394-12.529 10.217-21.635 21.635-28.826 53.125-19.116 81.726-18.44 23.785-22.78 55.269-12.851 82.681-5.145-.998-10.422-1.515-15.779-1.515-21.903 0-42.495 8.53-57.983 24.018-15.487 15.488-24.017 36.08-24.017 57.983s8.53 42.495 24.017 57.983c.007.007.014.013.02.02l28.007 28.007h-2.506c-25.404 0-46.072 20.668-46.072 46.073s20.668 46.073 46.072 46.073l93.936.006c5.17 0 10.138-.869 14.782-2.446 6.588 1.646 13.266 2.457 19.898 2.457 17.684 0 35.014-5.736 49.307-16.496 8.459 10.07 21.134 16.486 35.283 16.486h144.673c39.149 0 71-31.851 71-71v-46.082c0-9.839-1.006-19.673-2.99-29.23zm-372.947 47.573c14.066-3.601 26.967-10.907 37.502-21.443 15.488-15.488 24.018-36.08 24.018-57.983 0-1.985-.094-3.954-.233-5.914l56.063 56.063c-33.015 28.76-76.932 38.518-117.35 29.277zm155.937-98.948c-25.529 0-46.861-18.309-51.546-42.478h20.887c5.523 0 10-4.477 10-10v-20.085c6.586 1.806 13.508 2.79 20.659 2.79s14.073-.984 20.659-2.79v20.085c0 5.523 4.477 10 10 10h20.887c-4.685 24.17-26.017 42.478-51.546 42.478zm-58.21-179.075h31.646c14.279 0 27.284-5.53 37.008-14.551 9.181 9.182 21.754 14.551 35.103 14.551h12.664v31.093c0 32.097-26.113 58.209-58.21 58.209s-58.209-26.113-58.209-58.209v-31.093zm-68.953 33.403c-9.631-22.517-4.671-48.249 12.635-65.555 3.496-3.497 7.414-6.549 11.645-9.072 1.964-1.171 3.467-2.981 4.259-5.126 15.203-41.205 54.938-68.889 98.874-68.889s83.669 27.684 98.874 68.888c.792 2.146 2.295 3.955 4.26 5.127 4.23 2.523 8.148 5.575 11.645 9.072 17.307 17.306 22.266 43.038 12.635 65.555-1.531 3.579-.846 7.721 1.756 10.616 21.51 23.94 22.727 58.965 3.836 84.152-17.691-7.569-36.876-11.573-56.337-11.573h-36.259v-18.72c22.5-13.749 37.551-38.541 37.551-66.784v-41.093c0-5.523-4.477-10-10-10h-22.665c-9.009 0-17.417-4.103-22.986-10.953 3.424-7.123 5.344-15.099 5.344-23.517 0-5.523-4.477-10-10-10s-10 4.477-10 10c0 19.006-15.463 34.469-34.469 34.469h-41.646c-5.523 0-10 4.477-10 10v41.093c0 28.243 15.051 53.035 37.551 66.784v18.72h-36.259c-19.478 0-38.274 3.833-55.968 11.375-18.572-25.089-17.143-60.459 3.967-83.954 2.602-2.895 3.288-7.036 1.757-10.615zm-93.094 121.354c11.71-11.71 27.28-18.16 43.84-18.16 16.559 0 32.127 6.448 43.837 18.157l.003.003.01.01c11.704 11.709 18.15 27.274 18.15 43.83 0 16.561-6.45 32.13-18.16 43.84s-27.28 18.16-43.84 18.16c-16.561 0-32.13-6.449-43.84-18.16-11.71-11.71-18.16-27.279-18.16-43.84 0-16.56 6.449-32.13 18.16-43.84zm-14.694 175.922c0-14.376 11.696-26.073 26.072-26.073h56.013v52.146h-56.013c-14.377 0-26.072-11.696-26.072-26.073zm102.085 26.082v-52.154h17.923c14.379 0 26.077 11.698 26.077 26.077s-11.699 26.077-26.077 26.077zm55.943-.085c5.078-7.404 8.056-16.356 8.056-25.992 0-13.886-6.183-26.348-15.931-34.803 21.503-5.97 41.469-16.619 58.654-31.435 4.498 7.984 7.153 16.869 7.753 26.175-13.935 7.933-23.36 22.914-23.36 40.063 0 3.963.503 7.811 1.449 11.483-10.409 8.778-23.295 13.79-36.621 14.509zm55.173-25.992c0-14.379 11.698-26.077 26.077-26.077h17.923v52.154h-17.923c-14.379 0-26.077-11.698-26.077-26.077z"/><path id="XMLID_669_" d="m465.915 335.851c2.63 0 5.21-1.07 7.07-2.93s2.93-4.44 2.93-7.07-1.07-5.21-2.93-7.07c-1.87-1.86-4.44-2.93-7.07-2.93-2.64 0-5.21 1.07-7.08 2.93-1.86 1.86-2.92 4.44-2.92 7.07s1.06 5.21 2.92 7.07c1.87 1.86 4.44 2.93 7.08 2.93z"/></g></g></svg>