<svg id="egac09ce0w2l1" xmlns="http://www.w3.org/2000/svg" xmlns:xlink="http://www.w3.org/1999/xlink" viewBox="0 0 512 512" shape-rendering="geometricPrecision" text-rendering="geometricPrecision"><style><![CDATA[#egac09ce0w2l5_to {animation: egac09ce0w2l5_to__to 3000ms linear 1 normal forwards}@keyframes egac09ce0w2l5_to__to { 0% {transform: translate(160.222861px,351.224221px)} 33.333333% {transform: translate(167.018719px,314.526584px)} 66.666667% {transform: translate(165.659547px,358.020080px)} 100% {transform: translate(175.173749px,302.294038px)} }#egac09ce0w2l7_to {animation: egac09ce0w2l7_to__to 3000ms linear 1 normal forwards}@keyframes egac09ce0w2l7_to__to { 0% {transform: translate(82.919377px,272.949967px)} 33.333333% {transform: translate(89.715235px,236.252330px)} 66.666667% {transform: translate(88.356063px,279.745826px)} 100% {transform: translate(97.870265px,224.019784px)} }#egac09ce0w2l9_to {animation: egac09ce0w2l9_to__to 3000ms linear 1 normal forwards}@keyframes egac09ce0w2l9_to__to { 0% {transform: translate(161.511862px,466.555749px)} 33.333333% {transform: translate(168.307720px,429.858112px)} 66.666667% {transform: translate(166.948548px,473.351608px)} 100% {transform: translate(176.462750px,417.625566px)} }#egac09ce0w2l11_to {animation: egac09ce0w2l11_to__to 3000ms linear 1 normal forwards}@keyframes egac09ce0w2l11_to__to { 0% {transform: translate(152.087115px,261.062234px)} 33.333333% {transform: translate(158.882973px,224.364597px)} 66.666667% {transform: translate(157.523801px,267.858093px)} 100% {transform: translate(167.038003px,212.132051px)} }#egac09ce0w2l13_to {animation: egac09ce0w2l13_to__to 3000ms linear 1 normal forwards}@keyframes egac09ce0w2l13_to__to { 0% {transform: translate(246.002982px,126.312727px)} 33.333333% {transform: translate(252.798840px,89.615090px)} 66.666667% {transform: translate(251.439668px,133.108586px)} 100% {transform: translate(260.953870px,77.382544px)} }#egac09ce0w2l15_to {animation: egac09ce0w2l15_to__to 3000ms linear 1 normal forwards}@keyframes egac09ce0w2l15_to__to { 0% {transform: translate(379.849387px,195.441231px)} 33.333333% {transform: translate(386.645245px,158.743594px)} 66.666667% {transform: translate(385.286073px,202.237090px)} 100% {transform: translate(394.800275px,146.511048px)} }#egac09ce0w2l18_to {animation: egac09ce0w2l18_to__to 3000ms linear 1 normal forwards}@keyframes egac09ce0w2l18_to__to { 0% {transform: translate(272.143996px,204.321126px)} 33.333333% {transform: translate(278.939854px,167.623489px)} 66.666667% {transform: translate(277.580682px,211.116985px)} 100% {transform: translate(287.094884px,155.390943px)} }#egac09ce0w2l20_to {animation: egac09ce0w2l20_to__to 3000ms linear 1 normal forwards}@keyframes egac09ce0w2l20_to__to { 0% {transform: translate(462.993659px,285.015061px)} 33.333333% {transform: translate(469.789517px,248.317424px)} 66.666667% {transform: translate(468.430345px,291.810920px)} 100% {transform: translate(477.944547px,236.084878px)} }#egac09ce0w2l23_to {animation: egac09ce0w2l23_to__to 3000ms linear 1 normal forwards}@keyframes egac09ce0w2l23_to__to { 0% {transform: translate(250.108229px,334.629693px)} 33.333333% {transform: translate(256.904087px,297.932056px)} 66.666667% {transform: translate(255.544915px,341.425552px)} 100% {transform: translate(265.059117px,285.699510px)} }#egac09ce0w2l24_to {animation: egac09ce0w2l24_to__to 3000ms linear 1 normal forwards}@keyframes egac09ce0w2l24_to__to { 0% {transform: translate(262.814726px,317.162732px)} 33.333333% {transform: translate(269.610584px,280.465095px)} 66.666667% {transform: translate(268.251412px,323.958591px)} 100% {transform: translate(277.765614px,268.232549px)} }#egac09ce0w2l26_to {animation: egac09ce0w2l26_to__to 3000ms linear 1 normal forwards}@keyframes egac09ce0w2l26_to__to { 0% {transform: translate(318.575369px,358.212716px)} 33.333333% {transform: translate(325.371227px,321.515079px)} 66.666667% {transform: translate(324.012055px,365.008575px)} 100% {transform: translate(333.526257px,309.282533px)} }]]></style><g id="egac09ce0w2l2"><g id="egac09ce0w2l3"><g id="egac09ce0w2l4"><g id="egac09ce0w2l5_to" transform="translate(160.222861,351.224221)"><path id="egac09ce0w2l5" d="M128.377000,262.935000L178.438000,262.935000L178.438000,317.188000L128.377000,317.188000Z" transform="translate(-153.407501,-290.061493)" fill="rgb(244,198,175)" stroke="none" stroke-width="1"/></g></g><g id="egac09ce0w2l6"><g id="egac09ce0w2l7_to" transform="translate(82.919377,272.949967)"><path id="egac09ce0w2l7" d="M142.188000,129.177000L133.107000,120.096000C104.949000,91.938000,59.296000,91.938000,31.138000,120.096000C3.160000,148.074000,2.982000,193.325000,30.603000,221.524000L30.616000,221.511000C19.085000,232.392000,11.888000,247.816000,11.888000,264.922000C11.888000,297.880000,38.606000,324.597000,71.563000,324.597000C104.520000,324.597000,131.238000,297.879000,131.238000,264.922000Z" transform="translate(-76.104017,-211.787239)" fill="rgb(255,216,142)" stroke="none" stroke-width="1"/></g></g><g id="egac09ce0w2l8"><g id="egac09ce0w2l9_to" transform="translate(161.511862,466.555749)"><path id="egac09ce0w2l9" d="M134.697000,308.786000C93.410000,308.786000,59.940000,342.256000,59.940000,383.543000L59.940000,502L249.453000,502L249.453000,423.542000C249.452000,360.164000,198.074000,308.786000,134.697000,308.786000Z" transform="translate(-154.696503,-405.393021)" fill="rgb(255,122,122)" stroke="none" stroke-width="1"/></g></g><g id="egac09ce0w2l10"><g id="egac09ce0w2l11_to" transform="translate(152.087115,261.062234)"><path id="egac09ce0w2l11" d="M186.401000,254C208.661000,231.740000,208.661000,195.650000,186.401000,173.390000L142.115000,129.104000L105.791000,165.428000C81.333000,189.886000,81.333000,229.541000,105.791000,254C128.051000,276.260000,164.141000,276.260000,186.401000,254Z" transform="translate(-145.271755,-199.899506)" fill="rgb(244,198,175)" stroke="none" stroke-width="1"/></g></g><g id="egac09ce0w2l12"><g id="egac09ce0w2l13_to" transform="translate(246.002982,126.312727)"><path id="egac09ce0w2l13" d="M278.728000,104.690000C257.914000,125.504000,224.169000,125.504000,203.355000,104.690000L199.648000,100.983000C178.834000,80.169000,178.834000,46.424000,199.648000,25.610000C220.462000,4.796000,254.207000,4.796000,275.021000,25.610000L278.728000,29.317000C299.541000,50.131000,299.541000,83.876000,278.728000,104.690000Z" transform="translate(-239.187622,-65.149999)" fill="rgb(244,198,175)" stroke="none" stroke-width="1"/></g></g><g id="egac09ce0w2l14"><g id="egac09ce0w2l15_to" transform="translate(379.849387,195.441231)"><path id="egac09ce0w2l15" d="M454.870000,181.526000C439.181000,208.700000,404.434000,218.011000,377.260000,202.322000L311.994000,164.641000C284.820000,148.952000,275.509000,114.205000,291.198000,87.031000C306.887000,59.857000,341.634000,50.546000,368.808000,66.235000L434.074000,103.916000C461.248000,119.605000,470.559000,154.352000,454.870000,181.526000Z" transform="translate(-373.034027,-134.278503)" fill="rgb(180,177,236)" stroke="none" stroke-width="1"/></g></g><g id="egac09ce0w2l16"><g id="egac09ce0w2l17"><g id="egac09ce0w2l18_to" transform="translate(272.143996,204.321126)"><path id="egac09ce0w2l18" d="M197.891000,188.495000C195.648000,177.432000,201.820000,166.365000,212.435000,162.526000C246.091000,150.355000,274.238000,125.175000,289.791000,92.530000C295.212000,81.151000,308.832000,76.321000,320.212000,81.742000C331.592000,87.164000,336.422000,100.783000,331,112.163000C318.910000,137.539000,300.822000,160.110000,278.689000,177.437000C263.448000,189.369000,246.252000,198.842000,228.030000,205.429000C214.921000,210.166000,200.660000,202.156000,197.891000,188.495000Z" transform="translate(-265.328636,-143.158398)" fill="rgb(244,198,175)" stroke="none" stroke-width="1"/></g></g></g><g id="egac09ce0w2l19"><g id="egac09ce0w2l20_to" transform="translate(462.993659,285.015061)"><path id="egac09ce0w2l20" d="M466.548000,200.842000L466.548000,169.032000C466.548000,153.520000,453.973000,140.946000,438.462000,140.946000C422.950000,140.946000,410.376000,153.521000,410.376000,169.032000L410.376000,194.785000C410.376000,238.769000,432.775000,279.725000,469.808000,303.456000C477.320000,308.270000,487.059000,307.783000,494.054000,302.246000C503.881000,294.466000,504.697000,279.845000,495.795000,271.020000C477.077000,252.465000,466.548000,227.200000,466.548000,200.842000Z" transform="translate(-456.178299,-223.852333)" fill="rgb(244,198,175)" stroke="none" stroke-width="1"/></g></g><g id="egac09ce0w2l21"><g id="egac09ce0w2l22"><g id="egac09ce0w2l23_to" transform="translate(250.108229,334.629693)"><path id="egac09ce0w2l23" d="M148.880000,414.902000C136.345000,414.902000,124.446000,407.490000,119.327000,395.196000C112.532000,378.881000,120.250000,360.147000,136.564000,353.353000L145.280000,349.723000C222.661000,317.494000,281.738000,249.894000,303.311000,168.893000L306.797000,155.804000C311.346000,138.726000,328.882000,128.569000,345.955000,133.118000C363.033000,137.667000,373.189000,155.199000,368.641000,172.276000L365.155000,185.365000C351.986000,234.809000,327.228000,281.309000,293.556000,319.838000C259.885000,358.367000,217.120000,389.130000,169.886000,408.804000L161.169000,412.434000C157.149000,414.108000,152.980000,414.902000,148.880000,414.902000Z" transform="translate(-243.292870,-273.466965)" fill="rgb(244,198,175)" stroke="none" stroke-width="1"/></g></g></g><g id="egac09ce0w2l24_to" transform="translate(262.814726,317.162732)"><path id="egac09ce0w2l24" d="M502.835000,263.919000C486.129000,247.357000,476.548000,224.366000,476.548000,200.842000L476.548000,169.032000C476.548000,162.882000,475.074000,157.073000,472.474000,151.925000C472.039000,128.557000,459.373000,106.974000,439.074000,95.255000L373.808000,57.573000C351.506000,44.697000,324.476000,45.987000,303.846000,59.485000C302.230000,45.866000,296.227000,32.673000,285.799000,22.244000L282.093000,18.538000C270.137000,6.584000,254.242000,-0,237.334000,-0C220.426000,-0,204.531000,6.584000,192.576000,18.539000C167.897000,43.218000,167.897000,83.374000,192.577000,108.055000L196.283000,111.761000C208.238000,123.717000,224.134000,130.301000,241.041000,130.301000C243.673000,130.301000,246.276000,130.123000,248.847000,129.808000C237.162000,139.854000,223.665000,147.832000,209.034000,153.123000C202.275000,155.567000,196.744000,160.122000,192.971000,165.819000L149.263000,122.112000C149.261000,122.110000,140.177000,113.027000,140.177000,113.027000C124.670000,97.520000,104.052000,88.979000,82.121000,88.979000C60.190000,88.979000,39.573000,97.519000,24.065000,113.027000C8.665000,128.427000,0.126000,148.902000,0.019000,170.680000C-0.071000,189.242000,5.973000,206.919000,17.197000,221.358000C7.382000,233.640000,1.888000,249.066000,1.888000,264.922000C1.888000,301.375000,30.034000,331.360000,65.732000,334.335000C55.797000,348.218000,49.939000,365.208000,49.939000,383.544000L49.939000,502C49.939000,507.523000,54.417000,512,59.939000,512C65.461000,512,69.939000,507.523000,69.939000,502L69.939000,383.543000C69.939000,347.836000,98.989000,318.786000,134.697000,318.786000C147.341000,318.786000,159.873000,321.091000,171.612000,325.500000C161.927000,331.118000,151.861000,336.149000,141.435000,340.492000L132.719000,344.122000C122.363000,348.435000,114.306000,356.523000,110.032000,366.896000C105.760000,377.269000,105.781000,388.685000,110.094000,399.041000C116.635000,414.751000,131.860000,424.902000,148.878000,424.902000C154.428000,424.902000,159.856000,423.813000,165.013000,421.666000L173.730000,418.036000C194.239000,409.494000,214.026000,398.817000,232.663000,386.365000C237.165000,398.180000,239.452000,410.640000,239.452000,423.543000L239.452000,502C239.452000,507.523000,243.930000,512,249.452000,512C254.974000,512,259.452000,507.523000,259.452000,502L259.452000,423.542000C259.452000,406.425000,256.077000,389.954000,249.422000,374.464000C263.898000,363.518000,277.525000,351.466000,290.044000,338.456000C293.874000,334.477000,293.752000,328.146000,289.773000,324.316000C285.794000,320.486000,279.463000,320.608000,275.634000,324.587000C244.808000,356.620000,206.911000,382.549000,166.041000,399.571000L157.324000,403.201000C154.617000,404.328000,151.775000,404.900000,148.879000,404.900000C139.962000,404.900000,131.985000,399.582000,128.558000,391.350000C126.298000,385.925000,126.287000,379.945000,128.526000,374.512000C130.764000,369.078000,134.984000,364.842000,140.409000,362.583000L149.125000,358.953000C229.354000,325.537000,290.607000,255.448000,312.975000,171.465000L316.461000,158.376000C317.974000,152.698000,321.607000,147.948000,326.693000,145.002000C331.778000,142.055000,337.706000,141.267000,343.381000,142.780000C349.060000,144.293000,353.810000,147.926000,356.755000,153.010000C359.701000,158.095000,360.490000,164.022000,358.978000,169.701000L355.492000,182.790000C348.915000,207.484000,339.333000,231.524000,327.011000,254.242000C324.377000,259.096000,326.179000,265.167000,331.033000,267.800000C335.887000,270.435000,341.957000,268.632000,344.591000,263.778000C354.166000,246.125000,362.175000,227.713000,368.524000,208.825000L372.260000,210.982000C381.628000,216.391000,391.993000,219.402000,402.640000,219.872000C409.465000,257.479000,431.484000,290.776000,464.413000,311.877000C469.510000,315.143000,475.303000,316.758000,481.079000,316.758000C487.886000,316.758000,494.669000,314.515000,500.262000,310.087000C507.188000,304.604000,511.442000,296.401000,511.933000,287.582000C512.424000,278.763000,509.109000,270.138000,502.835000,263.919000ZM210.425000,97.618000L206.719000,93.912000C189.837000,77.030000,189.837000,49.562000,206.719000,32.681000C214.897000,24.503000,225.769000,20,237.334000,20C248.899000,20,259.772000,24.503000,267.950000,32.682000L271.656000,36.388000C288.538000,53.270000,288.538000,80.738000,271.656000,97.619000C263.478000,105.797000,252.605000,110.301000,241.041000,110.301000C229.476000,110.300000,218.604000,105.797000,210.425000,97.618000ZM215.835000,171.930000C252.078000,158.825000,282.323000,131.452000,298.818000,96.831000C301.859000,90.448000,309.525000,87.728000,315.910000,90.769000C319.002000,92.242000,321.336000,94.831000,322.480000,98.060000C323.626000,101.288000,323.444000,104.768000,321.971000,107.861000C310.542000,131.848000,293.444000,153.184000,272.524000,169.563000C258.116000,180.842000,242.003000,189.745000,224.630000,196.024000C221.066000,197.313000,217.283000,197,213.978000,195.142000C210.675000,193.286000,208.443000,190.220000,207.690000,186.509000C206.439000,180.329000,209.940000,174.062000,215.835000,171.930000ZM187.641000,191.714000C186.972000,197.378000,182.149000,201.788000,176.308000,201.788000C170.786000,201.788000,166.308000,206.265000,166.308000,211.788000C166.308000,217.311000,170.786000,221.788000,176.308000,221.788000C182.415000,221.788000,188.116000,220.031000,192.944000,217.004000C192.181000,227.914000,187.651000,238.607000,179.329000,246.929000C161.004000,265.254000,131.186000,265.255000,112.861000,246.929000C92.340000,226.408000,92.340000,193.019000,112.861000,172.499000L142.114000,143.246000L179.329000,180.460000C182.733000,183.864000,185.501000,187.665000,187.641000,191.714000ZM21.888000,264.922000C21.888000,251.105000,27.425000,238.272000,37.480000,228.785000C41.485000,225.005000,41.674000,218.705000,37.911000,214.684000C37.765000,214.528000,37.616000,214.378000,37.463000,214.234000C14.041000,190.006000,14.342000,151.035000,38.210000,127.167000C49.939000,115.437000,65.535000,108.977000,82.123000,108.977000C98.712000,108.977000,114.307000,115.437000,126.036000,127.167000L127.973000,129.104000L98.720000,158.357000C70.403000,186.675000,70.403000,232.753000,98.720000,261.071000C105.043000,267.394000,112.331000,272.172000,120.110000,275.435000C115.272000,297.792000,95.349000,314.597000,71.565000,314.597000C44.172000,314.597000,21.888000,292.313000,21.888000,264.922000ZM132.398000,298.824000C135.597000,293.106000,138.011000,286.897000,139.499000,280.337000C141.692000,280.552000,143.893000,280.663000,146.095000,280.663000C153.660000,280.663000,161.224000,279.390000,168.438000,276.850000L168.438000,303.439000C157.500000,300.376000,146.136000,298.785000,134.697000,298.785000C133.928000,298.787000,133.163000,298.804000,132.398000,298.824000ZM191.728000,312.566000C190.640000,312.006000,189.542000,311.466000,188.437000,310.939000L188.437000,265.623000C190.172000,264.206000,191.854000,262.690000,193.471000,261.072000C205.957000,248.586000,212.460000,232.356000,213.009000,215.961000C215.392000,216.502000,217.823000,216.790000,220.264000,216.790000C224.028000,216.790000,227.805000,216.142000,231.429000,214.832000C250.797000,207.832000,268.772000,197.899000,284.852000,185.310000C286.216000,184.242000,287.562000,183.152000,288.897000,182.047000C271.171000,234.773000,236.737000,280.611000,191.728000,312.566000ZM382.259000,193.662000L374.480000,189.171000C374.591000,188.760000,374.709000,188.351000,374.818000,187.940000L378.304000,174.851000C381.192000,164.011000,379.685000,152.694000,374.061000,142.987000C368.438000,133.279000,359.371000,126.343000,348.531000,123.456000C344.798000,122.461000,341.010000,122,337.250000,122.036000C338.204000,120.192000,339.135000,118.337000,340.028000,116.464000C343.799000,108.549000,344.262000,99.639000,341.332000,91.376000C338.402000,83.113000,332.429000,76.485000,324.514000,72.714000C323.974000,72.457000,323.429000,72.218000,322.882000,71.992000C335.873000,66.760000,350.961000,67.476000,363.810000,74.894000L429.076000,112.576000C437.085000,117.200000,443.384000,124.024000,447.427000,132.021000C444.551000,131.324000,441.551000,130.946000,438.464000,130.946000C417.463000,130.946000,400.378000,148.031000,400.378000,169.032000L400.378000,194.785000C400.378000,196.414000,400.412000,198.037000,400.468000,199.656000C394.094000,198.950000,387.919000,196.929000,382.259000,193.662000ZM491.963000,286.469000C491.787000,289.626000,490.325000,292.445000,487.847000,294.407000C484.201000,297.294000,479.118000,297.547000,475.202000,295.039000C440.871000,273.039000,420.375000,235.562000,420.375000,194.787000L420.375000,169.034000C420.375000,159.061000,428.488000,150.948000,438.461000,150.948000C448.435000,150.948000,456.548000,159.061000,456.548000,169.034000L456.548000,200.844000C456.548000,229.666000,468.287000,257.833000,488.755000,278.124000C491,280.348000,492.139000,283.313000,491.963000,286.469000Z" transform="translate(-255.999366,-256.000004)" fill="rgb(0,0,0)" stroke="none" stroke-width="1"/></g></g><g id="egac09ce0w2l25"><g id="egac09ce0w2l26_to" transform="translate(318.575369,358.212716)"><path id="egac09ce0w2l26" d="M311.760000,307.050000C309.130000,307.050000,306.550000,305.990000,304.690000,304.120000C302.831000,302.260000,301.760000,299.680000,301.760000,297.050000C301.760000,294.420000,302.830000,291.840000,304.690000,289.980000C306.550000,288.120000,309.130000,287.050000,311.760000,287.050000C314.390000,287.050000,316.970000,288.120000,318.830000,289.980000C320.689000,291.840000,321.760000,294.420000,321.760000,297.050000C321.760000,299.690000,320.690000,302.260000,318.830000,304.120000C316.970000,305.990000,314.390000,307.050000,311.760000,307.050000Z" transform="translate(-311.760010,-297.049988)" fill="rgb(0,0,0)" stroke="none" stroke-width="1"/></g></g></g></svg>