<svg id="Capa_1" enable-background="new 0 0 512 512" height="512" viewBox="0 0 512 512" width="512" xmlns="http://www.w3.org/2000/svg"><g id="XMLID_1352_"><path id="XMLID_1540_" d="m10 10h492v492h-492z" fill="#cbf4fb"/><path id="XMLID_1405_" d="m110.187 161.517c11.046 0 20-8.954 20-20v-12.872l47.677-16.312v-11.495c0-24.211-19.627-43.838-43.838-43.838-24.211 0-43.838 19.627-43.838 43.838v40.678c0 11.046 8.954 20.001 19.999 20.001z" fill="#ffd88e"/><path id="XMLID_1156_" d="m173.679 137.474 88.903 230.622h-177.805z" fill="#da73a7"/><path id="XMLID_2860_" d="m173.679 83.758c-24.016 0-43.484 19.469-43.484 43.484v1.571c0 24.016 19.469 43.484 43.484 43.484 24.016 0 43.484-19.469 43.484-43.484v-1.571c.001-24.015-19.468-43.484-43.484-43.484z" fill="#f2d2bd"/><g id="XMLID_925_"><path id="XMLID_1115_" d="m308.378 415 43.301-75 43.302 75z" fill="#ff7a7a"/><circle id="XMLID_1054_" cx="351.679" cy="309.764" fill="#f4c6af" r="30.236"/></g><g id="XMLID_1103_"><circle id="XMLID_866_" cx="383.69" cy="126.779" fill="#ffd88e" r="29.779"/></g><g id="XMLID_1221_"><g id="XMLID_1224_"><path id="XMLID_1254_" d="m502 0h-492c-5.522 0-10 4.478-10 10v492c0 5.522 4.478 10 10 10h492c5.522 0 10-4.478 10-10v-492c0-5.522-4.478-10-10-10zm-10 492h-472v-472h472z"/><path id="XMLID_1250_" d="m305.173 366.002c.825 0 1.665-.103 2.501-.318l20.71-5.334-28.666 49.65c-1.786 3.094-1.786 6.906 0 10s5.088 5 8.66 5h13.302v30c0 5.522 4.478 10 10 10s10-4.478 10-10v-30h20v30c0 5.522 4.478 10 10 10s10-4.478 10-10v-30h13.301c3.572 0 6.874-1.906 8.66-5s1.786-6.906 0-10l-28.666-49.651 20.71 5.334c.837.216 1.676.318 2.501.318 4.453 0 8.515-2.996 9.677-7.508 1.378-5.348-1.841-10.801-7.189-12.178l-22.957-5.913c8.678-7.386 14.199-18.377 14.199-30.64 0-22.187-18.05-40.236-40.236-40.236s-40.236 18.05-40.236 40.236c0 12.262 5.52 23.254 14.199 30.64l-22.957 5.913c-5.349 1.377-8.567 6.83-7.189 12.178 1.161 4.513 5.223 7.509 9.676 7.509zm20.525 38.998 25.981-45 25.98 45zm25.982-115.473c11.158 0 20.236 9.078 20.236 20.236s-9.078 20.237-20.236 20.237-20.236-9.078-20.236-20.236 9.077-20.237 20.236-20.237z"/><path id="XMLID_1247_" d="m383.689 166.559c21.935 0 39.779-17.845 39.779-39.779s-17.844-39.78-39.779-39.78-39.779 17.845-39.779 39.779 17.845 39.78 39.779 39.78zm0-59.559c10.906 0 19.779 8.873 19.779 19.779s-8.873 19.779-19.779 19.779-19.779-8.873-19.779-19.779 8.873-19.779 19.779-19.779z"/><path id="XMLID_1246_" d="m383.689 67c2.63 0 5.21-1.07 7.07-2.931 1.86-1.859 2.93-4.439 2.93-7.069s-1.069-5.21-2.93-7.07-4.44-2.93-7.07-2.93-5.21 1.069-7.069 2.93c-1.86 1.86-2.931 4.44-2.931 7.07s1.07 5.21 2.931 7.069c1.859 1.861 4.44 2.931 7.069 2.931z"/><path id="XMLID_1245_" d="m376.62 189.49c-1.86 1.859-2.931 4.439-2.931 7.069s1.07 5.21 2.931 7.07c1.859 1.86 4.439 2.93 7.069 2.93s5.21-1.069 7.07-2.93 2.93-4.44 2.93-7.07-1.069-5.21-2.93-7.069c-1.86-1.86-4.44-2.931-7.07-2.931s-5.21 1.071-7.069 2.931z"/><path id="XMLID_1243_" d="m453.47 136.78c2.63 0 5.21-1.07 7.07-2.931 1.859-1.859 2.93-4.439 2.93-7.069 0-2.631-1.07-5.211-2.93-7.07-1.86-1.86-4.44-2.93-7.07-2.93-2.64 0-5.21 1.069-7.07 2.93-1.859 1.859-2.93 4.439-2.93 7.07 0 2.63 1.07 5.21 2.93 7.069 1.86 1.861 4.44 2.931 7.07 2.931z"/><path id="XMLID_1241_" d="m313.91 136.78c2.63 0 5.21-1.07 7.069-2.931 1.86-1.859 2.931-4.439 2.931-7.069 0-2.631-1.07-5.211-2.931-7.07-1.859-1.86-4.439-2.93-7.069-2.93s-5.21 1.069-7.07 2.93c-1.86 1.859-2.93 4.439-2.93 7.07 0 2.63 1.069 5.21 2.93 7.069 1.86 1.861 4.44 2.931 7.07 2.931z"/><path id="XMLID_1233_" d="m433.03 87.439c2.63 0 5.21-1.069 7.069-2.93 1.86-1.86 2.931-4.44 2.931-7.07s-1.07-5.21-2.931-7.069c-1.859-1.87-4.439-2.931-7.069-2.931-2.631 0-5.211 1.061-7.07 2.931-1.86 1.859-2.93 4.439-2.93 7.069s1.069 5.21 2.93 7.07c1.859 1.861 4.439 2.93 7.07 2.93z"/><path id="XMLID_1232_" d="m334.35 186.12c2.63 0 5.21-1.07 7.07-2.931 1.86-1.859 2.93-4.439 2.93-7.069s-1.069-5.21-2.93-7.07-4.44-2.93-7.07-2.93-5.21 1.069-7.069 2.93c-1.87 1.86-2.931 4.44-2.931 7.07s1.061 5.21 2.931 7.069c1.859 1.861 4.439 2.931 7.069 2.931z"/><path id="XMLID_1231_" d="m433.03 166.12c-2.631 0-5.211 1.069-7.07 2.93-1.86 1.86-2.93 4.44-2.93 7.07 0 2.64 1.069 5.21 2.93 7.069 1.859 1.86 4.439 2.931 7.07 2.931 2.63 0 5.21-1.07 7.069-2.931 1.86-1.859 2.931-4.439 2.931-7.069s-1.07-5.21-2.931-7.07c-1.859-1.861-4.429-2.93-7.069-2.93z"/><path id="XMLID_1230_" d="m334.35 87.439c2.63 0 5.21-1.069 7.07-2.93s2.93-4.44 2.93-7.07-1.069-5.21-2.93-7.069c-1.86-1.86-4.44-2.931-7.07-2.931-2.64 0-5.21 1.07-7.069 2.931-1.87 1.859-2.931 4.439-2.931 7.069s1.061 5.21 2.931 7.07c1.859 1.861 4.439 2.93 7.069 2.93z"/><path id="XMLID_1226_" d="m76.532 373.754c1.865 2.718 4.949 4.342 8.245 4.342h49.235v76.904c0 5.522 4.478 10 10 10s10-4.478 10-10v-76.904h32.667v76.904c0 5.522 4.478 10 10 10s10-4.478 10-10v-76.904h55.902c3.296 0 6.38-1.624 8.245-4.342s2.271-6.18 1.086-9.255l-15.393-39.93c-1.987-5.154-7.776-7.718-12.928-5.734-5.153 1.987-7.721 7.774-5.734 12.928l10.151 26.333h-148.658l67.921-176.196c2.103.252 4.239.397 6.408.397s4.305-.145 6.408-.397l25.397 65.884c1.531 3.971 5.318 6.406 9.333 6.406 1.196 0 2.412-.217 3.595-.672 5.153-1.986 7.721-7.774 5.734-12.928l-13.182-34.196 44.545 44.545c1.953 1.952 4.512 2.929 7.071 2.929s5.118-.977 7.071-2.929c3.905-3.905 3.905-10.237 0-14.143l-64.663-64.663c13.42-9.727 22.174-25.517 22.174-43.321v-1.57c0-27.058-20.201-49.472-46.311-52.99-9.486-16.735-27.252-27.252-46.826-27.252-29.687 0-53.838 24.151-53.838 53.838v40.679c0 16.542 13.458 30 30 30 8.544 0 16.259-3.596 21.729-9.348 3.019 3.773 6.536 7.127 10.453 9.966l-64.663 64.663c-3.905 3.905-3.905 10.237 0 14.143 1.953 1.952 4.512 2.929 7.071 2.929s5.118-.977 7.071-2.929l44.545-44.545-60.947 158.103c-1.185 3.075-.779 6.537 1.086 9.255zm43.656-232.237c0 5.514-4.486 10-10 10s-10-4.486-10-10v-40.679c0-18.658 15.18-33.838 33.838-33.838 8.875 0 17.146 3.456 23.314 9.321-21.522 6.923-37.144 27.129-37.144 50.922zm20.007-14.274c0-18.463 15.021-33.484 33.484-33.484.242 0 .48.013.721.018.01 0 .02.001.03.001 18.116.402 32.733 15.254 32.733 33.465v1.57c0 18.463-15.021 33.484-33.484 33.484s-33.484-15.021-33.484-33.484z"/><path id="XMLID_1225_" d="m223.93 279.109c-1.86 1.86-2.93 4.44-2.93 7.07s1.069 5.21 2.93 7.07c1.86 1.859 4.44 2.93 7.07 2.93 2.64 0 5.21-1.07 7.069-2.93 1.87-1.86 2.931-4.44 2.931-7.07s-1.061-5.21-2.931-7.07c-1.859-1.859-4.43-2.93-7.069-2.93-2.63.001-5.21 1.071-7.07 2.93z"/></g></g></g></svg>