<svg id="eou2q4zz24f1" xmlns="http://www.w3.org/2000/svg" xmlns:xlink="http://www.w3.org/1999/xlink" viewBox="0 0 512 512" shape-rendering="geometricPrecision" text-rendering="geometricPrecision"><style><![CDATA[#eou2q4zz24f3_to {animation: eou2q4zz24f3_to__to 3000ms linear 1 normal forwards}@keyframes eou2q4zz24f3_to__to { 0% {transform: translate(-265.921954px,256px)} 33.333333% {transform: translate(256px,256px)} 100% {transform: translate(256px,256px)} }#eou2q4zz24f8_to {animation: eou2q4zz24f8_to__to 3000ms linear 1 normal forwards}@keyframes eou2q4zz24f8_to__to { 0% {transform: translate(351.679489px,377.500000px)} 66.666667% {transform: translate(351.679489px,377.500000px)} 100% {transform: translate(312.500778px,377.500000px)} }#eou2q4zz24f9_to {animation: eou2q4zz24f9_to__to 3000ms linear 1 normal forwards}@keyframes eou2q4zz24f9_to__to { 0% {transform: translate(351.678986px,309.764008px)} 66.666667% {transform: translate(351.678986px,309.764008px)} 100% {transform: translate(312.500275px,309.764008px)} }#eou2q4zz24f11_to {animation: eou2q4zz24f11_to__to 3000ms linear 1 normal forwards}@keyframes eou2q4zz24f11_to__to { 0% {transform: translate(622.904230px,126.778999px)} 16.666667% {transform: translate(622.904230px,126.778999px)} 33.333333% {transform: translate(393.251001px,126.778999px)} 100% {transform: translate(393.251001px,126.778999px)} }#eou2q4zz24f11_ts {animation: eou2q4zz24f11_ts__ts 3000ms linear 1 normal forwards}@keyframes eou2q4zz24f11_ts__ts { 0% {transform: scale(1,1)} 66.666667% {transform: scale(1,1)} 100% {transform: scale(1.400000,1.400000)} }#eou2q4zz24f14_to {animation: eou2q4zz24f14_to__to 3000ms linear 1 normal forwards}@keyframes eou2q4zz24f14_to__to { 0% {transform: translate(-265.921954px,256px)} 33.333333% {transform: translate(-265.921954px,256px)} 66.666667% {transform: translate(256px,256px)} 100% {transform: translate(256px,256px)} }#eou2q4zz24f15_to {animation: eou2q4zz24f15_to__to 3000ms linear 1 normal forwards}@keyframes eou2q4zz24f15_to__to { 0% {transform: translate(351.680023px,367.263016px)} 66.666667% {transform: translate(351.680023px,367.263016px)} 100% {transform: translate(312.501312px,367.263016px)} }#eou2q4zz24f16_ts {animation: eou2q4zz24f16_ts__ts 3000ms linear 1 normal forwards}@keyframes eou2q4zz24f16_ts__ts { 0% {transform: translate(383.688995px,126.779507px) scale(1,1)} 66.666667% {transform: translate(383.688995px,126.779507px) scale(1,1)} 100% {transform: translate(383.688995px,126.779507px) scale(1.400000,1.400000)} }#eou2q4zz24f17_ts {animation: eou2q4zz24f17_ts__ts 3000ms linear 1 normal forwards}@keyframes eou2q4zz24f17_ts__ts { 0% {transform: translate(383.688995px,57px) scale(1,1)} 66.666667% {transform: translate(383.688995px,57px) scale(1,1)} 100% {transform: translate(383.688995px,57px) scale(1.400000,1.400000)} }#eou2q4zz24f18_ts {animation: eou2q4zz24f18_ts__ts 3000ms linear 1 normal forwards}@keyframes eou2q4zz24f18_ts__ts { 0% {transform: translate(383.688995px,196.559006px) scale(1,1)} 66.666667% {transform: translate(383.688995px,196.559006px) scale(1,1)} 100% {transform: translate(383.688995px,196.559006px) scale(1.400000,1.400000)} }#eou2q4zz24f19_ts {animation: eou2q4zz24f19_ts__ts 3000ms linear 1 normal forwards}@keyframes eou2q4zz24f19_ts__ts { 0% {transform: translate(453.470001px,126.779999px) scale(1,1)} 66.666667% {transform: translate(453.470001px,126.779999px) scale(1,1)} 100% {transform: translate(453.470001px,126.779999px) scale(1.400000,1.400000)} }#eou2q4zz24f20_ts {animation: eou2q4zz24f20_ts__ts 3000ms linear 1 normal forwards}@keyframes eou2q4zz24f20_ts__ts { 0% {transform: translate(313.910004px,126.779999px) scale(1,1)} 66.666667% {transform: translate(313.910004px,126.779999px) scale(1,1)} 100% {transform: translate(313.910004px,126.779999px) scale(1.400000,1.400000)} }#eou2q4zz24f21_ts {animation: eou2q4zz24f21_ts__ts 3000ms linear 1 normal forwards}@keyframes eou2q4zz24f21_ts__ts { 0% {transform: translate(433.029999px,77.439003px) scale(1,1)} 66.666667% {transform: translate(433.029999px,77.439003px) scale(1,1)} 100% {transform: translate(433.029999px,77.439003px) scale(1.400000,1.400000)} }#eou2q4zz24f22_ts {animation: eou2q4zz24f22_ts__ts 3000ms linear 1 normal forwards}@keyframes eou2q4zz24f22_ts__ts { 0% {transform: translate(334.350006px,176.119995px) scale(1,1)} 66.666667% {transform: translate(334.350006px,176.119995px) scale(1,1)} 100% {transform: translate(334.350006px,176.119995px) scale(1.400000,1.400000)} }#eou2q4zz24f23_ts {animation: eou2q4zz24f23_ts__ts 3000ms linear 1 normal forwards}@keyframes eou2q4zz24f23_ts__ts { 0% {transform: translate(433.029999px,176.119995px) scale(1,1)} 66.666667% {transform: translate(433.029999px,176.119995px) scale(1,1)} 100% {transform: translate(433.029999px,176.119995px) scale(1.400000,1.400000)} }#eou2q4zz24f24_ts {animation: eou2q4zz24f24_ts__ts 3000ms linear 1 normal forwards}@keyframes eou2q4zz24f24_ts__ts { 0% {transform: translate(334.350006px,77.439003px) scale(1,1)} 66.666667% {transform: translate(334.350006px,77.439003px) scale(1,1)} 100% {transform: translate(334.350006px,77.439003px) scale(1.400000,1.400000)} }]]></style><g id="eou2q4zz24f2"><g id="eou2q4zz24f3_to" transform="translate(-265.921954,256)"><path id="eou2q4zz24f3" d="M10,10L502,10L502,502L10,502Z" transform="translate(-256,-256)" fill="rgb(203,244,251)" stroke="none" stroke-width="1"/></g><path id="eou2q4zz24f4" d="M110.187000,161.517000C121.233000,161.517000,130.187000,152.563000,130.187000,141.517000L130.187000,128.645000L177.864000,112.333000L177.864000,100.838000C177.864000,76.627000,158.237000,57,134.026000,57C109.815000,57,90.188000,76.627000,90.188000,100.838000L90.188000,141.516000C90.188000,152.562000,99.142000,161.517000,110.187000,161.517000Z" fill="rgb(255,216,142)" stroke="none" stroke-width="1"/><path id="eou2q4zz24f5" d="M173.679000,137.474000L262.582000,368.096000L84.777000,368.096000Z" fill="rgb(218,115,167)" stroke="none" stroke-width="1"/><path id="eou2q4zz24f6" d="M173.679000,83.758000C149.663000,83.758000,130.195000,103.227000,130.195000,127.242000L130.195000,128.813000C130.195000,152.829000,149.664000,172.297000,173.679000,172.297000C197.695000,172.297000,217.163000,152.828000,217.163000,128.813000L217.163000,127.242000C217.164000,103.227000,197.695000,83.758000,173.679000,83.758000Z" fill="rgb(242,210,189)" stroke="none" stroke-width="1"/><g id="eou2q4zz24f7"><g id="eou2q4zz24f8_to" transform="translate(351.679489,377.500000)"><path id="eou2q4zz24f8" d="M308.378000,415L351.679000,340L394.981000,415Z" transform="translate(-351.679489,-377.500000)" fill="rgb(255,122,122)" stroke="none" stroke-width="1"/></g><g id="eou2q4zz24f9_to" transform="translate(351.678986,309.764008)"><circle id="eou2q4zz24f9" r="30.236000" transform="translate(0,0)" fill="rgb(244,198,175)" stroke="none" stroke-width="1"/></g></g><g id="eou2q4zz24f10"><g id="eou2q4zz24f11_to" transform="translate(622.904230,126.778999)"><g id="eou2q4zz24f11_ts" transform="scale(1,1)"><circle id="eou2q4zz24f11" r="29.778999" transform="translate(0,0)" fill="rgb(255,216,142)" stroke="none" stroke-width="1"/></g></g></g><g id="eou2q4zz24f12"><g id="eou2q4zz24f13"><g id="eou2q4zz24f14_to" transform="translate(-265.921954,256)"><path id="eou2q4zz24f14" d="M502,0L10,0C4.478000,0,0,4.478000,0,10L0,502C0,507.522000,4.478000,512,10,512L502,512C507.522000,512,512,507.522000,512,502L512,10C512,4.478000,507.522000,0,502,0ZM492,492L20,492L20,20L492,20Z" transform="translate(-256,-256)" fill="rgb(0,0,0)" stroke="none" stroke-width="1"/></g><g id="eou2q4zz24f15_to" transform="translate(351.680023,367.263016)"><path id="eou2q4zz24f15" d="M305.173000,366.002000C305.998000,366.002000,306.838000,365.899000,307.674000,365.684000L328.384000,360.350000L299.718000,410C297.932000,413.094000,297.932000,416.906000,299.718000,420C301.504000,423.094000,304.806000,425,308.378000,425L321.680000,425L321.680000,455C321.680000,460.522000,326.158000,465,331.680000,465C337.202000,465,341.680000,460.522000,341.680000,455L341.680000,425L361.680000,425L361.680000,455C361.680000,460.522000,366.158000,465,371.680000,465C377.202000,465,381.680000,460.522000,381.680000,455L381.680000,425L394.981000,425C398.553000,425,401.855000,423.094000,403.641000,420C405.427000,416.906000,405.427000,413.094000,403.641000,410L374.975000,360.349000L395.685000,365.683000C396.522000,365.899000,397.361000,366.001000,398.186000,366.001000C402.639000,366.001000,406.701000,363.005000,407.863000,358.493000C409.241000,353.145000,406.022000,347.692000,400.674000,346.315000L377.717000,340.402000C386.395000,333.016000,391.916000,322.025000,391.916000,309.762000C391.916000,287.575000,373.866000,269.526000,351.680000,269.526000C329.494000,269.526000,311.444000,287.576000,311.444000,309.762000C311.444000,322.024000,316.964000,333.016000,325.643000,340.402000L302.686000,346.315000C297.337000,347.692000,294.119000,353.145000,295.497000,358.493000C296.658000,363.006000,300.720000,366.002000,305.173000,366.002000ZM325.698000,405L351.679000,360L377.659000,405ZM351.680000,289.527000C362.838000,289.527000,371.916000,298.605000,371.916000,309.763000C371.916000,320.921000,362.838000,330,351.680000,330C340.522000,330,331.444000,320.922000,331.444000,309.764000C331.444000,298.606000,340.521000,289.527000,351.680000,289.527000Z" transform="translate(-351.680023,-367.263016)" fill="rgb(0,0,0)" stroke="none" stroke-width="1"/></g><g id="eou2q4zz24f16_ts" transform="translate(383.688995,126.779507) scale(1,1)"><path id="eou2q4zz24f16" d="M383.689000,166.559000C405.624000,166.559000,423.468000,148.714000,423.468000,126.780000C423.468000,104.846000,405.624000,87,383.689000,87C361.754000,87,343.910000,104.845000,343.910000,126.779000C343.910000,148.713000,361.755000,166.559000,383.689000,166.559000ZM383.689000,107C394.595000,107,403.468000,115.873000,403.468000,126.779000C403.468000,137.685000,394.595000,146.558000,383.689000,146.558000C372.783000,146.558000,363.910000,137.685000,363.910000,126.779000C363.910000,115.873000,372.783000,107,383.689000,107Z" transform="translate(-383.688995,-126.779507)" fill="rgb(0,0,0)" stroke="none" stroke-width="1"/></g><g id="eou2q4zz24f17_ts" transform="translate(383.688995,57) scale(1,1)"><path id="eou2q4zz24f17" d="M383.689000,67C386.319000,67,388.899000,65.930000,390.759000,64.069000C392.619000,62.210000,393.689000,59.630000,393.689000,57C393.689000,54.370000,392.620000,51.790000,390.759000,49.930000C388.898000,48.070000,386.319000,47,383.689000,47C381.059000,47,378.479000,48.069000,376.620000,49.930000C374.760000,51.790000,373.689000,54.370000,373.689000,57C373.689000,59.630000,374.759000,62.210000,376.620000,64.069000C378.479000,65.930000,381.060000,67,383.689000,67Z" transform="translate(-383.688995,-57)" fill="rgb(0,0,0)" stroke="none" stroke-width="1"/></g><g id="eou2q4zz24f18_ts" transform="translate(383.688995,196.559006) scale(1,1)"><path id="eou2q4zz24f18" d="M376.620000,189.490000C374.760000,191.349000,373.689000,193.929000,373.689000,196.559000C373.689000,199.189000,374.759000,201.769000,376.620000,203.629000C378.479000,205.489000,381.059000,206.559000,383.689000,206.559000C386.319000,206.559000,388.899000,205.490000,390.759000,203.629000C392.619000,201.768000,393.689000,199.189000,393.689000,196.559000C393.689000,193.929000,392.620000,191.349000,390.759000,189.490000C388.899000,187.630000,386.319000,186.559000,383.689000,186.559000C381.059000,186.559000,378.479000,187.630000,376.620000,189.490000Z" transform="translate(-383.688995,-196.559006)" fill="rgb(0,0,0)" stroke="none" stroke-width="1"/></g><g id="eou2q4zz24f19_ts" transform="translate(453.470001,126.779999) scale(1,1)"><path id="eou2q4zz24f19" d="M453.470000,136.780000C456.100000,136.780000,458.680000,135.710000,460.540000,133.849000C462.399000,131.990000,463.470000,129.410000,463.470000,126.780000C463.470000,124.149000,462.400000,121.569000,460.540000,119.710000C458.680000,117.850000,456.100000,116.780000,453.470000,116.780000C450.830000,116.780000,448.260000,117.849000,446.400000,119.710000C444.541000,121.569000,443.470000,124.149000,443.470000,126.780000C443.470000,129.410000,444.540000,131.990000,446.400000,133.849000C448.260000,135.710000,450.840000,136.780000,453.470000,136.780000Z" transform="translate(-453.470001,-126.779999)" fill="rgb(0,0,0)" stroke="none" stroke-width="1"/></g><g id="eou2q4zz24f20_ts" transform="translate(313.910004,126.779999) scale(1,1)"><path id="eou2q4zz24f20" d="M313.910000,136.780000C316.540000,136.780000,319.120000,135.710000,320.979000,133.849000C322.839000,131.990000,323.910000,129.410000,323.910000,126.780000C323.910000,124.149000,322.840000,121.569000,320.979000,119.710000C319.120000,117.850000,316.540000,116.780000,313.910000,116.780000C311.280000,116.780000,308.700000,117.849000,306.840000,119.710000C304.980000,121.569000,303.910000,124.149000,303.910000,126.780000C303.910000,129.410000,304.979000,131.990000,306.840000,133.849000C308.700000,135.710000,311.280000,136.780000,313.910000,136.780000Z" transform="translate(-313.910004,-126.779999)" fill="rgb(0,0,0)" stroke="none" stroke-width="1"/></g><g id="eou2q4zz24f21_ts" transform="translate(433.029999,77.439003) scale(1,1)"><path id="eou2q4zz24f21" d="M433.030000,87.439000C435.660000,87.439000,438.240000,86.370000,440.099000,84.509000C441.959000,82.649000,443.030000,80.069000,443.030000,77.439000C443.030000,74.809000,441.960000,72.229000,440.099000,70.370000C438.240000,68.500000,435.660000,67.439000,433.030000,67.439000C430.399000,67.439000,427.819000,68.500000,425.960000,70.370000C424.100000,72.229000,423.030000,74.809000,423.030000,77.439000C423.030000,80.069000,424.099000,82.649000,425.960000,84.509000C427.819000,86.370000,430.399000,87.439000,433.030000,87.439000Z" transform="translate(-433.029999,-77.439003)" fill="rgb(0,0,0)" stroke="none" stroke-width="1"/></g><g id="eou2q4zz24f22_ts" transform="translate(334.350006,176.119995) scale(1,1)"><path id="eou2q4zz24f22" d="M334.350000,186.120000C336.980000,186.120000,339.560000,185.050000,341.420000,183.189000C343.280000,181.330000,344.350000,178.750000,344.350000,176.120000C344.350000,173.490000,343.281000,170.910000,341.420000,169.050000C339.559000,167.190000,336.980000,166.120000,334.350000,166.120000C331.720000,166.120000,329.140000,167.189000,327.281000,169.050000C325.411000,170.910000,324.350000,173.490000,324.350000,176.120000C324.350000,178.750000,325.411000,181.330000,327.281000,183.189000C329.140000,185.050000,331.720000,186.120000,334.350000,186.120000Z" transform="translate(-334.350006,-176.119995)" fill="rgb(0,0,0)" stroke="none" stroke-width="1"/></g><g id="eou2q4zz24f23_ts" transform="translate(433.029999,176.119995) scale(1,1)"><path id="eou2q4zz24f23" d="M433.030000,166.120000C430.399000,166.120000,427.819000,167.189000,425.960000,169.050000C424.100000,170.910000,423.030000,173.490000,423.030000,176.120000C423.030000,178.760000,424.099000,181.330000,425.960000,183.189000C427.819000,185.049000,430.399000,186.120000,433.030000,186.120000C435.660000,186.120000,438.240000,185.050000,440.099000,183.189000C441.959000,181.330000,443.030000,178.750000,443.030000,176.120000C443.030000,173.490000,441.960000,170.910000,440.099000,169.050000C438.240000,167.189000,435.670000,166.120000,433.030000,166.120000Z" transform="translate(-433.029999,-176.119995)" fill="rgb(0,0,0)" stroke="none" stroke-width="1"/></g><g id="eou2q4zz24f24_ts" transform="translate(334.350006,77.439003) scale(1,1)"><path id="eou2q4zz24f24" d="M334.350000,87.439000C336.980000,87.439000,339.560000,86.370000,341.420000,84.509000C343.280000,82.648000,344.350000,80.069000,344.350000,77.439000C344.350000,74.809000,343.281000,72.229000,341.420000,70.370000C339.560000,68.510000,336.980000,67.439000,334.350000,67.439000C331.710000,67.439000,329.140000,68.509000,327.281000,70.370000C325.411000,72.229000,324.350000,74.809000,324.350000,77.439000C324.350000,80.069000,325.411000,82.649000,327.281000,84.509000C329.140000,86.370000,331.720000,87.439000,334.350000,87.439000Z" transform="translate(-334.350006,-77.439003)" fill="rgb(0,0,0)" stroke="none" stroke-width="1"/></g><path id="eou2q4zz24f25" d="M76.532000,373.754000C78.397000,376.472000,81.481000,378.096000,84.777000,378.096000L134.012000,378.096000L134.012000,455C134.012000,460.522000,138.490000,465,144.012000,465C149.534000,465,154.012000,460.522000,154.012000,455L154.012000,378.096000L186.679000,378.096000L186.679000,455C186.679000,460.522000,191.157000,465,196.679000,465C202.201000,465,206.679000,460.522000,206.679000,455L206.679000,378.096000L262.581000,378.096000C265.877000,378.096000,268.961000,376.472000,270.826000,373.754000C272.691000,371.036000,273.097000,367.574000,271.912000,364.499000L256.519000,324.569000C254.532000,319.415000,248.743000,316.851000,243.591000,318.835000C238.438000,320.822000,235.870000,326.609000,237.857000,331.763000L248.008000,358.096000L99.350000,358.096000L167.271000,181.900000C169.374000,182.152000,171.510000,182.297000,173.679000,182.297000C175.848000,182.297000,177.984000,182.152000,180.087000,181.900000L205.484000,247.784000C207.015000,251.755000,210.802000,254.190000,214.817000,254.190000C216.013000,254.190000,217.229000,253.973000,218.412000,253.518000C223.565000,251.532000,226.133000,245.744000,224.146000,240.590000L210.964000,206.394000L255.509000,250.939000C257.462000,252.891000,260.021000,253.868000,262.580000,253.868000C265.139000,253.868000,267.698000,252.891000,269.651000,250.939000C273.556000,247.034000,273.556000,240.702000,269.651000,236.796000L204.988000,172.133000C218.408000,162.406000,227.162000,146.616000,227.162000,128.812000L227.162000,127.242000C227.162000,100.184000,206.961000,77.770000,180.851000,74.252000C171.365000,57.517000,153.599000,47,134.025000,47C104.338000,47,80.187000,71.151000,80.187000,100.838000L80.187000,141.517000C80.187000,158.059000,93.645000,171.517000,110.187000,171.517000C118.731000,171.517000,126.446000,167.921000,131.916000,162.169000C134.935000,165.942000,138.452000,169.296000,142.369000,172.135000L77.706000,236.798000C73.801000,240.703000,73.801000,247.035000,77.706000,250.941000C79.659000,252.893000,82.218000,253.870000,84.777000,253.870000C87.336000,253.870000,89.895000,252.893000,91.848000,250.941000L136.393000,206.396000L75.446000,364.499000C74.261000,367.574000,74.667000,371.036000,76.532000,373.754000ZM120.188000,141.517000C120.188000,147.031000,115.702000,151.517000,110.188000,151.517000C104.674000,151.517000,100.188000,147.031000,100.188000,141.517000L100.188000,100.838000C100.188000,82.180000,115.368000,67,134.026000,67C142.901000,67,151.172000,70.456000,157.340000,76.321000C135.818000,83.244000,120.196000,103.450000,120.196000,127.243000ZM140.195000,127.243000C140.195000,108.780000,155.216000,93.759000,173.679000,93.759000C173.921000,93.759000,174.159000,93.772000,174.400000,93.777000C174.410000,93.777000,174.420000,93.778000,174.430000,93.778000C192.546000,94.180000,207.163000,109.032000,207.163000,127.243000L207.163000,128.813000C207.163000,147.276000,192.142000,162.297000,173.679000,162.297000C155.216000,162.297000,140.195000,147.276000,140.195000,128.813000Z" fill="rgb(0,0,0)" stroke="none" stroke-width="1"/><path id="eou2q4zz24f26" d="M223.930000,279.109000C222.070000,280.969000,221,283.549000,221,286.179000C221,288.809000,222.069000,291.389000,223.930000,293.249000C225.790000,295.108000,228.370000,296.179000,231,296.179000C233.640000,296.179000,236.210000,295.109000,238.069000,293.249000C239.939000,291.389000,241,288.809000,241,286.179000C241,283.549000,239.939000,280.969000,238.069000,279.109000C236.210000,277.250000,233.639000,276.179000,231,276.179000C228.370000,276.180000,225.790000,277.250000,223.930000,279.109000Z" fill="rgb(0,0,0)" stroke="none" stroke-width="1"/></g></g></g></svg>