<svg id="eoqu5j6ya04c1" xmlns="http://www.w3.org/2000/svg" xmlns:xlink="http://www.w3.org/1999/xlink" viewBox="0 0 512 512" shape-rendering="geometricPrecision" text-rendering="geometricPrecision"><style><![CDATA[#eoqu5j6ya04c4_to {animation: eoqu5j6ya04c4_to__to 3000ms linear 1 normal forwards}@keyframes eoqu5j6ya04c4_to__to { 0% {transform: translate(-27.378444px,310.968094px)} 16.666667% {transform: translate(157.468914px,310.968094px)} 100% {transform: translate(157.468914px,310.968094px)} }#eoqu5j6ya04c5_to {animation: eoqu5j6ya04c5_to__to 3000ms linear 1 normal forwards}@keyframes eoqu5j6ya04c5_to__to { 0% {transform: translate(529.486070px,375.715866px)} 16.666667% {transform: translate(529.486070px,375.715866px)} 33.333333% {transform: translate(398.205836px,375.715866px)} 100% {transform: translate(398.205836px,375.715866px)} }#eoqu5j6ya04c6_to {animation: eoqu5j6ya04c6_to__to 3000ms linear 1 normal forwards}@keyframes eoqu5j6ya04c6_to__to { 0% {transform: translate(-21.299021px,319.826691px)} 16.666667% {transform: translate(163.548337px,319.826691px)} 100% {transform: translate(163.548337px,319.826691px)} }#eoqu5j6ya04c7_to {animation: eoqu5j6ya04c7_to__to 3000ms linear 1 normal forwards}@keyframes eoqu5j6ya04c7_to__to { 0% {transform: translate(539.050768px,387.752045px)} 16.666667% {transform: translate(539.050768px,387.752045px)} 33.333333% {transform: translate(407.770534px,387.752045px)} 100% {transform: translate(407.770534px,387.752045px)} }#eoqu5j6ya04c9_to {animation: eoqu5j6ya04c9_to__to 3000ms linear 1 normal forwards}@keyframes eoqu5j6ya04c9_to__to { 0% {transform: translate(445.722992px,178.547241px)} 10% {transform: translate(388.637778px,205.730676px)} 16.666667% {transform: translate(406.307011px,163.596351px)} 23.333333% {transform: translate(446.859490px,170.080741px)} 33.333333% {transform: translate(438.611964px,182.021241px)} 43.333333% {transform: translate(409.749683px,214.923959px)} 50% {transform: translate(400.235481px,170.080741px)} 56.666667% {transform: translate(428.633449px,170.080741px)} 63.333333% {transform: translate(434.464041px,182.021241px)} 66.666667% {transform: translate(424.464041px,188.817100px)} 76.666667% {transform: translate(419.749683px,170.080741px)} 83.333333% {transform: translate(445.743988px,158.140241px)} 90% {transform: translate(434.464041px,188.042020px)} 96.666667% {transform: translate(434.464041px,170.080741px)} 100% {transform: translate(424.464041px,182.021241px)} }#eoqu5j6ya04c10_to {animation: eoqu5j6ya04c10_to__to 3000ms linear 1 normal forwards}@keyframes eoqu5j6ya04c10_to__to { 0% {transform: translate(325.487000px,64.832998px)} 10% {transform: translate(268.401786px,92.016433px)} 16.666667% {transform: translate(286.071019px,49.882108px)} 23.333333% {transform: translate(326.623498px,56.366498px)} 33.333333% {transform: translate(318.375972px,68.306998px)} 43.333333% {transform: translate(289.513691px,101.209717px)} 50% {transform: translate(279.999489px,56.366498px)} 56.666667% {transform: translate(308.397456px,56.366498px)} 63.333333% {transform: translate(314.228049px,68.306998px)} 66.666667% {transform: translate(304.228049px,75.102857px)} 76.666667% {transform: translate(299.513691px,56.366498px)} 83.333333% {transform: translate(325.507996px,44.425998px)} 90% {transform: translate(314.228049px,74.327777px)} 96.666667% {transform: translate(314.228049px,56.366498px)} 100% {transform: translate(304.228049px,68.306998px)} }#eoqu5j6ya04c13_to {animation: eoqu5j6ya04c13_to__to 3000ms linear 1 normal forwards}@keyframes eoqu5j6ya04c13_to__to { 0% {transform: translate(-27.378576px,326.458389px)} 16.666667% {transform: translate(157.468782px,326.458389px)} 100% {transform: translate(157.468782px,326.458389px)} }#eoqu5j6ya04c14_to {animation: eoqu5j6ya04c14_to__to 3000ms linear 1 normal forwards}@keyframes eoqu5j6ya04c14_to__to { 0% {transform: translate(33.078187px,231.530487px)} 16.666667% {transform: translate(217.925545px,231.530487px)} 100% {transform: translate(217.925545px,231.530487px)} }#eoqu5j6ya04c15_to {animation: eoqu5j6ya04c15_to__to 3000ms linear 1 normal forwards}@keyframes eoqu5j6ya04c15_to__to { 0% {transform: translate(529.484193px,386.791107px)} 16.666667% {transform: translate(529.484193px,386.791107px)} 33.333333% {transform: translate(398.203960px,386.791107px)} 100% {transform: translate(398.203960px,386.791107px)} }#eoqu5j6ya04c16_to {animation: eoqu5j6ya04c16_to__to 3000ms linear 1 normal forwards}@keyframes eoqu5j6ya04c16_to__to { 0% {transform: translate(445.722031px,178.556839px)} 10% {transform: translate(388.636817px,205.740274px)} 16.666667% {transform: translate(406.306050px,163.605949px)} 23.333333% {transform: translate(446.858529px,170.090339px)} 33.333333% {transform: translate(438.611003px,182.030839px)} 43.333333% {transform: translate(409.748722px,214.933557px)} 50% {transform: translate(400.234520px,170.090339px)} 56.666667% {transform: translate(428.632487px,170.090339px)} 63.333333% {transform: translate(434.463080px,182.030839px)} 66.666667% {transform: translate(424.463080px,188.826698px)} 76.666667% {transform: translate(419.748722px,170.090339px)} 83.333333% {transform: translate(445.743027px,158.149839px)} 90% {transform: translate(434.463080px,188.051618px)} 96.666667% {transform: translate(434.463080px,170.090339px)} 100% {transform: translate(424.463080px,182.030839px)} }#eoqu5j6ya04c17_to {animation: eoqu5j6ya04c17_to__to 3000ms linear 1 normal forwards}@keyframes eoqu5j6ya04c17_to__to { 0% {transform: translate(325.486984px,64.834003px)} 10% {transform: translate(268.401770px,92.017438px)} 16.666667% {transform: translate(286.071003px,49.883113px)} 23.333333% {transform: translate(326.623482px,56.367503px)} 33.333333% {transform: translate(318.375957px,68.308003px)} 43.333333% {transform: translate(289.513675px,101.210722px)} 50% {transform: translate(279.999473px,56.367503px)} 56.666667% {transform: translate(308.397441px,56.367503px)} 63.333333% {transform: translate(314.228033px,68.308003px)} 66.666667% {transform: translate(304.228033px,75.103862px)} 76.666667% {transform: translate(299.513675px,56.367503px)} 83.333333% {transform: translate(325.507980px,44.427003px)} 90% {transform: translate(314.228033px,74.328782px)} 96.666667% {transform: translate(314.228033px,56.367503px)} 100% {transform: translate(304.228033px,68.308003px)} }#eoqu5j6ya04c18_to {animation: eoqu5j6ya04c18_to__to 3000ms linear 1 normal forwards}@keyframes eoqu5j6ya04c18_to__to { 0% {transform: translate(500.610429px,327.558990px)} 16.666667% {transform: translate(500.610429px,327.558990px)} 33.333333% {transform: translate(369.330196px,327.558990px)} 100% {transform: translate(369.330196px,327.558990px)} }#eoqu5j6ya04c19_to {animation: eoqu5j6ya04c19_to__to 3000ms linear 1 normal forwards}@keyframes eoqu5j6ya04c19_to__to { 0% {transform: translate(111.937677px,299.428986px)} 16.666667% {transform: translate(257.369054px,299.428986px)} 100% {transform: translate(257.369054px,299.428986px)} }]]></style><g id="eoqu5j6ya04c2"><g id="eoqu5j6ya04c3"><g id="eoqu5j6ya04c4_to" transform="translate(-27.378444,310.968094)"><path id="eoqu5j6ya04c4" d="M246.349000,197.358000C199.367000,154.529000,119.964000,188.031000,121.676000,251.582000C121.676000,307.594000,76.269000,353,20.257000,353C16.795000,353,13.373000,352.825000,9.999000,352.486000C17.042000,370.336000,27.770000,387.069000,42.204000,401.502000C98.577000,457.875000,189.975000,457.875000,246.349000,401.502000C302.722000,345.130000,302.722000,253.731000,246.349000,197.358000Z" transform="translate(-149.313884,-310.968094)" fill="rgb(255,216,142)" stroke="none" stroke-width="1"/></g><g id="eoqu5j6ya04c5_to" transform="translate(529.486070,375.715866)"><path id="eoqu5j6ya04c5" d="M495.618000,402.162000C460.766000,402.162000,432.513000,373.909000,432.513000,339.056000C433.325000,298.890000,384.045000,277.627000,354.937000,305.316000C319.860000,340.393000,319.860000,397.265000,354.937000,432.342000C390.014000,467.419000,446.885000,467.419000,481.963000,432.342000C490.944000,423.361000,497.620000,412.949000,502.002000,401.842000C499.901000,402.053000,497.773000,402.162000,495.618000,402.162000Z" transform="translate(-415.315643,-375.715866)" fill="rgb(203,244,251)" stroke="none" stroke-width="1"/></g><g id="eoqu5j6ya04c6_to" transform="translate(-21.299021,319.826691)"><path id="eoqu5j6ya04c6" d="M160.938000,279.591000C152.129000,283.578000,145.504000,291.059000,142.148000,300.126000C136.880000,314.362000,123.851000,325.038000,108.091000,326.641000C105.251000,326.930000,102.463000,326.921000,99.753000,326.649000C102.763000,334.277000,107.446000,341.398000,113.813000,347.441000C136.124000,368.616000,171.560000,368.563000,193.808000,347.322000C201.798000,339.694000,207.125000,330.365000,209.791000,320.468000C217.494000,291.875000,187.940000,267.371000,160.962000,279.581000Z" transform="translate(-155.393307,-319.826691)" fill="rgb(247,228,191)" stroke="none" stroke-width="1"/></g><g id="eoqu5j6ya04c7_to" transform="translate(539.050768,387.752045)"><path id="eoqu5j6ya04c7" d="M421.224000,361.219000C427.033000,363.848000,431.402000,368.781000,433.615000,374.761000C437.089000,384.149000,445.681000,391.189000,456.074000,392.246000C457.947000,392.436000,459.785000,392.431000,461.572000,392.251000C459.587000,397.281000,456.499000,401.977000,452.300000,405.962000C437.587000,419.926000,414.219000,419.891000,399.548000,405.883000C394.279000,400.853000,390.766000,394.701000,389.008000,388.175000C383.929000,369.320000,403.417000,353.161000,421.208000,361.212000Z" transform="translate(-424.880341,-387.752045)" fill="rgb(203,244,251)" stroke="none" stroke-width="1"/></g><g id="eoqu5j6ya04c8"><g id="eoqu5j6ya04c9_to" transform="translate(445.722992,178.547241)"><path id="eoqu5j6ya04c9" d="M445.723000,229.997000L399.101000,183.375000C386.227000,170.501000,386.227000,149.627000,399.101000,136.753000C411.975000,123.879000,432.849000,123.879000,445.723000,136.753000C458.597000,123.879000,479.471000,123.879000,492.345000,136.753000C505.219000,149.627000,505.219000,170.501000,492.345000,183.375000Z" transform="translate(-445.722992,-178.547241)" fill="rgb(255,122,122)" stroke="none" stroke-width="1"/></g></g><g id="eoqu5j6ya04c10_to" transform="translate(325.487000,64.832998)"><path id="eoqu5j6ya04c10" d="M325.487000,98.530000L294.952000,67.995000C286.520000,59.563000,286.520000,45.892000,294.952000,37.460000C303.384000,29.028000,317.055000,29.028000,325.487000,37.460000C333.919000,29.028000,347.590000,29.028000,356.022000,37.460000C364.454000,45.892000,364.454000,59.563000,356.022000,67.995000Z" transform="translate(-325.487000,-64.832998)" fill="rgb(255,122,122)" stroke="none" stroke-width="1"/></g></g><g id="eoqu5j6ya04c11"><g id="eoqu5j6ya04c12"><g id="eoqu5j6ya04c13_to" transform="translate(-27.378576,326.458389)"><path id="eoqu5j6ya04c13" d="M284.698000,334.440000C279.442000,332.744000,273.806000,335.625000,272.106000,340.879000C265.538000,361.199000,254.493000,379.217000,239.277000,394.432000C186.894000,446.817000,101.658000,446.817000,49.275000,394.432000C39.845000,385.002000,31.986000,374.428000,25.800000,362.865000C51.402000,361.604000,74.757000,351.657000,92.981000,335.921000C96.495000,342.912000,101.156000,349.215000,106.928000,354.695000C119.565000,366.687000,136.186000,373.288000,153.744000,373.288000L153.848000,373.288000C171.444000,373.262000,188.087000,366.608000,200.712000,354.555000C209.741000,345.934000,216.220000,335.046000,219.446000,323.069000C223.984000,306.222000,218.492000,288.692000,205.113000,277.320000C191.535000,265.780000,173.061000,263.151000,156.882000,270.451000C156.859000,270.462000,156.835000,270.472000,156.812000,270.482000C145.690000,275.517000,137.151000,284.812000,132.767000,296.658000C129.181000,306.351000,120.922000,313.602000,111.116000,315.992000C124.054000,297.794000,131.674000,275.563000,131.674000,251.583000C131.674000,251.493000,131.673000,251.403000,131.670000,251.313000C131.001000,226.472000,144.669000,205.203000,168.232000,194.417000C187.506000,185.595000,216.316000,183.649000,239.442000,204.596000C254.588000,219.791000,265.582000,237.771000,272.125000,258.041000C273.821000,263.297000,279.457000,266.180000,284.713000,264.486000C289.969000,262.790000,292.855000,257.154000,291.158000,251.898000C288.653000,244.137000,285.569000,236.677000,281.944000,229.523000L293.741000,222.504000C297.293000,220.391000,299.179000,216.310000,298.486000,212.234000C297.794000,208.160000,294.666000,204.930000,290.615000,204.109000L260.650000,198.034000C258.335000,195.388000,255.932000,192.800000,253.418000,190.286000C253.309000,190.178000,253.197000,190.071000,253.084000,189.967000C228.068000,167.163000,191.492000,161.773000,159.907000,176.232000C129.324000,190.231000,110.852000,219.143000,111.674000,251.710000C111.606000,302.058000,70.623000,343,20.258000,343C17.177000,343,14.062000,342.844000,11,342.536000C7.537000,342.197000,4.130000,343.672000,2.024000,346.454000C-0.080000,349.235000,-0.582000,352.912000,0.697000,356.156000C8.471000,375.862000,20.057000,393.498000,35.133000,408.574000C61.607000,435.048000,96.005000,450.718000,132.979000,453.375000C134.671000,466.252000,142.503000,477.539000,154.275000,483.596000C155.739000,484.350000,157.301000,484.706000,158.842000,484.706000C162.469000,484.706000,165.968000,482.727000,167.741000,479.279000C170.268000,474.368000,168.336000,468.339000,163.425000,465.812000C158.415000,463.234000,154.834000,458.757000,153.366000,453.509000C161.963000,453.013000,170.428000,451.821000,178.693000,449.949000C180.986000,464.295000,189.891000,476.799000,203.102000,483.596000C204.566000,484.350000,206.128000,484.706000,207.669000,484.706000C211.296000,484.706000,214.795000,482.727000,216.568000,479.279000C219.095000,474.368000,217.163000,468.339000,212.252000,465.812000C203.981000,461.556000,198.683000,453.353000,198.141000,444.153000C218.661000,436.528000,237.479000,424.514000,253.420000,408.573000C270.896000,391.097000,283.585000,370.391000,291.138000,347.030000C292.836000,341.776000,289.953000,336.139000,284.698000,334.440000ZM151.526000,303.597000C154.034000,296.820000,158.826000,291.537000,165.020000,288.720000C165.041000,288.710000,165.063000,288.700000,165.084000,288.691000C175.922000,283.786000,186.178000,287.473000,192.161000,292.558000C199.697000,298.963000,202.679000,308.424000,200.135000,317.867000C197.861000,326.311000,193.284000,333.995000,186.903000,340.090000C168.367000,357.786000,139.284000,357.830000,120.697000,340.189000C119.084000,338.658000,117.592000,337.039000,116.223000,335.335000C132.237000,331.284000,145.677000,319.405000,151.526000,303.597000Z" transform="translate(-149.313752,-326.458389)" fill="rgb(0,0,0)" stroke="none" stroke-width="1"/></g><g id="eoqu5j6ya04c14_to" transform="translate(33.078187,231.530487)"><path id="eoqu5j6ya04c14" d="M193.334000,226.400000C189.429000,230.305000,189.430000,236.637000,193.335000,240.542000C197.240000,244.449000,203.573000,244.446000,207.477000,240.541000C208.304000,239.715000,209.269000,239.591000,209.771000,239.591000C210.273000,239.591000,211.238000,239.715000,212.065000,240.541000C214.017000,242.494000,216.577000,243.471000,219.136000,243.471000C221.695000,243.471000,224.254000,242.494000,226.206000,240.542000C230.111000,236.638000,230.112000,230.306000,226.207000,226.400000C221.817000,222.009000,215.979000,219.590000,209.770000,219.590000C203.561000,219.590000,197.724000,222.009000,193.334000,226.400000Z" transform="translate(-209.770515,-231.530487)" fill="rgb(0,0,0)" stroke="none" stroke-width="1"/></g><g id="eoqu5j6ya04c15_to" transform="translate(529.484193,386.791107)"><path id="eoqu5j6ya04c15" d="M509.976000,395.809000C507.872000,393.029000,504.478000,391.546000,501,391.892000C499.223000,392.071000,497.412000,392.162000,495.617000,392.162000C466.365000,392.162000,442.561000,368.389000,442.512000,339.148000C442.924000,316.645000,430.189000,296.942000,409.253000,287.710000C388.048000,278.359000,364.593000,282.327000,348.044000,298.070000C347.984000,298.127000,347.925000,298.185000,347.865000,298.244000C346.549000,299.560000,345.278000,300.910000,344.045000,302.285000L326.641000,305.814000C322.590000,306.635000,319.462000,309.865000,318.770000,313.939000C318.078000,318.014000,319.963000,322.095000,323.515000,324.209000L327.858000,326.793000C321.816000,339.793000,318.628000,354.065000,318.628000,368.828000C318.628000,395.492000,329.011000,420.559000,347.864000,439.413000C357.675000,449.224000,369.038000,456.559000,381.170000,461.423000C380.978000,465.899000,378.435000,469.906000,374.423000,471.970000C369.513000,474.497000,367.580000,480.527000,370.108000,485.438000C371.881000,488.884000,375.380000,490.864000,379.007000,490.864000C380.548000,490.864000,382.111000,490.507000,383.575000,489.754000C392.588000,485.116000,398.754000,476.707000,400.598000,467.001000C406.496000,468.064000,412.472000,468.604000,418.448000,468.604000C420.758000,468.604000,423.068000,468.522000,425.373000,468.363000C424.565000,469.877000,423.322000,471.151000,421.728000,471.971000C416.818000,474.498000,414.885000,480.528000,417.413000,485.439000C419.187000,488.885000,422.686000,490.865000,426.312000,490.865000C427.853000,490.865000,429.416000,490.508000,430.880000,489.755000C440.357000,484.878000,446.270000,475.275000,446.388000,464.640000C462.012000,460.112000,476.739000,451.708000,489.031000,439.416000C498.780000,429.667000,506.272000,418.261000,511.301000,405.514000C512.582000,402.267000,512.079000,398.590000,509.976000,395.809000ZM444.560000,399.487000C433.750000,408.910000,416.900000,408.624000,406.454000,398.650000C402.697000,395.062000,400.003000,390.540000,398.665000,385.574000C397.339000,380.652000,398.899000,375.714000,402.841000,372.365000C405.385000,370.202000,408.411000,369.092000,411.503000,369.092000C413.371000,369.092000,415.264000,369.497000,417.086000,370.322000C417.113000,370.335000,417.141000,370.346000,417.169000,370.359000C420.398000,371.843000,422.907000,374.636000,424.237000,378.231000C427.818000,387.910000,435.321000,395.563000,444.560000,399.487000ZM474.891000,425.271000C443.770000,456.394000,393.129000,456.394000,362.008000,425.271000C330.916000,394.179000,330.887000,343.607000,361.917000,312.477000C374.565000,300.521000,390.485000,301.292000,401.184000,306.010000C411.723000,310.657000,422.861000,321.726000,422.514000,338.854000C422.513000,338.921000,422.512000,338.989000,422.512000,339.056000C422.512000,343.257000,422.886000,347.370000,423.569000,351.379000C412.120000,346.944000,399.375000,349.061000,389.887000,357.126000C380.050000,365.486000,376.013000,378.381000,379.353000,390.777000C381.644000,399.277000,386.240000,407.002000,392.643000,413.115000C401.977000,422.027000,413.970000,426.485000,425.966000,426.485000C437.912000,426.484000,449.862000,422.062000,459.184000,413.214000C461.611000,410.911000,463.755000,408.397000,465.628000,405.704000C471.968000,408.568000,478.778000,410.569000,485.920000,411.519000C482.788000,416.462000,479.104000,421.059000,474.891000,425.271000Z" transform="translate(-415.313766,-386.791107)" fill="rgb(0,0,0)" stroke="none" stroke-width="1"/></g><g id="eoqu5j6ya04c16_to" transform="translate(445.722031,178.556839)"><path id="eoqu5j6ya04c16" d="M438.651000,237.068000C440.604000,239.020000,443.163000,239.997000,445.722000,239.997000C448.281000,239.997000,450.840000,239.020000,452.793000,237.068000L499.415000,190.445000C516.167000,173.692000,516.167000,146.433000,499.415000,129.681000C484.854000,115.121000,462.357000,113.217000,445.722000,123.964000C429.084000,113.215000,406.588000,115.122000,392.029000,129.681000C375.277000,146.433000,375.277000,173.692000,392.029000,190.446000ZM406.172000,143.824000C410.650000,139.346000,416.530000,137.108000,422.412000,137.108000C428.293000,137.108000,434.175000,139.347000,438.651000,143.824000C442.557000,147.728000,448.887000,147.728000,452.794000,143.824000C461.747000,134.869000,476.316000,134.867000,485.273000,143.824000C494.228000,152.778000,494.227000,167.348000,485.273000,176.303000L445.722000,215.854000L406.171000,176.304000C397.218000,167.349000,397.217000,152.778000,406.172000,143.824000Z" transform="translate(-445.722031,-178.556839)" fill="rgb(0,0,0)" stroke="none" stroke-width="1"/></g><g id="eoqu5j6ya04c17_to" transform="translate(325.486984,64.834003)"><path id="eoqu5j6ya04c17" d="M332.559000,105.602000L363.092000,75.067000C369.060000,69.100000,372.346000,61.168000,372.346000,52.728000C372.346000,44.290000,369.060000,36.357000,363.093000,30.390000C357.126000,24.423000,349.193000,21.137000,340.755000,21.137000C335.322000,21.137000,330.100000,22.499000,325.476000,25.061000C313.471000,18.448000,298.047000,20.227000,287.881000,30.390000C281.914000,36.357000,278.628000,44.290000,278.628000,52.728000C278.628000,61.166000,281.914000,69.100000,287.881000,75.067000L318.416000,105.602000C320.292000,107.477000,322.835000,108.531000,325.487000,108.531000C328.139000,108.531000,330.684000,107.477000,332.559000,105.602000ZM302.024000,60.924000C297.504000,56.404000,297.504000,49.052000,302.023000,44.532000C304.284000,42.272000,307.252000,41.142000,310.220000,41.142000C313.188000,41.142000,316.158000,42.272000,318.416000,44.532000C322.322000,48.436000,328.652000,48.436000,332.559000,44.532000C337.080000,40.011000,344.433000,40.013000,348.952000,44.532000C351.141000,46.721000,352.347000,49.632000,352.347000,52.727000C352.347000,55.824000,351.142000,58.734000,348.951000,60.923000L325.488000,84.387000Z" transform="translate(-325.486984,-64.834003)" fill="rgb(0,0,0)" stroke="none" stroke-width="1"/></g><g id="eoqu5j6ya04c18_to" transform="translate(500.610429,327.558990)"><path id="eoqu5j6ya04c18" d="M386.440000,337.559000C389.070000,337.559000,391.650000,336.490000,393.510000,334.629000C395.370000,332.768000,396.440000,330.189000,396.440000,327.559000C396.440000,324.929000,395.371000,322.349000,393.510000,320.490000C391.650000,318.630000,389.070000,317.559000,386.440000,317.559000C383.810000,317.559000,381.230000,318.629000,379.371000,320.490000C377.511000,322.349000,376.440000,324.929000,376.440000,327.559000C376.440000,330.189000,377.510000,332.769000,379.371000,334.629000C381.230000,336.489000,383.810000,337.559000,386.440000,337.559000Z" transform="translate(-386.440002,-327.558990)" fill="rgb(0,0,0)" stroke="none" stroke-width="1"/></g><g id="eoqu5j6ya04c19_to" transform="translate(111.937677,299.428986)"><path id="eoqu5j6ya04c19" d="M288.630000,289.429000C285.990000,289.429000,283.420000,290.499000,281.560000,292.359000C279.701000,294.219000,278.630000,296.799000,278.630000,299.429000C278.630000,302.059000,279.700000,304.639000,281.560000,306.499000C283.420000,308.358000,286,309.429000,288.630000,309.429000C291.260000,309.429000,293.840000,308.359000,295.700000,306.499000C297.559000,304.639000,298.630000,302.059000,298.630000,299.429000C298.630000,296.799000,297.560000,294.219000,295.700000,292.359000C293.840000,290.499000,291.260000,289.429000,288.630000,289.429000Z" transform="translate(-288.630005,-299.428986)" fill="rgb(0,0,0)" stroke="none" stroke-width="1"/></g></g></g></g></svg>