<svg id="Capa_1" enable-background="new 0 0 512 512" height="512" viewBox="0 0 512 512" width="512" xmlns="http://www.w3.org/2000/svg"><g id="XMLID_1996_"><g id="XMLID_813_"><path id="XMLID_1871_" d="m246.349 197.358c-46.982-42.829-126.385-9.327-124.673 54.224 0 56.012-45.407 101.418-101.419 101.418-3.462 0-6.884-.175-10.258-.514 7.043 17.85 17.771 34.583 32.205 49.016 56.373 56.373 147.771 56.373 204.145 0 56.373-56.372 56.373-147.771 0-204.144z" fill="#ffd88e"/><path id="XMLID_835_" d="m495.618 402.162c-34.852 0-63.105-28.253-63.105-63.106.812-40.166-48.468-61.429-77.576-33.74-35.077 35.077-35.077 91.949 0 127.026s91.948 35.077 127.026 0c8.981-8.981 15.657-19.393 20.039-30.5-2.101.211-4.229.32-6.384.32z" fill="#cbf4fb"/><path id="XMLID_2615_" d="m160.938 279.591c-8.809 3.987-15.434 11.468-18.79 20.535-5.268 14.236-18.297 24.912-34.057 26.515-2.84.289-5.628.28-8.338.008 3.01 7.628 7.693 14.749 14.06 20.792 22.311 21.175 57.747 21.122 79.995-.119 7.99-7.628 13.317-16.957 15.983-26.854 7.703-28.593-21.851-53.097-48.829-40.887z" fill="#f7e4bf"/><path id="XMLID_2896_" d="m421.224 361.219c5.809 2.629 10.178 7.562 12.391 13.542 3.474 9.388 12.066 16.428 22.459 17.485 1.873.19 3.711.185 5.498.005-1.985 5.03-5.073 9.726-9.272 13.711-14.713 13.964-38.081 13.929-52.752-.079-5.269-5.03-8.782-11.182-10.54-17.708-5.079-18.855 14.409-35.014 32.2-26.963z" fill="#cbf4fb"/><g id="XMLID_2587_"><path id="XMLID_2586_" d="m445.723 229.997-46.622-46.622c-12.874-12.874-12.874-33.748 0-46.622 12.874-12.874 33.748-12.874 46.622 0 12.874-12.874 33.748-12.874 46.622 0 12.874 12.874 12.874 33.748 0 46.622z" fill="#ff7a7a"/></g><path id="XMLID_2670_" d="m325.487 98.53-30.535-30.535c-8.432-8.432-8.432-22.103 0-30.535 8.432-8.432 22.103-8.432 30.535 0 8.432-8.432 22.103-8.432 30.535 0 8.432 8.432 8.432 22.103 0 30.535z" fill="#ff7a7a"/></g><g id="XMLID_1257_"><g id="XMLID_1259_"><path id="XMLID_1287_" d="m284.698 334.44c-5.256-1.696-10.892 1.185-12.592 6.439-6.568 20.32-17.613 38.338-32.829 53.553-52.383 52.385-137.619 52.385-190.002 0-9.43-9.43-17.289-20.004-23.475-31.567 25.602-1.261 48.957-11.208 67.181-26.944 3.514 6.991 8.175 13.294 13.947 18.774 12.637 11.992 29.258 18.593 46.816 18.593h.104c17.596-.026 34.239-6.68 46.864-18.733 9.029-8.621 15.508-19.509 18.734-31.486 4.538-16.847-.954-34.377-14.333-45.749-13.578-11.54-32.052-14.169-48.231-6.869-.023.011-.047.021-.07.031-11.122 5.035-19.661 14.33-24.045 26.176-3.586 9.693-11.845 16.944-21.651 19.334 12.938-18.198 20.558-40.429 20.558-64.409 0-.09-.001-.18-.004-.27-.669-24.841 12.999-46.11 36.562-56.896 19.274-8.822 48.084-10.768 71.21 10.179 15.146 15.195 26.14 33.175 32.683 53.445 1.696 5.256 7.332 8.139 12.588 6.445 5.256-1.696 8.142-7.332 6.445-12.588-2.505-7.761-5.589-15.221-9.214-22.375l11.797-7.019c3.552-2.113 5.438-6.194 4.745-10.27-.692-4.074-3.82-7.304-7.871-8.125l-29.965-6.075c-2.315-2.646-4.718-5.234-7.232-7.748-.109-.108-.221-.215-.334-.319-25.016-22.804-61.592-28.194-93.177-13.735-30.583 13.999-49.055 42.911-48.233 75.478-.068 50.348-41.051 91.29-91.416 91.29-3.081 0-6.196-.156-9.258-.464-3.463-.339-6.87 1.136-8.976 3.918-2.104 2.781-2.606 6.458-1.327 9.702 7.774 19.706 19.36 37.342 34.436 52.418 26.474 26.474 60.872 42.144 97.846 44.801 1.692 12.877 9.524 24.164 21.296 30.221 1.464.754 3.026 1.11 4.567 1.11 3.627 0 7.126-1.979 8.899-5.427 2.527-4.911.595-10.94-4.316-13.467-5.01-2.578-8.591-7.055-10.059-12.303 8.597-.496 17.062-1.688 25.327-3.56 2.293 14.346 11.198 26.85 24.409 33.647 1.464.754 3.026 1.11 4.567 1.11 3.627 0 7.126-1.979 8.899-5.427 2.527-4.911.595-10.94-4.316-13.467-8.271-4.256-13.569-12.459-14.111-21.659 20.52-7.625 39.338-19.639 55.279-35.58 17.476-17.476 30.165-38.182 37.718-61.543 1.698-5.254-1.185-10.891-6.44-12.59zm-133.172-30.843c2.508-6.777 7.3-12.06 13.494-14.877.021-.01.043-.02.064-.029 10.838-4.905 21.094-1.218 27.077 3.867 7.536 6.405 10.518 15.866 7.974 25.309-2.274 8.444-6.851 16.128-13.232 22.223-18.536 17.696-47.619 17.74-66.206.099-1.613-1.531-3.105-3.15-4.474-4.854 16.014-4.051 29.454-15.93 35.303-31.738z"/><path id="XMLID_1283_" d="m193.334 226.4c-3.905 3.905-3.904 10.237.001 14.142 3.905 3.907 10.238 3.904 14.142-.001.827-.826 1.792-.95 2.294-.95s1.467.124 2.294.95c1.952 1.953 4.512 2.93 7.071 2.93s5.118-.977 7.07-2.929c3.905-3.904 3.906-10.236.001-14.142-4.39-4.391-10.228-6.81-16.437-6.81s-12.046 2.419-16.436 6.81z"/><path id="XMLID_1279_" d="m509.976 395.809c-2.104-2.78-5.498-4.263-8.976-3.917-1.777.179-3.588.27-5.383.27-29.252 0-53.056-23.773-53.105-53.014.412-22.503-12.323-42.206-33.259-51.438-21.205-9.351-44.66-5.383-61.209 10.36-.06.057-.119.115-.179.174-1.316 1.316-2.587 2.666-3.82 4.041l-17.404 3.529c-4.051.821-7.179 4.051-7.871 8.125-.692 4.075 1.193 8.156 4.745 10.27l4.343 2.584c-6.042 13-9.23 27.272-9.23 42.035 0 26.664 10.383 51.731 29.236 70.585 9.811 9.811 21.174 17.146 33.306 22.01-.192 4.476-2.735 8.483-6.747 10.547-4.91 2.527-6.843 8.557-4.315 13.468 1.773 3.446 5.272 5.426 8.899 5.426 1.541 0 3.104-.357 4.568-1.11 9.013-4.638 15.179-13.047 17.023-22.753 5.898 1.063 11.874 1.603 17.85 1.603 2.31 0 4.62-.082 6.925-.241-.808 1.514-2.051 2.788-3.645 3.608-4.91 2.527-6.843 8.557-4.315 13.468 1.774 3.446 5.273 5.426 8.899 5.426 1.541 0 3.104-.357 4.568-1.11 9.477-4.877 15.39-14.48 15.508-25.115 15.624-4.528 30.351-12.932 42.643-25.224 9.749-9.749 17.241-21.155 22.27-33.902 1.281-3.247.778-6.924-1.325-9.705zm-65.416 3.678c-10.81 9.423-27.66 9.137-38.106-.837-3.757-3.588-6.451-8.11-7.789-13.076-1.326-4.922.234-9.86 4.176-13.209 2.544-2.163 5.57-3.273 8.662-3.273 1.868 0 3.761.405 5.583 1.23.027.013.055.024.083.037 3.229 1.484 5.738 4.277 7.068 7.872 3.581 9.679 11.084 17.332 20.323 21.256zm30.331 25.784c-31.121 31.123-81.762 31.123-112.883 0-31.092-31.092-31.121-81.664-.091-112.794 12.648-11.956 28.568-11.185 39.267-6.467 10.539 4.647 21.677 15.716 21.33 32.844-.001.067-.002.135-.002.202 0 4.201.374 8.314 1.057 12.323-11.449-4.435-24.194-2.318-33.682 5.747-9.837 8.36-13.874 21.255-10.534 33.651 2.291 8.5 6.887 16.225 13.29 22.338 9.334 8.912 21.327 13.37 33.323 13.37 11.946-.001 23.896-4.423 33.218-13.271 2.427-2.303 4.571-4.817 6.444-7.51 6.34 2.864 13.15 4.865 20.292 5.815-3.132 4.943-6.816 9.54-11.029 13.752z"/><path id="XMLID_1270_" d="m438.651 237.068c1.953 1.952 4.512 2.929 7.071 2.929s5.118-.977 7.071-2.929l46.622-46.623c16.752-16.753 16.752-44.012 0-60.764-14.561-14.56-37.058-16.464-53.693-5.717-16.638-10.749-39.134-8.842-53.693 5.717-16.752 16.752-16.752 44.011 0 60.765zm-32.479-93.244c4.478-4.478 10.358-6.716 16.24-6.716 5.881 0 11.763 2.239 16.239 6.716 3.906 3.904 10.236 3.904 14.143 0 8.953-8.955 23.522-8.957 32.479 0 8.955 8.954 8.954 23.524 0 32.479l-39.551 39.551-39.551-39.55c-8.953-8.955-8.954-23.526.001-32.48z"/><path id="XMLID_1267_" d="m332.559 105.602 30.533-30.535c5.968-5.967 9.254-13.899 9.254-22.339 0-8.438-3.286-16.371-9.253-22.338s-13.9-9.253-22.338-9.253c-5.433 0-10.655 1.362-15.279 3.924-12.005-6.613-27.429-4.834-37.595 5.329-5.967 5.967-9.253 13.9-9.253 22.338s3.286 16.372 9.253 22.339l30.535 30.535c1.876 1.875 4.419 2.929 7.071 2.929s5.197-1.054 7.072-2.929zm-30.535-44.678c-4.52-4.52-4.52-11.872-.001-16.392 2.261-2.26 5.229-3.39 8.197-3.39s5.938 1.13 8.196 3.39c3.906 3.904 10.236 3.904 14.143 0 4.521-4.521 11.874-4.519 16.393 0 2.189 2.189 3.395 5.1 3.395 8.195 0 3.097-1.205 6.007-3.396 8.196l-23.463 23.464z"/><path id="XMLID_1265_" d="m386.44 337.559c2.63 0 5.21-1.069 7.07-2.93s2.93-4.44 2.93-7.07-1.069-5.21-2.93-7.069c-1.86-1.86-4.44-2.931-7.07-2.931s-5.21 1.07-7.069 2.931c-1.86 1.859-2.931 4.439-2.931 7.069s1.07 5.21 2.931 7.07c1.859 1.86 4.439 2.93 7.069 2.93z"/><path id="XMLID_1260_" d="m288.63 289.429c-2.64 0-5.21 1.07-7.07 2.93-1.859 1.86-2.93 4.44-2.93 7.07s1.07 5.21 2.93 7.07c1.86 1.859 4.44 2.93 7.07 2.93s5.21-1.07 7.07-2.93c1.859-1.86 2.93-4.44 2.93-7.07s-1.07-5.21-2.93-7.07-4.44-2.93-7.07-2.93z"/></g></g></g></svg>