<svg id="e4z3tisazhd1" xmlns="http://www.w3.org/2000/svg" xmlns:xlink="http://www.w3.org/1999/xlink" viewBox="0 0 512 512" shape-rendering="geometricPrecision" text-rendering="geometricPrecision"><style><![CDATA[#e4z3tisazhd4_ts {animation: e4z3tisazhd4_ts__ts 3000ms linear 1 normal forwards}@keyframes e4z3tisazhd4_ts__ts { 0% {transform: translate(255.872993px,177.499740px) scale(1,1)} 16.666667% {transform: translate(255.872993px,177.499740px) scale(0.500000,0.500000)} 33.333333% {transform: translate(255.872993px,177.499740px) scale(1,1)} 50% {transform: translate(255.872993px,177.499740px) scale(0.500000,0.500000)} 66.666667% {transform: translate(255.872993px,177.499740px) scale(1,1)} 83.333333% {transform: translate(255.872993px,177.499740px) scale(0.500000,0.500000)} 100% {transform: translate(255.872993px,177.499740px) scale(1,1)} }#e4z3tisazhd9_to {animation: e4z3tisazhd9_to__to 3000ms linear 1 normal forwards}@keyframes e4z3tisazhd9_to__to { 0% {transform: translate(447.872986px,300.501241px)} 33.333333% {transform: translate(422.872986px,333.978497px)} 66.666667% {transform: translate(432.387189px,268.334497px)} 100% {transform: translate(451.030748px,320.501241px)} }#e4z3tisazhd10_to {animation: e4z3tisazhd10_to__to 3000ms linear 1 normal forwards}@keyframes e4z3tisazhd10_to__to { 0% {transform: translate(447.872986px,369.678258px)} 33.333333% {transform: translate(422.872986px,403.155514px)} 66.666667% {transform: translate(432.387189px,337.511514px)} 100% {transform: translate(451.030748px,389.678258px)} }#e4z3tisazhd11_to {animation: e4z3tisazhd11_to__to 3000ms linear 1 normal forwards}@keyframes e4z3tisazhd11_to__to { 0% {transform: translate(482.372986px,335.001241px)} 33.333333% {transform: translate(457.372986px,368.478497px)} 66.666667% {transform: translate(466.887189px,302.834497px)} 100% {transform: translate(485.530748px,355.001241px)} }#e4z3tisazhd12_to {animation: e4z3tisazhd12_to__to 3000ms linear 1 normal forwards}@keyframes e4z3tisazhd12_to__to { 0% {transform: translate(413.372986px,335.001241px)} 33.333333% {transform: translate(388.372986px,368.478497px)} 66.666667% {transform: translate(397.887189px,302.834497px)} 100% {transform: translate(416.530748px,355.001241px)} }#e4z3tisazhd13_to {animation: e4z3tisazhd13_to__to 3000ms linear 1 normal forwards}@keyframes e4z3tisazhd13_to__to { 0% {transform: translate(64.126999px,300.977997px)} 33.333333% {transform: translate(60.049484px,374.978497px)} 66.666667% {transform: translate(57.331140px,295.999997px)} 100% {transform: translate(60.715247px,320.501741px)} }#e4z3tisazhd14_to {animation: e4z3tisazhd14_to__to 3000ms linear 1 normal forwards}@keyframes e4z3tisazhd14_to__to { 0% {transform: translate(64.126999px,370.155014px)} 33.333333% {transform: translate(60.049484px,444.155514px)} 66.666667% {transform: translate(57.331140px,365.177014px)} 100% {transform: translate(60.715247px,389.678758px)} }#e4z3tisazhd15_to {animation: e4z3tisazhd15_to__to 3000ms linear 1 normal forwards}@keyframes e4z3tisazhd15_to__to { 0% {transform: translate(29.626999px,335.477997px)} 33.333333% {transform: translate(25.549484px,409.478497px)} 66.666667% {transform: translate(22.831140px,330.499997px)} 100% {transform: translate(26.215247px,355.001741px)} }#e4z3tisazhd16_to {animation: e4z3tisazhd16_to__to 3000ms linear 1 normal forwards}@keyframes e4z3tisazhd16_to__to { 0% {transform: translate(98.626999px,335.477997px)} 33.333333% {transform: translate(94.549484px,409.478497px)} 66.666667% {transform: translate(91.831140px,330.499997px)} 100% {transform: translate(95.215247px,355.001741px)} }]]></style><g id="e4z3tisazhd2"><path id="e4z3tisazhd3" d="M371.873000,386.127000L334,386.127000C290.922000,386.127000,256,421.049000,256,464.127000L256,502L293.873000,502C336.951000,502,371.873000,467.078000,371.873000,424Z" fill="rgb(160,228,165)" stroke="none" stroke-width="1"/><g id="e4z3tisazhd4_ts" transform="translate(255.872993,177.499740) scale(1,1)"><path id="e4z3tisazhd4" d="M218.605000,329.563000L94.199000,205.157000C49.554000,160.512000,49.554000,88.128000,94.199000,43.483000C138.844000,-1.162000,211.228000,-1.162000,255.873000,43.483000C300.518000,-1.162000,372.902000,-1.162000,417.547000,43.483000C462.192000,88.128000,462.192000,160.512000,417.547000,205.157000L293.141000,329.563000C272.559000,350.146000,239.188000,350.146000,218.605000,329.563000Z" transform="translate(-255.872993,-177.499740)" fill="rgb(255,122,122)" stroke="none" stroke-width="1"/></g><path id="e4z3tisazhd5" d="M140.127000,386.127000L178,386.127000C221.078000,386.127000,256,421.049000,256,464.127000L256,502L218.127000,502C175.049000,502,140.127000,467.078000,140.127000,424Z" fill="rgb(160,228,165)" stroke="none" stroke-width="1"/><g id="e4z3tisazhd6"><g id="e4z3tisazhd7"><path id="e4z3tisazhd8" d="M336.710000,0C306.733000,0,278.377000,10.538000,255.870000,29.861000C207.081000,-11.950000,133.308000,-9.767000,87.128000,36.413000C63.647000,59.894000,50.715000,91.114000,50.715000,124.321000C50.715000,157.528000,63.647000,188.748000,87.128000,212.228000L119.652000,244.752000C123.557000,248.658000,129.889000,248.658000,133.795000,244.752000C137.700000,240.847000,137.700000,234.515000,133.795000,230.610000L101.271000,198.086000C81.567000,178.383000,70.716000,152.186000,70.716000,124.321000C70.716000,96.456000,81.568000,70.259000,101.272000,50.555000C120.974000,30.852000,147.171000,20,175.036000,20C202.901000,20,229.098000,30.852000,248.802000,50.555000C252.707000,54.460000,259.039000,54.460000,262.945000,50.555000C303.619000,9.880000,369.802000,9.880000,410.476000,50.555000C430.180000,70.259000,441.031000,96.455000,441.031000,124.321000C441.031000,152.186000,430.179000,178.383000,410.476000,198.087000L286.070000,322.492000C278.004000,330.558000,267.280000,335,255.873000,335C244.466000,335,233.742000,330.558000,225.676000,322.492000L197.422000,294.237000C193.517000,290.332000,187.185000,290.332000,183.279000,294.237000C179.374000,298.142000,179.374000,304.474000,183.279000,308.380000L211.533000,336.634000C221.015000,346.116000,233.002000,352.176000,245.999000,354.220000L245.999000,408.332000C229.847000,388.682000,205.362000,376.127000,177.999000,376.127000L140.126000,376.127000C134.603000,376.127000,130.126000,380.604000,130.126000,386.127000L130.126000,424C130.126000,472.523000,169.603000,512,218.126000,512L293.872000,512C342.395000,512,381.872000,472.523000,381.872000,424L381.872000,386.127000C381.872000,380.604000,377.395000,376.127000,371.872000,376.127000L334,376.127000C306.637000,376.127000,282.152000,388.682000,266,408.332000L266,354.176000C278.899000,352.093000,290.792000,346.054000,300.212000,336.634000L424.617000,212.228000C448.098000,188.747000,461.030000,157.527000,461.030000,124.320000C461.030000,91.112000,448.098000,59.893000,424.617000,36.412000C401.137000,12.932000,369.917000,0,336.710000,0ZM150.127000,424L150.127000,396.127000L178,396.127000C215.495000,396.127000,246,426.632000,246,464.127000L246,477.857000L213.635000,445.492000C209.730000,441.587000,203.398000,441.587000,199.492000,445.492000C195.587000,449.397000,195.587000,455.729000,199.492000,459.635000L231.857000,492L218.127000,492C180.632000,492,150.127000,461.495000,150.127000,424ZM334,396.127000L361.873000,396.127000L361.873000,424C361.873000,461.495000,331.368000,492,293.873000,492L280.143000,492L312.508000,459.635000C316.413000,455.730000,316.413000,449.398000,312.508000,445.492000C308.603000,441.587000,302.271000,441.587000,298.365000,445.492000L266,477.857000L266,464.127000C266,426.632000,296.505000,396.127000,334,396.127000Z" fill="rgb(0,0,0)" stroke="none" stroke-width="1"/><g id="e4z3tisazhd9_to" transform="translate(447.872986,300.501241)"><path id="e4z3tisazhd9" d="M447.873000,284.478000C442.350000,284.478000,437.873000,288.955000,437.873000,294.478000L437.873000,307.478000C437.873000,313.001000,442.350000,317.478000,447.873000,317.478000C453.396000,317.478000,457.873000,313.001000,457.873000,307.478000L457.873000,294.478000C457.873000,288.955000,453.396000,284.478000,447.873000,284.478000Z" transform="translate(-447.872986,-300.977997)" fill="rgb(0,0,0)" stroke="none" stroke-width="1"/></g><g id="e4z3tisazhd10_to" transform="translate(447.872986,369.678258)"><path id="e4z3tisazhd10" d="M447.873000,353.833000C442.350000,353.833000,437.873000,358.310000,437.873000,363.833000L437.873000,376.477000C437.873000,382,442.350000,386.477000,447.873000,386.477000C453.396000,386.477000,457.873000,382,457.873000,376.477000L457.873000,363.833000C457.873000,358.311000,453.396000,353.833000,447.873000,353.833000Z" transform="translate(-447.872986,-370.155014)" fill="rgb(0,0,0)" stroke="none" stroke-width="1"/></g><g id="e4z3tisazhd11_to" transform="translate(482.372986,335.001241)"><path id="e4z3tisazhd11" d="M488.873000,325.478000L475.873000,325.478000C470.350000,325.478000,465.873000,329.955000,465.873000,335.478000C465.873000,341.001000,470.350000,345.478000,475.873000,345.478000L488.873000,345.478000C494.396000,345.478000,498.873000,341.001000,498.873000,335.478000C498.873000,329.955000,494.396000,325.478000,488.873000,325.478000Z" transform="translate(-482.372986,-335.477997)" fill="rgb(0,0,0)" stroke="none" stroke-width="1"/></g><g id="e4z3tisazhd12_to" transform="translate(413.372986,335.001241)"><path id="e4z3tisazhd12" d="M419.873000,325.478000L406.873000,325.478000C401.350000,325.478000,396.873000,329.955000,396.873000,335.478000C396.873000,341.001000,401.350000,345.478000,406.873000,345.478000L419.873000,345.478000C425.396000,345.478000,429.873000,341.001000,429.873000,335.478000C429.873000,329.955000,425.396000,325.478000,419.873000,325.478000Z" transform="translate(-413.372986,-335.477997)" fill="rgb(0,0,0)" stroke="none" stroke-width="1"/></g><g id="e4z3tisazhd13_to" transform="translate(64.126999,300.977997)"><path id="e4z3tisazhd13" d="M64.127000,284.478000C58.604000,284.478000,54.127000,288.955000,54.127000,294.478000L54.127000,307.478000C54.127000,313.001000,58.604000,317.478000,64.127000,317.478000C69.650000,317.478000,74.127000,313.001000,74.127000,307.478000L74.127000,294.478000C74.127000,288.955000,69.650000,284.478000,64.127000,284.478000Z" transform="translate(-64.126999,-300.977997)" fill="rgb(0,0,0)" stroke="none" stroke-width="1"/></g><g id="e4z3tisazhd14_to" transform="translate(64.126999,370.155014)"><path id="e4z3tisazhd14" d="M64.127000,353.833000C58.604000,353.833000,54.127000,358.310000,54.127000,363.833000L54.127000,376.477000C54.127000,382,58.604000,386.477000,64.127000,386.477000C69.650000,386.477000,74.127000,382,74.127000,376.477000L74.127000,363.833000C74.127000,358.311000,69.650000,353.833000,64.127000,353.833000Z" transform="translate(-64.126999,-370.155014)" fill="rgb(0,0,0)" stroke="none" stroke-width="1"/></g><g id="e4z3tisazhd15_to" transform="translate(29.626999,335.477997)"><path id="e4z3tisazhd15" d="M36.127000,325.478000L23.127000,325.478000C17.604000,325.478000,13.127000,329.955000,13.127000,335.478000C13.127000,341.001000,17.604000,345.478000,23.127000,345.478000L36.127000,345.478000C41.650000,345.478000,46.127000,341.001000,46.127000,335.478000C46.127000,329.955000,41.650000,325.478000,36.127000,325.478000Z" transform="translate(-29.626999,-335.477997)" fill="rgb(0,0,0)" stroke="none" stroke-width="1"/></g><g id="e4z3tisazhd16_to" transform="translate(98.626999,335.477997)"><path id="e4z3tisazhd16" d="M105.127000,325.478000L92.127000,325.478000C86.604000,325.478000,82.127000,329.955000,82.127000,335.478000C82.127000,341.001000,86.604000,345.478000,92.127000,345.478000L105.127000,345.478000C110.650000,345.478000,115.127000,341.001000,115.127000,335.478000C115.127000,329.955000,110.650000,325.478000,105.127000,325.478000Z" transform="translate(-98.626999,-335.477997)" fill="rgb(0,0,0)" stroke="none" stroke-width="1"/></g><path id="e4z3tisazhd17" d="M165.613000,276.570000C167.473000,274.710000,168.543000,272.130000,168.543000,269.500000C168.543000,266.870000,167.473000,264.290000,165.613000,262.430000C163.753000,260.570000,161.173000,259.500000,158.543000,259.500000C155.913000,259.500000,153.333000,260.570000,151.473000,262.430000C149.613000,264.290000,148.543000,266.870000,148.543000,269.500000C148.543000,272.130000,149.613000,274.710000,151.473000,276.570000C153.333000,278.430000,155.913000,279.500000,158.543000,279.500000C161.173000,279.500000,163.753000,278.430000,165.613000,276.570000Z" fill="rgb(0,0,0)" stroke="none" stroke-width="1"/></g></g></g></svg>