<svg id="Capa_1" enable-background="new 0 0 512 512" height="512" viewBox="0 0 512 512" width="512" xmlns="http://www.w3.org/2000/svg"><g id="XMLID_1056_"><path id="XMLID_2075_" d="m371.873 386.127h-37.873c-43.078 0-78 34.922-78 78v37.873h37.873c43.078 0 78-34.922 78-78z" fill="#a0e4a5"/><path id="XMLID_1993_" d="m218.605 329.563-124.406-124.406c-44.645-44.645-44.645-117.029 0-161.674 44.645-44.645 117.029-44.645 161.674 0 44.645-44.645 117.029-44.645 161.674 0 44.645 44.645 44.645 117.029 0 161.674l-124.406 124.406c-20.582 20.583-53.953 20.583-74.536 0z" fill="#ff7a7a"/><path id="XMLID_2079_" d="m140.127 386.127h37.873c43.078 0 78 34.922 78 78v37.873h-37.873c-43.078 0-78-34.922-78-78z" fill="#a0e4a5"/><g id="XMLID_278_"><g id="XMLID_279_"><path id="XMLID_282_" d="m336.71 0c-29.977 0-58.333 10.538-80.84 29.861-48.789-41.811-122.562-39.628-168.742 6.552-23.481 23.481-36.413 54.701-36.413 87.908s12.932 64.427 36.413 87.907l32.524 32.524c3.905 3.906 10.237 3.906 14.143 0 3.905-3.905 3.905-10.237 0-14.142l-32.524-32.524c-19.704-19.703-30.555-45.9-30.555-73.765s10.852-54.062 30.556-73.766c19.702-19.703 45.899-30.555 73.764-30.555s54.062 10.852 73.766 30.555c3.905 3.905 10.237 3.905 14.143 0 40.674-40.675 106.857-40.675 147.531 0 19.704 19.704 30.555 45.9 30.555 73.766 0 27.865-10.852 54.062-30.555 73.766l-124.406 124.405c-8.066 8.066-18.79 12.508-30.197 12.508s-22.131-4.442-30.197-12.508l-28.254-28.255c-3.905-3.905-10.237-3.905-14.143 0-3.905 3.905-3.905 10.237 0 14.143l28.254 28.254c9.482 9.482 21.469 15.542 34.466 17.586v54.112c-16.152-19.65-40.637-32.205-68-32.205h-37.873c-5.523 0-10 4.477-10 10v37.873c0 48.523 39.477 88 88 88h75.746c48.523 0 88-39.477 88-88v-37.873c0-5.523-4.477-10-10-10h-37.872c-27.363 0-51.848 12.555-68 32.205v-54.156c12.899-2.083 24.792-8.122 34.212-17.542l124.405-124.406c23.481-23.481 36.413-54.701 36.413-87.908 0-33.208-12.932-64.427-36.413-87.908-23.48-23.48-54.7-36.412-87.907-36.412zm-186.583 424v-27.873h27.873c37.495 0 68 30.505 68 68v13.73l-32.365-32.365c-3.905-3.905-10.237-3.905-14.143 0-3.905 3.905-3.905 10.237 0 14.143l32.365 32.365h-13.73c-37.495 0-68-30.505-68-68zm183.873-27.873h27.873v27.873c0 37.495-30.505 68-68 68h-13.73l32.365-32.365c3.905-3.905 3.905-10.237 0-14.143-3.905-3.905-10.237-3.905-14.143 0l-32.365 32.365v-13.73c0-37.495 30.505-68 68-68z"/><path id="XMLID_1071_" d="m447.873 284.478c-5.523 0-10 4.477-10 10v13c0 5.523 4.477 10 10 10s10-4.477 10-10v-13c0-5.523-4.477-10-10-10z"/><path id="XMLID_1774_" d="m447.873 353.833c-5.523 0-10 4.477-10 10v12.644c0 5.523 4.477 10 10 10s10-4.477 10-10v-12.644c0-5.522-4.477-10-10-10z"/><path id="XMLID_1825_" d="m488.873 325.478h-13c-5.523 0-10 4.477-10 10s4.477 10 10 10h13c5.523 0 10-4.477 10-10s-4.477-10-10-10z"/><path id="XMLID_1827_" d="m419.873 325.478h-13c-5.523 0-10 4.477-10 10s4.477 10 10 10h13c5.523 0 10-4.477 10-10s-4.477-10-10-10z"/><path id="XMLID_1853_" d="m64.127 284.478c-5.523 0-10 4.477-10 10v13c0 5.523 4.477 10 10 10s10-4.477 10-10v-13c0-5.523-4.477-10-10-10z"/><path id="XMLID_281_" d="m64.127 353.833c-5.523 0-10 4.477-10 10v12.644c0 5.523 4.477 10 10 10s10-4.477 10-10v-12.644c0-5.522-4.477-10-10-10z"/><path id="XMLID_280_" d="m36.127 325.478h-13c-5.523 0-10 4.477-10 10s4.477 10 10 10h13c5.523 0 10-4.477 10-10s-4.477-10-10-10z"/><path id="XMLID_1888_" d="m105.127 325.478h-13c-5.523 0-10 4.477-10 10s4.477 10 10 10h13c5.523 0 10-4.477 10-10s-4.477-10-10-10z"/><path id="XMLID_2197_" d="m165.613 276.57c1.86-1.86 2.93-4.44 2.93-7.07s-1.07-5.21-2.93-7.07-4.44-2.93-7.07-2.93-5.21 1.07-7.07 2.93-2.93 4.44-2.93 7.07 1.07 5.21 2.93 7.07 4.44 2.93 7.07 2.93 5.21-1.07 7.07-2.93z"/></g></g></g></svg>