<svg id="Capa_1" enable-background="new 0 0 511.985 511.985" height="512" viewBox="0 0 511.985 511.985" width="512" xmlns="http://www.w3.org/2000/svg"><g id="XMLID_1524_"><path id="XMLID_2556_" d="m206.001 465.005h-92.838c-48.863 0-83.081-48.265-66.906-94.373l13.756-39.215c15.76-44.927 58.177-74.999 105.788-74.999h58.185v-33.082h64.03v33.082h58.185c47.611 0 90.028 30.072 105.788 74.999l13.756 39.215c16.174 46.108-18.044 94.373-66.906 94.373h-95.455z" fill="#a0c8ff"/><g id="XMLID_2019_"><path id="XMLID_2020_" d="m371.997 148.045c9.212-21.537 5.046-47.431-12.531-65.008-3.543-3.543-7.427-6.537-11.543-8.992-13.795-37.386-49.744-64.045-91.922-64.045-42.178 0-78.127 26.659-91.922 64.046-4.116 2.455-7.999 5.448-11.543 8.992-17.577 17.577-21.743 43.471-12.531 65.008-22.924 25.513-22.119 64.798 2.422 89.339 25.378 25.378 66.523 25.378 91.901 0 9.137-9.137 14.967-20.318 17.521-32.07h8.303c2.554 11.751 8.385 22.933 17.521 32.07 25.378 25.378 66.523 25.378 91.901 0 24.542-24.542 25.347-63.827 2.423-89.34z" fill="#c68966"/></g><path id="XMLID_2012_" d="m223.987 223.336v32.177l32.015 32.083 32.014-32.083v-32.177z" fill="#f2d2bd"/><path id="XMLID_2011_" d="m191.972 127.296v35.915c0 35.363 28.667 64.03 64.03 64.03 35.363 0 64.03-28.667 64.03-64.03v-35.915h-40.419l-33.803-11.884-30.12 11.884z" fill="#f2d2bd"/><path id="XMLID_2502_" d="m241.795 496.116-58.284-58.284c-20.017-20.017-20.017-52.472 0-72.49 20.017-20.017 52.472-20.017 72.49 0 20.017-20.017 52.472-20.017 72.49 0 20.017 20.017 20.017 52.472 0 72.49l-58.284 58.284c-7.846 7.845-20.566 7.845-28.412 0z" fill="#ff7a7a"/><g id="XMLID_2014_"><g id="XMLID_2427_"><path id="XMLID_2429_" d="m175.739 398.419h-25.768v66.586h25.768c18.387 0 33.293-14.906 33.293-33.293 0-18.387-14.906-33.293-33.293-33.293z" fill="#f2d2bd"/></g></g><g id="XMLID_2420_"><g id="XMLID_2422_"><path id="XMLID_2430_" d="m336.264 398.419h25.768v66.586h-25.768c-18.387 0-33.293-14.906-33.293-33.293 0-18.387 14.906-33.293 33.293-33.293z" fill="#f2d2bd"/></g></g><g id="XMLID_1637_"><g id="XMLID_1638_"><path id="XMLID_1641_" d="m476.391 371.046c-1.583-5.291-7.153-8.295-12.445-6.717-5.292 1.582-8.299 7.154-6.717 12.445 5.544 18.543 2.06 38.124-9.559 53.725-11.599 15.573-29.397 24.506-48.831 24.506h-26.808v-46.586h22.324c5.522 0 10-4.478 10-10s-4.478-10-10-10h-42.295c-2.496-11.353-8.175-21.824-16.498-30.148-11.57-11.57-26.954-17.942-43.316-17.942-13.222 0-25.804 4.16-36.251 11.862-23.953-17.596-57.906-15.568-79.555 6.08-8.323 8.324-14.002 18.796-16.498 30.148h-42.295c-5.522 0-10 4.478-10 10s4.478 10 10 10h22.324v46.586h-26.808c-20.005 0-38.113-9.36-49.684-25.68-11.57-16.32-14.408-36.506-7.786-55.383l13.756-39.215c14.332-40.858 53.053-68.31 96.352-68.31h55.278l28.181 28.241c1.876 1.88 4.422 2.937 7.078 2.937s5.202-1.057 7.078-2.937l28.181-28.241h54.604c28.556 0 56.003 12.08 75.304 33.143 1.973 2.152 4.67 3.244 7.376 3.244 2.413 0 4.834-.868 6.753-2.627 4.072-3.731 4.348-10.058.617-14.129-17.285-18.863-40.035-31.699-64.713-36.957 1.758-1.459 3.468-2.997 5.107-4.636 26.707-26.708 29.207-68.772 6.743-98.315 8.04-24.62 1.734-51.587-16.852-70.175-3.207-3.206-6.722-6.092-10.481-8.606-16.422-40.43-56.195-67.359-100.055-67.359-43.858 0-83.632 26.929-100.055 67.36-3.758 2.513-7.272 5.397-10.481 8.605-18.586 18.588-24.892 45.555-16.852 70.175-22.464 29.543-19.964 71.607 6.743 98.315 1.64 1.64 3.346 3.185 5.105 4.644-41.071 8.736-75.604 38.297-89.885 79.006l-13.756 39.215c-8.796 25.076-5.026 51.892 10.344 73.571 15.369 21.679 39.425 34.112 65.999 34.112h93.378l28.183 28.183c5.865 5.865 13.57 8.798 21.275 8.798s15.411-2.933 21.277-8.798l28.183-28.183h93.379c25.815 0 49.461-11.868 64.871-32.561 15.433-20.715 20.055-46.74 12.683-71.396zm-198.375-119.331-21.678 21.724-22.352-22.399v-17.141c6.957 2.171 14.352 3.342 22.015 3.342s15.057-1.171 22.015-3.342zm-22.015-34.474c-29.792 0-54.03-24.237-54.03-54.029v-25.915h11.275c12.49 0 24.254-4.957 32.947-13.433 9.19 8.342 21.384 13.433 34.744 13.433h29.094v25.915c.001 29.792-24.238 54.029-54.03 54.029zm-108.558-62.512c2.602-2.896 3.286-7.037 1.756-10.616-7.934-18.549-3.849-39.747 10.407-54.003 2.883-2.883 6.111-5.397 9.595-7.475 1.964-1.172 3.468-2.981 4.26-5.127 12.691-34.398 45.862-57.508 82.539-57.508 36.679 0 69.85 23.11 82.541 57.508.792 2.146 2.296 3.955 4.26 5.127 3.485 2.078 6.713 4.593 9.594 7.474 14.257 14.257 18.342 35.455 10.408 54.004-1.53 3.579-.846 7.721 1.756 10.616 19.514 21.718 18.61 54.919-2.056 75.585-17.108 17.108-43.453 20.86-64.487 9.786v-15.983c19.324-13.371 32.016-35.679 32.016-60.905v-35.915c0-5.522-4.478-10-10-10h-39.094c-17.504 0-31.744-14.241-31.744-31.745 0-5.522-4.478-10-10-10s-10 4.478-10 10c0 7.859 1.769 15.309 4.917 21.987-5.112 6.112-12.723 9.758-20.864 9.758h-21.275c-5.522 0-10 4.478-10 10v35.915c0 25.226 12.692 47.533 32.016 60.905v15.983c-21.029 11.069-47.396 7.307-64.488-9.786-20.667-20.667-21.571-53.868-2.057-75.585zm28.296 300.276h-15.768v-46.586h15.768c12.844 0 23.293 10.449 23.293 23.293s-10.449 23.293-23.293 23.293zm117.232-23.293c0 7.89 2.132 15.286 5.834 21.663l-35.669 35.67c-3.934 3.933-10.334 3.936-14.27 0l-35.669-35.669c3.702-6.377 5.834-13.774 5.834-21.664 0-22.239-16.856-40.606-38.462-43.017 2.002-6.087 5.404-11.674 10.013-16.282 16.086-16.088 42.262-16.088 58.348 0 1.876 1.875 4.419 2.929 7.071 2.929s5.196-1.054 7.071-2.929c7.792-7.793 18.152-12.085 29.173-12.085s21.382 4.292 29.174 12.085c4.608 4.608 8.011 10.195 10.013 16.282-21.605 2.411-38.461 20.779-38.461 43.017zm59.061 23.293h-15.768c-12.844 0-23.293-10.449-23.293-23.293s10.449-23.293 23.293-23.293h15.768z"/><path id="XMLID_1640_" d="m451.992 341.42c2.63 0 5.21-1.07 7.069-2.93 1.86-1.86 2.931-4.44 2.931-7.07 0-2.64-1.07-5.21-2.931-7.07-1.859-1.859-4.439-2.93-7.069-2.93-2.641 0-5.21 1.07-7.07 2.93s-2.93 4.431-2.93 7.07c0 2.63 1.069 5.2 2.93 7.07 1.86 1.86 4.439 2.93 7.07 2.93z"/></g></g></g></svg>