<svg id="e1bd87ezmjcu1" xmlns="http://www.w3.org/2000/svg" xmlns:xlink="http://www.w3.org/1999/xlink" viewBox="0 0 511.985000 511.985000" shape-rendering="geometricPrecision" text-rendering="geometricPrecision"><style><![CDATA[#e1bd87ezmjcu3_to {animation: e1bd87ezmjcu3_to__to 3000ms linear 1 normal forwards}@keyframes e1bd87ezmjcu3_to__to { 0% {transform: translate(256.001511px,299.818260px)} 33.333333% {transform: translate(256.001511px,332.278271px)} 66.666667% {transform: translate(256.001511px,299.818260px)} 100% {transform: translate(266.030182px,344.817509px)} }#e1bd87ezmjcu3_ts {animation: e1bd87ezmjcu3_ts__ts 3000ms linear 1 normal forwards}@keyframes e1bd87ezmjcu3_ts__ts { 0% {transform: scale(0.500000,0.500000)} 33.333333% {transform: scale(1,1)} 66.666667% {transform: scale(0.500000,0.500000)} 100% {transform: scale(1,1)} }#e1bd87ezmjcu5_to {animation: e1bd87ezmjcu5_to__to 3000ms linear 1 normal forwards}@keyframes e1bd87ezmjcu5_to__to { 0% {transform: translate(256.000954px,194.387855px)} 33.333333% {transform: translate(260.395628px,132.783210px)} 66.666667% {transform: translate(256.001505px,189.600613px)} 100% {transform: translate(256.001502px,144.148964px)} }#e1bd87ezmjcu5_ts {animation: e1bd87ezmjcu5_ts__ts 3000ms linear 1 normal forwards}@keyframes e1bd87ezmjcu5_ts__ts { 0% {transform: scale(0.500000,0.500000)} 33.333333% {transform: scale(1,1)} 66.666667% {transform: scale(0.500000,0.500000)} 100% {transform: scale(1,1)} }#e1bd87ezmjcu6_ts {animation: e1bd87ezmjcu6_ts__ts 3000ms linear 1 normal forwards}@keyframes e1bd87ezmjcu6_ts__ts { 0% {transform: translate(256.001511px,255.466003px) scale(0.500000,0.500000)} 33.333333% {transform: translate(256.001511px,255.466003px) scale(1,1)} 66.666667% {transform: translate(256.001511px,255.466003px) scale(0.500000,0.500000)} 100% {transform: translate(256.001511px,255.466003px) scale(1,1)} }#e1bd87ezmjcu7_to {animation: e1bd87ezmjcu7_to__to 3000ms linear 1 normal forwards}@keyframes e1bd87ezmjcu7_to__to { 0% {transform: translate(255.991699px,211.443750px)} 33.333333% {transform: translate(255.991699px,176.888868px)} 66.666667% {transform: translate(256.001509px,211.443750px)} 100% {transform: translate(256.001509px,178.983739px)} }#e1bd87ezmjcu7_ts {animation: e1bd87ezmjcu7_ts__ts 3000ms linear 1 normal forwards}@keyframes e1bd87ezmjcu7_ts__ts { 0% {transform: scale(0.500000,0.500000)} 33.333333% {transform: scale(1,1)} 66.666667% {transform: scale(0.500000,0.500000)} 100% {transform: scale(1,1)} }#e1bd87ezmjcu8_to {animation: e1bd87ezmjcu8_to__to 3000ms linear 1 normal forwards}@keyframes e1bd87ezmjcu8_to__to { 0% {transform: translate(255.991695px,346.070373px)} 33.333333% {transform: translate(260.395628px,420.652743px)} 66.666667% {transform: translate(255.991695px,343.589002px)} 100% {transform: translate(255.991646px,420.652743px)} }#e1bd87ezmjcu8_ts {animation: e1bd87ezmjcu8_ts__ts 3000ms linear 1 normal forwards}@keyframes e1bd87ezmjcu8_ts__ts { 0% {transform: scale(0.500000,0.500000)} 33.333333% {transform: scale(1,1)} 66.666667% {transform: scale(0.500000,0.500000)} 100% {transform: scale(1,1)} }#e1bd87ezmjcu11_to {animation: e1bd87ezmjcu11_to__to 3000ms linear 1 normal forwards}@keyframes e1bd87ezmjcu11_to__to { 0% {transform: translate(220.976693px,348.066510px)} 33.333333% {transform: translate(182.539916px,429.210818px)} 66.666667% {transform: translate(216.644252px,343.589005px)} 100% {transform: translate(184.285459px,424.652749px)} }#e1bd87ezmjcu11_ts {animation: e1bd87ezmjcu11_ts__ts 3000ms linear 1 normal forwards}@keyframes e1bd87ezmjcu11_ts__ts { 0% {transform: scale(0.500000,0.500000)} 33.333333% {transform: scale(1,1)} 66.666667% {transform: scale(0.500000,0.500000)} 100% {transform: scale(1,1)} }#e1bd87ezmjcu14_to {animation: e1bd87ezmjcu14_to__to 3000ms linear 1 normal forwards}@keyframes e1bd87ezmjcu14_to__to { 0% {transform: translate(299.743074px,343.066510px)} 33.333333% {transform: translate(328.367885px,437.023077px)} 66.666667% {transform: translate(299.743074px,343.589005px)} 100% {transform: translate(328.367885px,420.652749px)} }#e1bd87ezmjcu14_ts {animation: e1bd87ezmjcu14_ts__ts 3000ms linear 1 normal forwards}@keyframes e1bd87ezmjcu14_ts__ts { 0% {transform: scale(0.500000,0.500000)} 33.333333% {transform: scale(1,1)} 66.666667% {transform: scale(0.500000,0.500000)} 100% {transform: scale(1,1)} }#e1bd87ezmjcu17_ts {animation: e1bd87ezmjcu17_ts__ts 3000ms linear 1 normal forwards}@keyframes e1bd87ezmjcu17_ts__ts { 0% {transform: translate(255.991745px,255.991997px) scale(0.500000,0.500000)} 33.333333% {transform: translate(255.991745px,255.991997px) scale(1,1)} 66.666667% {transform: translate(255.991745px,255.991997px) scale(0.500000,0.500000)} 100% {transform: translate(255.991745px,255.991997px) scale(1,1)} }#e1bd87ezmjcu18_to {animation: e1bd87ezmjcu18_to__to 3000ms linear 1 normal forwards}@keyframes e1bd87ezmjcu18_to__to { 0% {transform: translate(357.898379px,294.818258px)} 33.333333% {transform: translate(459.795248px,322.278267px)} 66.666667% {transform: translate(357.898379px,294.818258px)} 100% {transform: translate(461.446519px,325.559112px)} }#e1bd87ezmjcu18_ts {animation: e1bd87ezmjcu18_ts__ts 3000ms linear 1 normal forwards}@keyframes e1bd87ezmjcu18_ts__ts { 0% {transform: scale(0.500000,0.500000)} 33.333333% {transform: scale(1,1)} 66.666667% {transform: scale(0.500000,0.500000)} 100% {transform: scale(1,1)} }]]></style><g id="e1bd87ezmjcu2"><g id="e1bd87ezmjcu3_to" transform="translate(256.001511,299.818260)"><g id="e1bd87ezmjcu3_ts" transform="scale(0.500000,0.500000)"><path id="e1bd87ezmjcu3" d="M206.001000,465.005000L113.163000,465.005000C64.300000,465.005000,30.082000,416.740000,46.257000,370.632000L60.013000,331.417000C75.773000,286.490000,118.190000,256.418000,165.801000,256.418000L223.986000,256.418000L223.986000,223.336000L288.016000,223.336000L288.016000,256.418000L346.201000,256.418000C393.812000,256.418000,436.229000,286.490000,451.989000,331.417000L465.745000,370.632000C481.919000,416.740000,447.701000,465.005000,398.839000,465.005000L303.384000,465.005000Z" transform="translate(-256.000793,-344.170517)" fill="rgb(160,200,255)" stroke="none" stroke-width="1"/></g></g><g id="e1bd87ezmjcu4"><g id="e1bd87ezmjcu5_to" transform="translate(256.000954,194.387855)"><g id="e1bd87ezmjcu5_ts" transform="scale(0.500000,0.500000)"><path id="e1bd87ezmjcu5" d="M371.997000,148.045000C381.209000,126.508000,377.043000,100.614000,359.466000,83.037000C355.923000,79.494000,352.039000,76.500000,347.923000,74.045000C334.128000,36.659000,298.179000,10,256.001000,10C213.823000,10,177.874000,36.659000,164.079000,74.046000C159.963000,76.501000,156.080000,79.494000,152.536000,83.038000C134.959000,100.615000,130.793000,126.509000,140.005000,148.046000C117.081000,173.559000,117.886000,212.844000,142.427000,237.385000C167.805000,262.763000,208.950000,262.763000,234.328000,237.385000C243.465000,228.248000,249.295000,217.067000,251.849000,205.315000L260.152000,205.315000C262.706000,217.066000,268.537000,228.248000,277.673000,237.385000C303.051000,262.763000,344.196000,262.763000,369.574000,237.385000C394.116000,212.843000,394.921000,173.558000,371.997000,148.045000Z" transform="translate(-256.000954,-133.209229)" fill="rgb(198,137,102)" stroke="none" stroke-width="1"/></g></g></g><g id="e1bd87ezmjcu6_ts" transform="translate(256.001511,255.466003) scale(0.500000,0.500000)"><path id="e1bd87ezmjcu6" d="M223.987000,223.336000L223.987000,255.513000L256.002000,287.596000L288.016000,255.513000L288.016000,223.336000Z" transform="translate(-256.001511,-255.466003)" fill="rgb(242,210,189)" stroke="none" stroke-width="1"/></g><g id="e1bd87ezmjcu7_to" transform="translate(255.991699,211.443750)"><g id="e1bd87ezmjcu7_ts" transform="scale(0.500000,0.500000)"><path id="e1bd87ezmjcu7" d="M191.972000,127.296000L191.972000,163.211000C191.972000,198.574000,220.639000,227.241000,256.002000,227.241000C291.365000,227.241000,320.032000,198.574000,320.032000,163.211000L320.032000,127.296000L279.613000,127.296000L245.810000,115.412000L215.690000,127.296000Z" transform="translate(-256.002007,-171.326496)" fill="rgb(242,210,189)" stroke="none" stroke-width="1"/></g></g><g id="e1bd87ezmjcu8_to" transform="translate(255.991695,346.070373)"><g id="e1bd87ezmjcu8_ts" transform="scale(0.500000,0.500000)"><path id="e1bd87ezmjcu8" d="M241.795000,496.116000L183.511000,437.832000C163.494000,417.815000,163.494000,385.360000,183.511000,365.342000C203.528000,345.325000,235.983000,345.325000,256.001000,365.342000C276.018000,345.325000,308.473000,345.325000,328.491000,365.342000C348.508000,385.359000,348.508000,417.814000,328.491000,437.832000L270.207000,496.116000C262.361000,503.961000,249.641000,503.961000,241.795000,496.116000Z" transform="translate(-256.001007,-426.164505)" fill="rgb(255,122,122)" stroke="none" stroke-width="1"/></g></g><g id="e1bd87ezmjcu9"><g id="e1bd87ezmjcu10"><g id="e1bd87ezmjcu11_to" transform="translate(220.976693,348.066510)"><g id="e1bd87ezmjcu11_ts" transform="scale(0.500000,0.500000)"><path id="e1bd87ezmjcu11" d="M175.739000,398.419000L149.971000,398.419000L149.971000,465.005000L175.739000,465.005000C194.126000,465.005000,209.032000,450.099000,209.032000,431.712000C209.032000,413.325000,194.126000,398.419000,175.739000,398.419000Z" transform="translate(-179.501495,-431.712006)" fill="rgb(242,210,189)" stroke="none" stroke-width="1"/></g></g></g></g><g id="e1bd87ezmjcu12"><g id="e1bd87ezmjcu13"><g id="e1bd87ezmjcu14_to" transform="translate(299.743074,343.066510)"><g id="e1bd87ezmjcu14_ts" transform="scale(0.500000,0.500000)"><path id="e1bd87ezmjcu14" d="M336.264000,398.419000L362.032000,398.419000L362.032000,465.005000L336.264000,465.005000C317.877000,465.005000,302.971000,450.099000,302.971000,431.712000C302.971000,413.325000,317.877000,398.419000,336.264000,398.419000Z" transform="translate(-332.501511,-431.712006)" fill="rgb(242,210,189)" stroke="none" stroke-width="1"/></g></g></g></g><g id="e1bd87ezmjcu15"><g id="e1bd87ezmjcu16"><g id="e1bd87ezmjcu17_ts" transform="translate(255.991745,255.991997) scale(0.500000,0.500000)"><path id="e1bd87ezmjcu17" d="M476.391000,371.046000C474.808000,365.755000,469.238000,362.751000,463.946000,364.329000C458.654000,365.911000,455.647000,371.483000,457.229000,376.774000C462.773000,395.317000,459.289000,414.898000,447.670000,430.499000C436.071000,446.072000,418.273000,455.005000,398.839000,455.005000L372.031000,455.005000L372.031000,408.419000L394.355000,408.419000C399.877000,408.419000,404.355000,403.941000,404.355000,398.419000C404.355000,392.897000,399.877000,388.419000,394.355000,388.419000L352.060000,388.419000C349.564000,377.066000,343.885000,366.595000,335.562000,358.271000C323.992000,346.701000,308.608000,340.329000,292.246000,340.329000C279.024000,340.329000,266.442000,344.489000,255.995000,352.191000C232.042000,334.595000,198.089000,336.623000,176.440000,358.271000C168.117000,366.595000,162.438000,377.067000,159.942000,388.419000L117.647000,388.419000C112.125000,388.419000,107.647000,392.897000,107.647000,398.419000C107.647000,403.941000,112.125000,408.419000,117.647000,408.419000L139.971000,408.419000L139.971000,455.005000L113.163000,455.005000C93.158000,455.005000,75.050000,445.645000,63.479000,429.325000C51.909000,413.005000,49.071000,392.819000,55.693000,373.942000L69.449000,334.727000C83.781000,293.869000,122.502000,266.417000,165.801000,266.417000L221.079000,266.417000L249.260000,294.658000C251.136000,296.538000,253.682000,297.595000,256.338000,297.595000C258.994000,297.595000,261.540000,296.538000,263.416000,294.658000L291.597000,266.417000L346.201000,266.417000C374.757000,266.417000,402.204000,278.497000,421.505000,299.560000C423.478000,301.712000,426.175000,302.804000,428.881000,302.804000C431.294000,302.804000,433.715000,301.936000,435.634000,300.177000C439.706000,296.446000,439.982000,290.119000,436.251000,286.048000C418.966000,267.185000,396.216000,254.349000,371.538000,249.091000C373.296000,247.632000,375.006000,246.094000,376.645000,244.455000C403.352000,217.747000,405.852000,175.683000,383.388000,146.140000C391.428000,121.520000,385.122000,94.553000,366.536000,75.965000C363.329000,72.759000,359.814000,69.873000,356.055000,67.359000C339.633000,26.929000,299.860000,-0,256,-0C212.142000,-0,172.368000,26.929000,155.945000,67.360000C152.187000,69.873000,148.673000,72.757000,145.464000,75.965000C126.878000,94.553000,120.572000,121.520000,128.612000,146.140000C106.148000,175.683000,108.648000,217.747000,135.355000,244.455000C136.995000,246.095000,138.701000,247.640000,140.460000,249.099000C99.389000,257.835000,64.856000,287.396000,50.575000,328.105000L36.819000,367.320000C28.023000,392.396000,31.793000,419.212000,47.163000,440.891000C62.532000,462.570000,86.588000,475.003000,113.162000,475.003000L206.540000,475.003000L234.723000,503.186000C240.588000,509.051000,248.293000,511.984000,255.998000,511.984000C263.703000,511.984000,271.409000,509.051000,277.275000,503.186000L305.458000,475.003000L398.837000,475.003000C424.652000,475.003000,448.298000,463.135000,463.708000,442.442000C479.141000,421.727000,483.763000,395.702000,476.391000,371.046000ZM278.016000,251.715000L256.338000,273.439000L233.986000,251.040000L233.986000,233.899000C240.943000,236.070000,248.338000,237.241000,256.001000,237.241000C263.664000,237.241000,271.058000,236.070000,278.016000,233.899000ZM256.001000,217.241000C226.209000,217.241000,201.971000,193.004000,201.971000,163.212000L201.971000,137.297000L213.246000,137.297000C225.736000,137.297000,237.500000,132.340000,246.193000,123.864000C255.383000,132.206000,267.577000,137.297000,280.937000,137.297000L310.031000,137.297000L310.031000,163.212000C310.032000,193.004000,285.793000,217.241000,256.001000,217.241000ZM147.443000,154.729000C150.045000,151.833000,150.729000,147.692000,149.199000,144.113000C141.265000,125.564000,145.350000,104.366000,159.606000,90.110000C162.489000,87.227000,165.717000,84.713000,169.201000,82.635000C171.165000,81.463000,172.669000,79.654000,173.461000,77.508000C186.152000,43.110000,219.323000,20,256,20C292.679000,20,325.850000,43.110000,338.541000,77.508000C339.333000,79.654000,340.837000,81.463000,342.801000,82.635000C346.286000,84.713000,349.514000,87.228000,352.395000,90.109000C366.652000,104.366000,370.737000,125.564000,362.803000,144.113000C361.273000,147.692000,361.957000,151.834000,364.559000,154.729000C384.073000,176.447000,383.169000,209.648000,362.503000,230.314000C345.395000,247.422000,319.050000,251.174000,298.016000,240.100000L298.016000,224.117000C317.340000,210.746000,330.032000,188.438000,330.032000,163.212000L330.032000,127.297000C330.032000,121.775000,325.554000,117.297000,320.032000,117.297000L280.938000,117.297000C263.434000,117.297000,249.194000,103.056000,249.194000,85.552000C249.194000,80.030000,244.716000,75.552000,239.194000,75.552000C233.672000,75.552000,229.194000,80.030000,229.194000,85.552000C229.194000,93.411000,230.963000,100.861000,234.111000,107.539000C228.999000,113.651000,221.388000,117.297000,213.247000,117.297000L191.972000,117.297000C186.450000,117.297000,181.972000,121.775000,181.972000,127.297000L181.972000,163.212000C181.972000,188.438000,194.664000,210.745000,213.988000,224.117000L213.988000,240.100000C192.959000,251.169000,166.592000,247.407000,149.500000,230.314000C128.833000,209.647000,127.929000,176.446000,147.443000,154.729000ZM175.739000,455.005000L159.971000,455.005000L159.971000,408.419000L175.739000,408.419000C188.583000,408.419000,199.032000,418.868000,199.032000,431.712000C199.032000,444.556000,188.583000,455.005000,175.739000,455.005000ZM292.971000,431.712000C292.971000,439.602000,295.103000,446.998000,298.805000,453.375000L263.136000,489.045000C259.202000,492.978000,252.802000,492.981000,248.866000,489.045000L213.197000,453.376000C216.899000,446.999000,219.031000,439.602000,219.031000,431.712000C219.031000,409.473000,202.175000,391.106000,180.569000,388.695000C182.571000,382.608000,185.973000,377.021000,190.582000,372.413000C206.668000,356.325000,232.844000,356.325000,248.930000,372.413000C250.806000,374.288000,253.349000,375.342000,256.001000,375.342000C258.653000,375.342000,261.197000,374.288000,263.072000,372.413000C270.864000,364.620000,281.224000,360.328000,292.245000,360.328000C303.266000,360.328000,313.627000,364.620000,321.419000,372.413000C326.027000,377.021000,329.430000,382.608000,331.432000,388.695000C309.827000,391.106000,292.971000,409.474000,292.971000,431.712000ZM352.032000,455.005000L336.264000,455.005000C323.420000,455.005000,312.971000,444.556000,312.971000,431.712000C312.971000,418.868000,323.420000,408.419000,336.264000,408.419000L352.032000,408.419000Z" transform="translate(-255.991745,-255.991997)" fill="rgb(0,0,0)" stroke="none" stroke-width="1"/></g><g id="e1bd87ezmjcu18_to" transform="translate(357.898379,294.818258)"><g id="e1bd87ezmjcu18_ts" transform="scale(0.500000,0.500000)"><path id="e1bd87ezmjcu18" d="M451.992000,341.420000C454.622000,341.420000,457.202000,340.350000,459.061000,338.490000C460.921000,336.630000,461.992000,334.050000,461.992000,331.420000C461.992000,328.780000,460.922000,326.210000,459.061000,324.350000C457.202000,322.491000,454.622000,321.420000,451.992000,321.420000C449.351000,321.420000,446.782000,322.490000,444.922000,324.350000C443.062000,326.210000,441.992000,328.781000,441.992000,331.420000C441.992000,334.050000,443.061000,336.620000,444.922000,338.490000C446.782000,340.350000,449.361000,341.420000,451.992000,341.420000Z" transform="translate(-451.992004,-331.420013)" fill="rgb(0,0,0)" stroke="none" stroke-width="1"/></g></g></g></g></g></svg>