<svg id="Capa_1" enable-background="new 0 0 511.991 511.991" height="512" viewBox="0 0 511.991 511.991" width="512" xmlns="http://www.w3.org/2000/svg"><g id="XMLID_1741_"><g id="XMLID_1351_"><path id="XMLID_1274_" d="m63.986 114.856-43.446-43.446c-14.048-14.048-14.048-36.825 0-50.873 14.048-14.048 36.825-14.048 50.873 0 14.048-14.048 36.825-14.048 50.873 0 14.048 14.048 14.048 36.825 0 50.873l-43.446 43.446c-4.102 4.102-10.752 4.102-14.854 0z" fill="#ff7a7a"/><g id="XMLID_1842_"><path id="XMLID_1843_" d="m377.477 10.012-25.274 25.274-40.984-.058c-26.153-.037-51.723 7.723-73.445 22.289l-60.341 40.463c-12.764 8.559-16.009 25.933-7.194 38.522 8.289 11.837 24.338 15.216 36.696 7.725l26.082-15.811c3.998-2.424 8.153 2.873 4.847 6.179l-86.333 86.333c-10.483 10.483-10.483 27.48 0 37.963 10.483 10.483 27.48 10.483 37.963 0l60.313-60.313-18.87 18.736-60.313 60.313c-10.483 10.483-10.483 27.48 0 37.963 10.483 10.483 27.48 10.483 37.963 0l60.313-60.313 18.736-18.87-60.313 60.313c-10.483 10.483-10.483 27.48 0 37.963 10.483 10.483 27.48 10.483 37.963 0l60.313-60.313-.067-.067-24.385 24.385c-10.483 10.483-10.483 27.48 0 37.963 10.483 10.483 27.48 10.483 37.963 0l43.155-43.155-37.066 37.066 72.053-72.053c24.714-24.714 38.576-58.247 38.526-93.198l-.038-26.489 26.024-26.024z" fill="#f4c6af"/></g><g id="XMLID_1024_"><path id="XMLID_1025_" d="m87.841 501.991 42.253-42.253 30.801.044c19.655.028 38.873-5.804 55.198-16.751l45.349-30.41c9.593-6.433 12.031-19.49 5.406-28.952-6.229-8.896-18.292-11.436-27.579-5.805l-19.602 11.883c-3.005 1.821-6.128-2.16-3.643-4.644l64.884-64.884c7.879-7.879 7.879-20.653 0-28.531-7.879-7.879-20.653-7.879-28.531 0l-45.329 45.329 14.182-14.081 45.329-45.329c7.879-7.879 7.879-20.653 0-28.531-7.879-7.879-20.653-7.879-28.531 0l-45.328 45.327-14.081 14.182 45.329-45.329c7.879-7.879 7.879-20.653 0-28.531-7.879-7.879-20.653-7.879-28.531 0l-45.329 45.329.05.05 11.867-11.867c7.879-7.879 7.879-20.653 0-28.531-7.879-7.879-20.653-7.879-28.531 0l-25.974 25.973 21.398-21.398-47.693 47.693c-18.574 18.574-28.992 43.776-28.954 70.043l.028 19.908-42.253 42.253z" fill="#ffd0c6"/></g><path id="XMLID_1044_" d="m416.233 498.167-54.141-54.141c-17.506-17.506-17.506-45.889 0-63.396 17.506-17.506 45.889-17.506 63.396 0 17.506-17.506 45.889-17.506 63.396 0 17.506 17.506 17.506 45.889 0 63.396l-54.141 54.141c-5.112 5.111-13.399 5.111-18.51 0z" fill="#ff7a7a"/></g><g id="XMLID_496_"><g id="XMLID_497_"><path id="XMLID_504_" d="m56.916 121.927c3.872 3.873 9.021 6.005 14.498 6.005s10.625-2.133 14.497-6.005l43.447-43.446c17.925-17.925 17.925-47.091 0-65.016-8.684-8.683-20.229-13.465-32.508-13.465-9.19 0-17.97 2.679-25.445 7.667-17.848-11.856-42.215-9.924-57.937 5.798-8.683 8.683-13.465 20.228-13.465 32.508s4.782 23.824 13.465 32.508zm-29.305-94.32c5.063-5.063 11.714-7.595 18.366-7.595 6.651 0 13.302 2.532 18.365 7.595 1.875 1.875 4.419 2.929 7.071 2.929s5.196-1.054 7.071-2.929c4.906-4.905 11.428-7.607 18.366-7.607s13.46 2.702 18.365 7.607c4.906 4.905 7.607 11.428 7.607 18.366s-2.702 13.46-7.607 18.365l-43.447 43.447c-.041.041-.147.147-.355.147s-.315-.107-.355-.147l-43.447-43.447c-10.127-10.126-10.127-26.604 0-36.731z"/><path id="XMLID_501_" d="m495.955 373.559c-19.156-19.155-49.074-21.146-70.467-5.973-21.393-15.173-51.311-13.183-70.467 5.973-21.377 21.377-21.377 56.161 0 77.538l54.141 54.141c4.501 4.501 10.414 6.751 16.326 6.751s11.825-2.25 16.326-6.751l54.141-54.141c21.377-21.378 21.377-56.161 0-77.538zm-14.143 63.395-54.141 54.141c-1.204 1.205-3.163 1.205-4.367 0l-54.141-54.141c-13.58-13.579-13.58-35.674 0-49.253 6.578-6.578 15.324-10.201 24.626-10.201s18.048 3.623 24.626 10.201c3.905 3.905 10.237 3.905 14.143 0 13.58-13.58 35.675-13.579 49.253 0 13.581 13.579 13.581 35.674.001 49.253z"/><path id="XMLID_500_" d="m448.958 208.48c.849.223 1.701.329 2.54.329 4.437 0 8.491-2.976 9.667-7.47 3.078-11.756 4.63-23.883 4.613-36.043l-.032-22.338 23.089-23.09c3.905-3.905 3.905-10.237 0-14.142s-10.237-3.905-14.142 0l-26.024 26.024c-1.878 1.878-2.933 4.428-2.929 7.085l.038 26.488c.015 10.442-1.318 20.855-3.96 30.949-1.4 5.345 1.798 10.81 7.14 12.208z"/><path id="XMLID_499_" d="m409.705 280.198c3.905-3.905 3.905-10.237 0-14.143s-10.237-3.905-14.143 0l-63.918 63.919c-6.568 6.567-17.253 6.568-23.821 0-3.181-3.181-4.934-7.411-4.934-11.91 0-3.894 1.312-7.585 3.728-10.571l26.054-26.053c1.875-1.875 2.896-4.453 2.896-7.104 0-2.652-1.087-5.229-2.962-7.105-3.905-3.905-10.237-3.905-14.143 0l-24.78 24.781c-.06.06-.113.125-.173.186-1.419-2.763-3.268-5.322-5.528-7.582-2.794-2.794-6.005-4.925-9.434-6.392 3.765-6.646 4.792-14.425 3.116-21.701l13.046-13.045c3.905-3.905 3.906-10.237 0-14.142s-10.237-3.905-14.142 0l-10.012 10.012c-9.664-7.363-22.779-8.132-33.143-2.259-1.126-2.631-2.647-5.132-4.554-7.417l24.023-24.023c3.905-3.905 3.905-10.237 0-14.142s-10.237-3.905-14.142 0l-27.79 27.791c-9.372-1.648-19.377 1.133-26.601 8.357l-13.354 13.355c-1.438-3.031-3.409-5.87-5.914-8.375-2.624-2.623-5.648-4.696-8.931-6.178l84.791-84.791c5.068-5.069 5.536-12.841 1.112-18.481-4.425-5.641-12.085-7.037-18.214-3.32l-26.082 15.812c-7.827 4.744-18.07 2.588-23.32-4.909-2.709-3.869-3.724-8.558-2.856-13.201.867-4.644 3.505-8.649 7.428-11.28l60.34-40.462c20.095-13.475 43.496-20.594 67.687-20.594h.175l40.984.058h.014c2.652 0 5.196-1.053 7.071-2.929l25.273-25.273c3.905-3.905 3.905-10.237 0-14.143s-10.238-3.905-14.142 0l-22.343 22.336-36.833-.052c-.069 0-.135 0-.204 0-28.17 0-55.424 8.292-78.825 23.983l-60.34 40.462c-8.424 5.649-14.088 14.25-15.95 24.22s.316 20.036 6.134 28.344c8.919 12.739 24.558 18.297 39.018 15.012l-56.606 56.606c-3.492 3.492-6.202 7.62-8.044 12.133-3.703 1.498-7.104 3.736-10.014 6.645l-52.269 52.268c-20.303 20.303-31.924 48.416-31.883 77.129l.022 15.757-39.316 39.319c-3.906 3.905-3.906 10.237 0 14.143 3.904 3.904 10.237 3.904 14.142 0l42.253-42.253c1.878-1.878 2.933-4.428 2.929-7.085l-.028-19.908c-.034-23.438 9.452-46.385 26.025-62.958l52.269-52.269c1.921-1.922 4.477-2.98 7.194-2.98s5.273 1.059 7.194 2.98c3.678 3.678 3.946 9.494.805 13.484l-12.723 12.723c-3.905 3.905-3.854 10.287.05 14.192 3.906 3.905 10.238 3.905 14.142 0l45.279-45.379c3.966-3.966 10.421-3.967 14.389 0 3.678 3.679 3.946 9.496.803 13.486l-46.157 46.257c-3.886 3.914-3.87 10.236.038 14.129 3.908 3.894 10.229 3.889 14.129-.012l59.41-59.51c3.966-3.967 10.421-3.967 14.389 0 3.967 3.967 3.967 10.422 0 14.389l-59.51 59.41c-3.9 3.9-3.906 10.223-.012 14.13s10.215 3.925 14.129.038l46.257-46.157c3.989-3.143 9.807-2.876 13.485.803 1.922 1.921 2.98 4.477 2.98 7.194s-1.058 5.273-2.98 7.194l-64.883 64.884c-4.712 4.711-5.148 11.937-1.036 17.18s11.232 6.542 16.933 3.087l19.602-11.883c4.767-2.889 11.005-1.577 14.203 2.99 1.65 2.356 2.268 5.212 1.74 8.04-.528 2.829-2.135 5.269-4.524 6.871l-45.35 30.41c-14.691 9.852-31.8 15.057-49.487 15.057-.042 0-.085 0-.127 0l-30.802-.044c-.005 0-.009 0-.014 0-2.652 0-5.196 1.054-7.071 2.929l-42.252 42.252c-3.905 3.905-3.905 10.237 0 14.142 1.953 1.953 4.512 2.929 7.071 2.929s5.119-.977 7.071-2.929l39.318-39.318 26.651.038h.156c21.666 0 42.628-6.377 60.625-18.445l45.35-30.411c6.89-4.62 11.522-11.656 13.045-19.81s-.259-16.388-5.017-23.182c-5.821-8.313-15.134-12.887-24.671-13.033l34.604-34.604c1.805 5.14 4.743 9.855 8.708 13.82 7.184 7.183 16.616 10.774 26.052 10.773 9.434 0 18.871-3.592 26.053-10.773z"/><path id="XMLID_498_" d="m432.813 249.74c2.63 0 5.21-1.06 7.07-2.93 1.86-1.85 2.93-4.43 2.93-7.06 0-2.64-1.07-5.22-2.93-7.08-1.87-1.86-4.44-2.93-7.07-2.93-2.64 0-5.21 1.07-7.08 2.93-1.86 1.86-2.92 4.44-2.92 7.08 0 2.63 1.06 5.2 2.92 7.06 1.86 1.87 4.44 2.93 7.08 2.93z"/></g></g></g></svg>