<svg id="em3450lk2u4o1" xmlns="http://www.w3.org/2000/svg" xmlns:xlink="http://www.w3.org/1999/xlink" viewBox="0 -15 511.999870 511" shape-rendering="geometricPrecision" text-rendering="geometricPrecision"><style><![CDATA[#em3450lk2u4o2_to {animation: em3450lk2u4o2_to__to 3000ms linear 1 normal forwards}@keyframes em3450lk2u4o2_to__to { 0% {transform: translate(-255.588366px,297.308594px)} 100% {transform: translate(814.703644px,297.308594px)} }#em3450lk2u4o3_to {animation: em3450lk2u4o3_to__to 3000ms linear 1 normal forwards}@keyframes em3450lk2u4o3_to__to { 0% {transform: translate(-120.795397px,392.156250px)} 100% {transform: translate(949.496613px,392.156250px)} }#em3450lk2u4o4_to {animation: em3450lk2u4o4_to__to 3000ms linear 1 normal forwards}@keyframes em3450lk2u4o4_to__to { 0% {transform: translate(-129.061022px,399.234375px)} 100% {transform: translate(941.230988px,399.234375px)} }#em3450lk2u4o5_to {animation: em3450lk2u4o5_to__to 3000ms linear 1 normal forwards}@keyframes em3450lk2u4o5_to__to { 0% {transform: translate(-369.189928px,344.738281px)} 100% {transform: translate(701.102082px,344.738281px)} }#em3450lk2u4o6_to {animation: em3450lk2u4o6_to__to 3000ms linear 1 normal forwards}@keyframes em3450lk2u4o6_to__to { 0% {transform: translate(-410.512255px,308.820313px)} 100% {transform: translate(659.779755px,308.820313px)} }#em3450lk2u4o7_to {animation: em3450lk2u4o7_to__to 3000ms linear 1 normal forwards}@keyframes em3450lk2u4o7_to__to { 0% {transform: translate(-492.106307px,410.079422px)} 100% {transform: translate(578.185703px,410.079422px)} }#em3450lk2u4o8_to {animation: em3450lk2u4o8_to__to 3000ms linear 1 normal forwards}@keyframes em3450lk2u4o8_to__to { 0% {transform: translate(-498.938338px,410.076538px)} 100% {transform: translate(571.353672px,410.076538px)} }#em3450lk2u4o9_to {animation: em3450lk2u4o9_to__to 3000ms linear 1 normal forwards}@keyframes em3450lk2u4o9_to__to { 0% {transform: translate(-314.840319px,235.500000px)} 100% {transform: translate(755.451691px,235.500000px)} }#em3450lk2u4o10_to {animation: em3450lk2u4o10_to__to 3000ms linear 1 normal forwards}@keyframes em3450lk2u4o10_to__to { 0% {transform: translate(-170.143465px,184.185150px)} 100% {transform: translate(900.148545px,184.185150px)} }#em3450lk2u4o11_to {animation: em3450lk2u4o11_to__to 3000ms linear 1 normal forwards}@keyframes em3450lk2u4o11_to__to { 0% {transform: translate(-141.191882px,210.912109px)} 100% {transform: translate(929.100128px,210.912109px)} }#em3450lk2u4o12_to {animation: em3450lk2u4o12_to__to 3000ms linear 1 normal forwards}@keyframes em3450lk2u4o12_to__to { 0% {transform: translate(-150.539538px,210.912109px)} 100% {transform: translate(919.752472px,210.912109px)} }#em3450lk2u4o13_to {animation: em3450lk2u4o13_to__to 3000ms linear 1 normal forwards}@keyframes em3450lk2u4o13_to__to { 0% {transform: translate(-227.793444px,408.123047px)} 100% {transform: translate(842.498566px,408.123047px)} }#em3450lk2u4o14_to {animation: em3450lk2u4o14_to__to 3000ms linear 1 normal forwards}@keyframes em3450lk2u4o14_to__to { 0% {transform: translate(-239.893053px,408.123047px)} 100% {transform: translate(830.398957px,408.123047px)} }#em3450lk2u4o15_to {animation: em3450lk2u4o15_to__to 3000ms linear 1 normal forwards}@keyframes em3450lk2u4o15_to__to { 0% {transform: translate(-428.507567px,437.891052px)} 100% {transform: translate(641.784443px,437.891052px)} }#em3450lk2u4o16_to {animation: em3450lk2u4o16_to__to 3000ms linear 1 normal forwards}@keyframes em3450lk2u4o16_to__to { 0% {transform: translate(-433.482176px,437.890991px)} 100% {transform: translate(636.809834px,437.890991px)} }#em3450lk2u4o17_to {animation: em3450lk2u4o17_to__to 3000ms linear 1 normal forwards}@keyframes em3450lk2u4o17_to__to { 0% {transform: translate(-208.785632px,203.642578px)} 100% {transform: translate(861.506378px,203.642578px)} }#em3450lk2u4o18_to {animation: em3450lk2u4o18_to__to 3000ms linear 1 normal forwards}@keyframes em3450lk2u4o18_to__to { 0% {transform: translate(-74.746569px,203.642578px)} 100% {transform: translate(995.545441px,203.642578px)} }#em3450lk2u4o19_to {animation: em3450lk2u4o19_to__to 3000ms linear 1 normal forwards}@keyframes em3450lk2u4o19_to__to { 0% {transform: translate(-160.304293px,74.087149px)} 100% {transform: translate(909.987717px,74.087149px)} }#em3450lk2u4o20_to {animation: em3450lk2u4o20_to__to 3000ms linear 1 normal forwards}@keyframes em3450lk2u4o20_to__to { 0% {transform: translate(-216.063143px,74.090275px)} 100% {transform: translate(854.228867px,74.090275px)} }#em3450lk2u4o21_to {animation: em3450lk2u4o21_to__to 3000ms linear 1 normal forwards}@keyframes em3450lk2u4o21_to__to { 0% {transform: translate(-188.232897px,148.257813px)} 100% {transform: translate(882.059113px,148.257813px)} }#em3450lk2u4o22_to {animation: em3450lk2u4o22_to__to 3000ms linear 1 normal forwards}@keyframes em3450lk2u4o22_to__to { 0% {transform: translate(-89.881335px,148.257813px)} 100% {transform: translate(980.410675px,148.257813px)} }#em3450lk2u4o23_to {animation: em3450lk2u4o23_to__to 3000ms linear 1 normal forwards}@keyframes em3450lk2u4o23_to__to { 0% {transform: translate(-139.053210px,156.982422px)} 100% {transform: translate(931.238800px,156.982422px)} }#em3450lk2u4o24_to {animation: em3450lk2u4o24_to__to 3000ms linear 1 normal forwards}@keyframes em3450lk2u4o24_to__to { 0% {transform: translate(-141.189928px,210.912109px)} 100% {transform: translate(929.102082px,210.912109px)} }#em3450lk2u4o25_to {animation: em3450lk2u4o25_to__to 3000ms linear 1 normal forwards}@keyframes em3450lk2u4o25_to__to { 0% {transform: translate(-208.785632px,203.642578px)} 100% {transform: translate(861.506378px,203.642578px)} }#em3450lk2u4o26_to {animation: em3450lk2u4o26_to__to 3000ms linear 1 normal forwards}@keyframes em3450lk2u4o26_to__to { 0% {transform: translate(-287.963610px,241.497718px)} 100% {transform: translate(782.328400px,241.497718px)} }]]></style><g id="em3450lk2u4o2_to" transform="translate(-255.588366,297.308594)"><path id="em3450lk2u4o2" d="M376.855469,269.640625L372.253906,269.640625C369.750000,269.640625,367.273438,269.531250,364.820312,269.332031C355.109375,283.789062,337.253906,290.644531,320.890625,284.906250C301.242188,278.007812,291.203125,255.554688,298.464844,234.765625C298.738281,233.992188,299.035156,233.234375,299.343750,232.484375C294.160156,225.406250,289.972656,217.542969,286.972656,209.109375C283.875000,209.675781,185.636719,235.906250,161.679688,242.304688L212.355469,348.476562C213.214844,348.902344,231.039062,357.750000,231.105469,357.785156C245.519531,365.320312,255.949219,372.753906,259.867188,385.507812L283.949219,379.039062L283.949219,369.070312L330.839844,369.070312L330.839844,365.355469C343.488281,359.671875,354.160156,351,362.222656,340.425781L374.542969,360.925781L415.070312,337.136719C400.441406,311.335938,385.656250,285.242188,376.855469,269.640625ZM376.855469,269.640625" transform="translate(-288.375000,-297.308594)" fill="rgb(162,249,249)" stroke="none" stroke-width="1"/></g><g id="em3450lk2u4o3_to" transform="translate(-120.795397,392.156250)"><path id="em3450lk2u4o3" d="M458.796875,414.238281L415.070312,337.136719L374.542969,360.929688L417.066406,431.699219C417.683594,440.347656,424.378906,447.175781,433.160156,447.175781L455.160156,447.175781C464.347656,447.175781,471.792969,439.710938,471.792969,430.500000C471.792969,422.542969,466.230469,415.898438,458.796875,414.238281ZM458.796875,414.238281" transform="translate(-423.167969,-392.156250)" fill="rgb(255,213,179)" stroke="none" stroke-width="1"/></g><g id="em3450lk2u4o4_to" transform="translate(-129.061022,399.234375)"><path id="em3450lk2u4o4" d="M439.273438,431.699219L390.957031,351.292969L374.542969,360.929688L417.066406,431.699219C417.683594,440.347656,424.378906,447.175781,433.160156,447.175781L455.160156,447.175781C455.195312,447.175781,455.226562,447.171875,455.261719,447.171875C446.535156,447.117188,439.886719,440.312500,439.273438,431.699219ZM439.273438,431.699219" transform="translate(-414.902344,-399.234375)" fill="rgb(229,191,161)" stroke="none" stroke-width="1"/></g><g id="em3450lk2u4o5_to" transform="translate(-369.189928,344.738281)"><path id="em3450lk2u4o5" d="M231.105469,357.785156C231.039062,357.750000,213.214844,348.906250,212.351562,348.480469L161.675781,242.300781L156.441406,243.707031C112.859375,255.414062,86.996094,300.324219,98.675781,344.019531C101.574219,354.871094,106.523438,364.625000,112.984375,372.984375L87.972656,372.984375L87.972656,419.363281L97.378906,419.363281L101.820312,411.652344C106.527344,403.476562,115.535156,400.796875,124.503906,400.796875L149.714844,400.796875L149.714844,447.175781L212.351562,447.175781C239.539062,447.175781,261.574219,425.082031,261.574219,397.828125C261.574219,376.972656,249.625000,367.468750,231.105469,357.785156ZM231.105469,357.785156" transform="translate(-174.773438,-344.738281)" fill="rgb(137,201,71)" stroke="none" stroke-width="1"/></g><g id="em3450lk2u4o6_to" transform="translate(-410.512255,308.820313)"><path id="em3450lk2u4o6" d="M98.675781,344.019531C101.855469,355.917969,107.503906,366.484375,114.902344,375.343750C113.136719,371.398438,111.652344,367.265625,110.496094,362.953125C98.820312,319.257812,124.683594,274.347656,168.261719,262.636719L171.031250,261.894531L161.675781,242.296875L156.441406,243.703125C112.859375,255.414062,86.996094,300.324219,98.675781,344.019531ZM98.675781,344.019531" transform="translate(-133.451111,-308.820313)" fill="rgb(123,181,64)" stroke="none" stroke-width="1"/></g><g id="em3450lk2u4o7_to" transform="translate(-492.106307,410.079422)"><path id="em3450lk2u4o7" d="M87.972656,372.984375L59.050781,372.984375C50.078125,372.984375,41.070312,375.664062,36.363281,383.839844L18.644531,414.605469C12.667969,424.992188,16.214844,438.265625,26.570312,444.261719C36.929688,450.257812,50.171875,446.699219,56.152344,436.316406L65.914062,419.363281L87.972656,419.363281ZM87.972656,372.984375" transform="translate(-51.857059,-410.079422)" fill="rgb(255,213,179)" stroke="none" stroke-width="1"/></g><g id="em3450lk2u4o8_to" transform="translate(-498.938338,410.076538)"><path id="em3450lk2u4o8" d="M41.828125,444.261719C31.472656,438.265625,27.925781,424.992188,33.902344,414.605469L51.621094,383.839844C56.328125,375.664062,65.335938,372.980469,74.308594,372.980469L59.050781,372.980469C50.078125,372.980469,41.070312,375.664062,36.363281,383.839844L18.644531,414.605469C12.667969,424.992188,16.214844,438.265625,26.570312,444.261719C32.421875,447.648438,39.191406,447.984375,45.054688,445.765625C43.957031,445.351562,42.875000,444.871094,41.828125,444.261719ZM41.828125,444.261719" transform="translate(-45.025028,-410.076538)" fill="rgb(229,191,161)" stroke="none" stroke-width="1"/></g><g id="em3450lk2u4o9_to" transform="translate(-314.840319,235.500000)"><path id="em3450lk2u4o9" d="M286.972656,209.101562C283.441406,209.746094,279.859375,210.554688,276.230469,211.527344L161.675781,242.300781L171.031250,261.898438L288.054688,230.460938C290.921875,229.691406,293.761719,229.023438,296.570312,228.457031C292.652344,222.460938,289.414062,215.972656,286.972656,209.101562ZM286.972656,209.101562" transform="translate(-229.123047,-235.500000)" fill="rgb(145,224,224)" stroke="none" stroke-width="1"/></g><g id="em3450lk2u4o10_to" transform="translate(-170.143465,184.185150)"><path id="em3450lk2u4o10" d="M489.519531,123.542969C489.519531,113.968750,488.054688,104.910156,485.339844,96.519531C477.015625,93.406250,468.285156,87.957031,464.066406,85.164062C467.679688,88.062500,472.886719,94.296875,464.425781,102.050781C453.636719,111.929688,415.703125,86.457031,409.359375,82.074219C412.875000,84.660156,424.695312,94.824219,409.433594,104.992188C391.757812,116.769531,335.781250,81.437500,335.781250,81.437500C335.781250,124.621094,281.773438,140.164062,281.773438,140.164062C281.742188,140.140625,281.710938,140.117188,281.679688,140.093750L281.679688,140.164062L273.488281,140.164062C261.714844,140.164062,252.085938,149.871094,252.085938,161.738281L252.085938,179.773438C252.085938,191.640625,261.714844,201.351562,273.488281,201.351562L284.585938,201.351562C287.523438,212.750000,292.601562,223.277344,299.343750,232.488281C299.031250,233.234375,298.734375,233.992188,298.464844,234.769531C291.203125,255.558594,301.242188,278.007812,320.890625,284.906250C337.250000,290.648438,355.109375,283.792969,364.820312,269.332031C367.273438,269.535156,369.750000,269.644531,372.253906,269.644531L416.761719,269.644531C476.679688,269.644531,509.964844,226.621094,489.515625,170.835938L489.515625,123.542969ZM489.519531,123.542969" transform="translate(-373.819901,-184.185150)" fill="rgb(255,213,179)" stroke="none" stroke-width="1"/></g><g id="em3450lk2u4o11_to" transform="translate(-141.191882,210.912109)"><path id="em3450lk2u4o11" d="M402.773438,229.214844C385.882812,229.214844,372.140625,215.437500,372.140625,198.503906C372.140625,195.246094,374.777344,192.609375,378.023438,192.609375L427.523438,192.609375C430.769531,192.609375,433.402344,195.246094,433.402344,198.503906C433.402344,215.437500,419.664062,229.214844,402.773438,229.214844ZM402.773438,229.214844" transform="translate(-402.771484,-210.912109)" fill="rgb(251,130,118)" stroke="none" stroke-width="1"/></g><g id="em3450lk2u4o12_to" transform="translate(-150.539538,210.912109)"><path id="em3450lk2u4o12" d="M396,198.503906C396,195.246094,398.632812,192.609375,401.882812,192.609375L378.023438,192.609375C374.777344,192.609375,372.144531,195.246094,372.144531,198.503906C372.144531,215.437500,385.882812,229.214844,402.773438,229.214844C407.003906,229.214844,411.035156,228.347656,414.703125,226.789062C403.722656,222.117188,396,211.199219,396,198.503906ZM396,198.503906" transform="translate(-393.423828,-210.912109)" fill="rgb(225,117,106)" stroke="none" stroke-width="1"/></g><g id="em3450lk2u4o13_to" transform="translate(-227.793444,408.123047)"><path id="em3450lk2u4o13" d="M283.949219,430.500000L283.949219,431.687500L284.007812,431.699219C284.625000,440.347656,291.796875,447.175781,300.582031,447.175781L332.296875,447.175781C341.480469,447.175781,348.390625,439.710938,348.390625,430.500000C348.390625,421.289062,341.480469,413.824219,332.296875,413.824219L330.839844,413.824219L330.839844,369.070312L283.949219,369.070312ZM283.949219,430.500000" transform="translate(-316.169922,-408.123047)" fill="rgb(255,213,179)" stroke="none" stroke-width="1"/></g><g id="em3450lk2u4o14_to" transform="translate(-239.893053,408.123047)"><path id="em3450lk2u4o14" d="M307.617188,431.699219L307.558594,431.687500L307.558594,369.070312L283.949219,369.070312L283.949219,431.687500L284.007812,431.699219C284.625000,440.347656,291.796875,447.175781,300.582031,447.175781L324.191406,447.175781C315.406250,447.175781,308.234375,440.347656,307.617188,431.699219ZM307.617188,431.699219" transform="translate(-304.070313,-408.123047)" fill="rgb(229,191,161)" stroke="none" stroke-width="1"/></g><g id="em3450lk2u4o15_to" transform="translate(-428.507567,437.891052)"><path id="em3450lk2u4o15" d="M149.714844,400.796875L124.503906,400.796875C115.535156,400.796875,106.527344,403.476562,101.820312,411.652344L84.101562,442.421875C78.121094,452.804688,81.671875,466.078125,92.027344,472.074219C102.386719,478.066406,115.628906,474.511719,121.609375,464.128906L131.371094,447.175781L149.714844,447.175781ZM149.714844,400.796875" transform="translate(-115.455799,-437.891052)" fill="rgb(255,213,179)" stroke="none" stroke-width="1"/></g><g id="em3450lk2u4o16_to" transform="translate(-433.482176,437.890991)"><path id="em3450lk2u4o16" d="M107.285156,472.074219C96.929688,466.078125,93.378906,452.804688,99.359375,442.421875L117.078125,411.652344C121.785156,403.476562,130.792969,400.796875,139.765625,400.796875L124.503906,400.796875C115.535156,400.796875,106.527344,403.476562,101.820312,411.652344L84.101562,442.421875C78.121094,452.804688,81.671875,466.078125,92.027344,472.074219C97.878906,475.460938,104.648438,475.796875,110.511719,473.578125C109.414062,473.164062,108.332031,472.679688,107.285156,472.074219ZM107.285156,472.074219" transform="translate(-110.481190,-437.890991)" fill="rgb(229,191,161)" stroke="none" stroke-width="1"/></g><g id="em3450lk2u4o17_to" transform="translate(-208.785632,203.642578)"><path id="em3450lk2u4o17" d="M350.183594,203.644531C350.183594,195.335938,343.464844,188.597656,335.179688,188.597656C326.890625,188.597656,320.171875,195.335938,320.171875,203.644531C320.171875,211.953125,326.890625,218.687500,335.179688,218.687500C343.464844,218.687500,350.183594,211.953125,350.183594,203.644531ZM350.183594,203.644531" transform="translate(-335.177734,-203.642578)" fill="rgb(255,185,138)" stroke="none" stroke-width="1"/></g><g id="em3450lk2u4o18_to" transform="translate(-74.746569,203.642578)"><path id="em3450lk2u4o18" d="M484.222656,203.644531C484.222656,195.335938,477.503906,188.597656,469.214844,188.597656C460.929688,188.597656,454.210938,195.335938,454.210938,203.644531C454.210938,211.953125,460.929688,218.687500,469.214844,218.687500C477.503906,218.687500,484.222656,211.953125,484.222656,203.644531ZM484.222656,203.644531" transform="translate(-469.216797,-203.642578)" fill="rgb(255,185,138)" stroke="none" stroke-width="1"/></g><g id="em3450lk2u4o19_to" transform="translate(-160.304293,74.087149)"><path id="em3450lk2u4o19" d="M281.769531,140.164062C281.769531,140.164062,335.781250,124.621094,335.781250,81.437500C335.781250,81.437500,391.753906,116.769531,409.429688,104.992188C427.105469,93.214844,408.449219,81.437500,408.449219,81.437500C408.449219,81.437500,452.640625,112.843750,464.421875,102.046875C476.207031,91.250000,461.476562,83.398438,461.476562,83.398438C461.476562,83.398438,493.898438,106.558594,502.722656,96.160156C514.210938,82.617188,470.316406,-1.003906,360.332031,8.808594C250.347656,18.625000,248.382812,115.628906,281.769531,140.164062ZM281.769531,140.164062" transform="translate(-383.659073,-74.087149)" fill="rgb(247,147,30)" stroke="none" stroke-width="1"/></g><g id="em3450lk2u4o20_to" transform="translate(-216.063143,74.090275)"><path id="em3450lk2u4o20" d="M390.832031,8.808594C391.554688,8.746094,392.261719,8.703125,392.980469,8.644531C382.824219,7.789062,371.949219,7.773438,360.332031,8.808594C250.347656,18.625000,248.382812,115.628906,281.769531,140.164062C281.769531,140.164062,291.808594,137.273438,303.226562,130.527344C280.421875,96.695312,292.089844,17.621094,390.832031,8.808594ZM390.832031,8.808594" transform="translate(-327.900223,-74.090275)" fill="rgb(222,132,27)" stroke="none" stroke-width="1"/></g><g id="em3450lk2u4o21_to" transform="translate(-188.232897,148.257813)"><path id="em3450lk2u4o21" d="M355.730469,135.234375C351.589844,135.234375,348.230469,138.593750,348.230469,142.734375L348.230469,153.781250C348.230469,157.925781,351.589844,161.281250,355.730469,161.281250C359.875000,161.281250,363.230469,157.925781,363.230469,153.781250L363.230469,142.734375C363.230469,138.593750,359.875000,135.234375,355.730469,135.234375ZM355.730469,135.234375" transform="translate(-355.730469,-148.257813)" fill="rgb(0,0,0)" stroke="none" stroke-width="1"/></g><g id="em3450lk2u4o22_to" transform="translate(-89.881335,148.257813)"><path id="em3450lk2u4o22" d="M454.082031,161.281250C458.226562,161.281250,461.582031,157.925781,461.582031,153.781250L461.582031,142.734375C461.582031,138.593750,458.226562,135.234375,454.082031,135.234375C449.941406,135.234375,446.582031,138.593750,446.582031,142.734375L446.582031,153.781250C446.582031,157.925781,449.941406,161.281250,454.082031,161.281250ZM454.082031,161.281250" transform="translate(-454.082031,-148.257813)" fill="rgb(0,0,0)" stroke="none" stroke-width="1"/></g><g id="em3450lk2u4o23_to" transform="translate(-139.053210,156.982422)"><path id="em3450lk2u4o23" d="M400.593750,170.972656L404.910156,170.972656C411.425781,170.972656,416.726562,165.363281,416.726562,158.472656L416.726562,150.492188C416.726562,146.347656,413.371094,142.992188,409.226562,142.992188C405.085938,142.992188,401.726562,146.347656,401.726562,150.492188L401.726562,155.972656L400.593750,155.972656C396.453125,155.972656,393.093750,159.328125,393.093750,163.472656C393.093750,167.613281,396.453125,170.972656,400.593750,170.972656ZM400.593750,170.972656" transform="translate(-404.910156,-156.982422)" fill="rgb(0,0,0)" stroke="none" stroke-width="1"/></g><g id="em3450lk2u4o24_to" transform="translate(-141.189928,210.912109)"><path id="em3450lk2u4o24" d="M364.644531,198.503906C364.644531,219.574219,381.750000,236.714844,402.773438,236.714844C423.800781,236.714844,440.902344,219.574219,440.902344,198.503906C440.902344,191.117188,434.902344,185.109375,427.523438,185.109375L378.023438,185.109375C370.644531,185.109375,364.644531,191.117188,364.644531,198.503906ZM425.847656,200.109375C425.023438,212.160156,414.988281,221.714844,402.773438,221.714844C390.554688,221.714844,380.519531,212.160156,379.695312,200.109375ZM425.847656,200.109375" transform="translate(-402.773438,-210.912109)" fill="rgb(0,0,0)" stroke="none" stroke-width="1"/></g><g id="em3450lk2u4o25_to" transform="translate(-208.785632,203.642578)"><path id="em3450lk2u4o25" d="M335.179688,181.097656C322.769531,181.097656,312.671875,191.210938,312.671875,203.644531C312.671875,216.074219,322.769531,226.187500,335.179688,226.187500C347.589844,226.187500,357.683594,216.074219,357.683594,203.644531C357.683594,191.210938,347.589844,181.097656,335.179688,181.097656ZM335.179688,211.187500C331.039062,211.187500,327.671875,207.804688,327.671875,203.644531C327.671875,199.484375,331.039062,196.097656,335.179688,196.097656C339.316406,196.097656,342.683594,199.484375,342.683594,203.644531C342.683594,207.804688,339.316406,211.187500,335.179688,211.187500ZM335.179688,211.187500" transform="translate(-335.177734,-203.642578)" fill="rgb(0,0,0)" stroke="none" stroke-width="1"/></g><g id="em3450lk2u4o26_to" transform="translate(-287.963610,241.497718)"><path id="em3450lk2u4o26" d="M505.539062,67.988281C495.972656,49.527344,478.371094,32.097656,457.246094,20.175781C429.289062,4.394531,396.457031,-1.941406,359.667969,1.339844C284.265625,8.066406,263.792969,52.953125,258.488281,71.941406C252.285156,94.152344,255.464844,117.628906,265.812500,133.707031L265.812500,133.710938C253.589844,137.105469,244.585938,148.378906,244.585938,161.738281L244.585938,179.773438C244.585938,192.351562,252.566406,203.085938,263.695312,207.128906L154.492188,236.460938C106.992188,249.222656,78.703125,298.339844,91.429688,345.953125C93.269531,352.835938,95.886719,359.371094,99.183594,365.480469L59.050781,365.480469C45.656250,365.480469,35.292969,370.671875,29.863281,380.097656L12.144531,410.863281C6.847656,420.066406,7.136719,430.996094,11.945312,439.675781L7.500000,439.675781C3.359375,439.675781,0,443.031250,0,447.175781C0,451.320312,3.359375,454.675781,7.500000,454.675781L73.753906,454.675781C74.230469,464.257812,79.382812,473.421875,88.273438,478.566406C92.765625,481.167969,97.750000,482.496094,102.808594,482.496094C105.335938,482.496094,107.878906,482.164062,110.386719,481.492188C117.917969,479.472656,124.210938,474.636719,128.105469,467.871094L135.707031,454.675781L482.226562,454.675781C486.367188,454.675781,489.726562,451.320312,489.726562,447.175781C489.726562,443.035156,486.367188,439.675781,482.226562,439.675781L477.480469,439.675781C478.644531,436.847656,479.292969,433.750000,479.292969,430.500000C479.292969,420.488281,472.980469,411.519531,463.863281,407.964844C461.875000,404.453125,452.429688,387.804688,452.429688,387.804688C450.386719,384.199219,445.804688,382.933594,442.207031,384.980469C438.601562,387.023438,437.339844,391.601562,439.382812,395.203125C439.382812,395.203125,451.042969,415.761719,452.261719,417.921875C453.304688,419.777344,455.085938,421.097656,457.160156,421.558594C461.292969,422.484375,464.292969,426.246094,464.292969,430.503906C464.292969,435.562500,460.195312,439.679688,455.160156,439.679688L433.160156,439.679688C428.519531,439.679688,424.898438,436.097656,424.546875,431.164062C424.460938,429.988281,424.101562,428.847656,423.496094,427.835938L384.875000,363.562500L412.300781,347.460938C415.457031,353.023438,418.796875,358.917969,422.363281,365.199219C424.406250,368.800781,428.984375,370.066406,432.585938,368.023438C436.187500,365.976562,437.453125,361.402344,435.410156,357.796875C426.054688,341.308594,404.277344,302.914062,389.707031,277.140625L416.761719,277.140625C449.371094,277.140625,475.578125,265.328125,490.562500,243.878906C504.609375,223.769531,506.886719,197.410156,497.019531,169.527344L497.019531,123.542969C497.019531,117.667969,496.488281,111.910156,495.472656,106.304688C501.011719,106.417969,505.347656,104.656250,508.441406,101.011719C514.046875,94.402344,512.992188,82.367188,505.539062,67.988281ZM59.414062,415.621094L49.652344,432.574219C47.128906,436.953125,42.425781,439.675781,37.378906,439.675781C34.917969,439.675781,32.480469,439.019531,30.328125,437.773438C23.562500,433.855469,21.234375,425.140625,25.144531,418.347656L42.859375,387.585938C45.574219,382.875000,51.023438,380.484375,59.050781,380.484375L80.472656,380.484375L80.472656,411.863281L65.914062,411.863281C63.230469,411.863281,60.753906,413.296875,59.414062,415.621094ZM77.062500,439.675781L62.871094,439.675781L70.250000,426.863281L84.406250,426.863281C84.406250,426.863281,77.238281,439.343750,77.062500,439.675781ZM95.472656,380.484375L109.390625,380.484375C113.363281,385.199219,117.832031,389.507812,122.757812,393.339844C110.328125,393.769531,100.691406,398.812500,95.472656,407.667969ZM142.214844,439.675781L131.371094,439.675781C128.687500,439.675781,126.210938,441.109375,124.871094,443.433594L115.109375,460.382812C113.214844,463.671875,110.160156,466.023438,106.503906,467C102.859375,467.980469,99.054688,467.476562,95.785156,465.582031C89.015625,461.664062,86.691406,452.953125,90.601562,446.164062L108.320312,415.394531C111.031250,410.683594,116.476562,408.292969,124.503906,408.292969L142.214844,408.292969ZM250.695312,439.675781C261.984375,429.277344,269.074219,414.367188,269.074219,397.828125C269.074219,395.390625,268.921875,393.097656,268.652344,390.914062L276.449219,388.816406C276.449219,388.816406,276.332031,432.785156,276.449219,433.308594C276.707031,435.539062,277.457031,437.675781,278.281250,439.675781ZM332.292969,439.675781L300.582031,439.675781C295.824219,439.675781,291.789062,435.937500,291.449219,431.164062C291.437500,431.023438,291.449219,376.570312,291.449219,376.570312L323.335938,376.570312L323.335938,413.824219C323.335938,417.968750,326.695312,421.324219,330.835938,421.324219L332.292969,421.324219C337.195312,421.324219,340.890625,425.269531,340.890625,430.500000C340.890625,435.730469,337.195312,439.675781,332.292969,439.675781ZM409.792969,434.160156C410.078125,436.093750,410.597656,437.933594,411.285156,439.675781L354.183594,439.675781C355.285156,436.859375,355.890625,433.765625,355.890625,430.500000C355.890625,419.093750,348.546875,409.765625,338.335938,407.093750L338.335938,370.062500C346.781250,365.707031,354.457031,360.042969,361.128906,353.171875ZM404.898438,334.410156L377.148438,350.703125L368.652344,336.562500C367.371094,334.433594,365.117188,333.074219,362.636719,332.937500C360.160156,332.792969,357.765625,333.902344,356.257812,335.878906C351.175781,342.542969,345.132812,348.187500,338.335938,352.703125L338.335938,321.894531C338.335938,317.753906,334.980469,314.394531,330.835938,314.394531C326.695312,314.394531,323.335938,317.753906,323.335938,321.894531L323.335938,361.570312L291.449219,361.570312L291.449219,321.894531C291.449219,317.753906,288.089844,314.394531,283.949219,314.394531C279.808594,314.394531,276.449219,317.753906,276.449219,321.894531L276.449219,373.289062L264.355469,376.535156C256.730469,361.804688,240.625000,353.941406,221.660156,344.687500C220.457031,344.101562,219.234375,343.500000,218,342.894531L198.128906,301.265625C196.347656,297.527344,191.871094,295.949219,188.132812,297.726562C184.394531,299.511719,182.808594,303.988281,184.593750,307.726562L205.582031,351.710938L205.593750,351.714844C206.292969,353.179688,207.464844,354.429688,209.031250,355.203125C211.093750,356.222656,213.109375,357.207031,215.082031,358.167969C242.117188,371.359375,254.074219,378.027344,254.074219,397.828125C254.074219,420.902344,235.355469,439.675781,212.351562,439.675781L157.214844,439.675781L157.214844,408.296875L179,408.296875C183.140625,408.296875,186.500000,404.937500,186.500000,400.796875C186.500000,396.652344,183.140625,393.296875,179,393.296875L153.777344,393.296875C149.238281,391.746094,144.816406,389.753906,140.566406,387.300781C123.363281,377.367188,111.058594,361.308594,105.921875,342.082031C95.398438,302.710938,118.558594,262.125000,157.605469,251.179688L169.320312,275.726562C170.609375,278.421875,173.292969,279.996094,176.093750,279.996094C177.175781,279.996094,178.277344,279.761719,179.320312,279.265625C183.058594,277.480469,184.640625,273.003906,182.859375,269.265625L172.328125,247.203125L278.179688,218.773438C279.570312,218.398438,280.945312,218.062500,282.308594,217.742188C284.695312,223.257812,287.574219,228.550781,290.957031,233.582031C283.199219,257.878906,295.304688,283.871094,318.410156,291.984375C323.039062,293.609375,327.867188,294.429688,332.757812,294.429688C346.507812,294.429688,359.550781,288.011719,368.425781,277.062500C369.714844,277.117188,370.996094,277.140625,372.257812,277.140625L372.472656,277.140625C378.800781,288.359375,388.863281,306.128906,404.898438,334.410156ZM496.914062,91.242188C495.886719,91.464844,491.527344,91.800781,480.437500,86.117188C475.554688,83.613281,471.101562,80.816406,468.429688,79.058594C466.750000,77.742188,465.375000,76.976562,465.007812,76.781250C461.519531,74.925781,457.187500,76.089844,455.105469,79.449219C453.023438,82.808594,453.902344,87.207031,457.121094,89.503906C457.230469,89.582031,458.148438,90.234375,459.656250,91.238281C460.652344,92.097656,461.429688,93.050781,461.492188,93.601562C461.515625,93.785156,461.214844,94.816406,459.378906,96.500000C459.335938,96.531250,454.195312,98.976562,434.804688,88.785156C425.320312,83.800781,412.664062,75.226562,412.457031,75.097656C409.019531,72.925781,404.480469,73.886719,402.222656,77.261719C399.960938,80.636719,400.796875,85.199219,404.105469,87.550781C404.187500,87.609375,404.589844,87.894531,405.261719,88.359375C407.050781,89.742188,409.523438,92.324219,409.542969,94.007812C409.554688,94.917969,408.437500,96.644531,405.273438,98.750000C404.199219,99.468750,399.636719,101.488281,386.175781,97.414062C382.214844,96.210938,378.023438,98.453125,376.824219,102.417969C375.625000,106.382812,377.863281,110.570312,381.828125,111.769531C396.148438,116.105469,406.539062,115.933594,413.589844,111.234375C419.316406,107.417969,422.187500,103.355469,423.519531,99.726562C425.156250,100.640625,426.843750,101.554688,428.562500,102.449219C441.312500,109.066406,459.425781,116.800781,469.492188,107.578125C472.250000,105.054688,473.992188,102.546875,475.046875,100.195312C475.199219,100.273438,475.351562,100.347656,475.503906,100.421875C476.750000,101.027344,477.953125,101.570312,479.140625,102.082031C481.007812,108.863281,482.019531,116.046875,482.019531,123.546875L482.019531,170.835938C482.019531,171.718750,482.171875,172.589844,482.476562,173.417969C484.507812,178.957031,485.972656,184.402344,486.886719,189.707031C482.765625,184.468750,476.378906,181.097656,469.218750,181.097656C456.808594,181.097656,446.710938,191.210938,446.710938,203.644531C446.710938,216.078125,456.808594,226.191406,469.218750,226.191406C475.863281,226.191406,481.843750,223.285156,485.968750,218.679688C484.347656,224.679688,481.781250,230.257812,478.265625,235.292969C466.167969,252.605469,444.328125,261.859375,416.761719,261.859375L365.433594,261.859375C362.722656,261.628906,360.109375,262.894531,358.593750,265.152344C352.585938,274.093750,342.929688,279.433594,332.757812,279.433594C329.562500,279.433594,326.406250,278.894531,323.375000,277.828125C307.656250,272.308594,299.656250,254.101562,305.546875,237.242188C305.746094,236.671875,305.980469,236.058594,306.269531,235.367188C307.277344,232.945312,306.945312,230.171875,305.394531,228.054688C299.062500,219.406250,294.503906,209.792969,291.847656,199.480469C290.996094,196.167969,288.007812,193.851562,284.585938,193.851562L273.488281,193.851562C265.824219,193.851562,259.585938,187.535156,259.585938,179.773438L259.585938,161.738281C259.585938,153.976562,265.824219,147.664062,273.488281,147.664062L281.773438,147.664062C282.464844,147.664062,283.164062,147.566406,283.847656,147.371094C284.445312,147.199219,298.683594,143.035156,313.027344,133.175781C328.695312,122.402344,338.515625,108.941406,341.929688,93.765625C343.902344,94.871094,346.101562,96.082031,348.476562,97.343750C352.136719,99.285156,356.675781,97.898438,358.621094,94.238281C360.562500,90.582031,359.171875,86.042969,355.515625,84.097656C346.398438,79.253906,339.847656,75.136719,339.785156,75.093750C337.472656,73.636719,334.554688,73.554688,332.160156,74.871094C329.765625,76.191406,328.281250,78.707031,328.281250,81.437500C328.281250,112.308594,294.695312,127.460938,283.371094,131.691406C273.027344,121.558594,266.250000,99.917969,272.937500,75.972656C282.375000,42.191406,314.468750,20.433594,361,16.281250C439.441406,9.269531,476.558594,51.769531,486.066406,64.960938C496.015625,78.765625,497.484375,88.652344,496.914062,91.242188ZM476.722656,203.644531C476.722656,207.804688,473.355469,211.187500,469.218750,211.187500C465.078125,211.187500,461.710938,207.804688,461.710938,203.644531C461.710938,199.484375,465.078125,196.097656,469.218750,196.097656C473.355469,196.097656,476.722656,199.484375,476.722656,203.644531ZM476.722656,203.644531" transform="translate(-255.999756,-241.497718)" fill="rgb(0,0,0)" stroke="none" stroke-width="1"/></g></svg>