<svg id="Capa_1" enable-background="new 0 0 512 512" height="512" viewBox="0 0 512 512" width="512" xmlns="http://www.w3.org/2000/svg"><g><g><path d="m502.148 326.554c6.413-22.413 9.852-46.081 9.852-70.554 0-141.385-114.615-256-256-256s-256 114.615-256 256 114.615 256 256 256c33.088 0 64.71-6.279 93.74-17.708z" fill="#4d4d79"/></g><g><path d="m470.471 187.819h-47.291v-82.393c-40.185-44.588-97.948-73.015-162.375-74.366l-110.852 37.94-97.953 167 98.44 218.734c31.482 16.757 67.408 26.266 105.56 26.266 124.264 0 225-100.736 225-225 0-23.77-3.697-46.673-10.529-68.181z" fill="#e3fffd"/></g><g><path d="m173.293 206.75c0 8.284-6.716 15-15 15h-17.212c-8.284 0-15 6.716-15 15 0 8.284 6.716 15 15 15h119.913c8.284 0 15-6.716 15-15 0-8.284 6.716-15 15-15h17.212c8.284 0 15-6.716 15-15 0-8.284-6.716-15-15-15h-119.913c-8.285 0-15 6.716-15 15z" fill="#afefea"/></g><g><path d="m225 161.75h-120c-8.284 0-15-6.716-15-15 0-8.284 6.716-15 15-15h120c8.284 0 15 6.716 15 15 0 8.284-6.716 15-15 15z" fill="#afefea"/></g><g><path d="m336.081 429.659h-120c-8.284 0-15-6.716-15-15 0-8.284 6.716-15 15-15h120c8.284 0 15 6.716 15 15 0 8.284-6.716 15-15 15z" fill="#afefea"/></g><g><path d="m446.937 267.716c-2.533-6.333-10.449-12.992-10.449-18.845s12.033-6.803 13.932-11.236c1.426-3.327 13.911-34.48 20.051-49.815-9.811-30.888-26.105-58.885-47.291-82.393-.182-.018-23.314-2.374-35.614-4.266-12.349-1.9-37.997-26.598-46.547-26.123s-27.548 9.974-27.548 18.049 1.425 15.674-4.275 19.474-31.348 1.9-37.048 10.449-6.65 25.173 0 31.348 20.899 6.175 27.548-4.275c6.65-10.449 17.574-15.674 29.923-14.249s16.598 18.074 20.873 28.049 14.724 18.524 28.023 18.999 18.999 10.449 16.149 15.674-14.012 5.7-21.611 1.425-11.874-4.275-15.199-2.85-10.449 6.175-17.099-.475-14.249-21.611-23.986-21.611-44.647 7.6-51.772 11.637-30.715 42.405-30.715 59.82 29.29 47.022 38.789 48.447 25.452-1.387 37.523 9.499c12.071 10.887 23.673 17.85 21.298 29.249s-.317 23.748 3.166 30.873 19.94 36.098 39.273 36.098 24.531-19.474 28.331-36.573 18.15-59.172 26.699-68.197c8.552-9.025 20.11-21.849 17.576-28.182z" fill="#acf143"/></g><g><g><path d="m430.58 229.128c-19.444 0-35.207-15.763-35.207-35.207l-.186-.052c.368 1.713.204 3.353-.522 4.684-2.85 5.225-14.012 5.7-21.611 1.425s-11.874-4.275-15.199-2.85-10.449 6.175-17.099-.475-14.249-21.611-23.986-21.611-44.647 7.599-51.772 11.637c-7.125 4.037-30.715 42.405-30.715 59.82 0 17.416 29.29 47.022 38.789 48.447s25.452-1.387 37.523 9.499c12.071 10.887 23.673 17.85 21.298 29.249s-.317 23.748 3.167 30.873c3.483 7.125 19.94 36.098 39.273 36.098s24.531-19.474 28.331-36.573 18.15-59.172 26.699-68.197 20.107-21.849 17.574-28.181c-2.533-6.333-10.449-12.992-10.449-18.845s12.033-6.803 13.932-11.236c.832-1.941 5.426-13.348 10.328-25.56-6.161 10.22-17.365 17.055-30.168 17.055z" fill="#8ddd16"/></g></g><g><path d="m31 256c0 86.112 48.383 160.913 119.44 198.734-3.215-13.758-8.936-40.338-6.849-47.061 2.85-9.183 41.031-19.632 52.114-36.414s7.772-44.334-2.216-56.046-112.727-44.713-112.727-85.811c0-15.596 41.797-62.063 48.447-69.979s37.364-14.566 42.747-20.582-1.451-29.131-7.783-35.781c-6.333-6.65-6.966-21.215-5.066-27.232 1.9-6.016 39.477-15.759 42.96-7.843s-6.65 32.298 1.267 37.681c7.916 5.383 44.592-5.456 60.266-12.106s21.849-20.424 21.374-28.498c-.351-5.972-16.026-24.667-24.168-34.002-1.599-.033-3.199-.06-4.806-.06-124.264 0-225 100.736-225 225z" fill="#acf143"/></g><g><path d="m502.148 326.554c-6.153-10.407-15.214-18.859-27.274-24.219-48.562-21.583-87.874 22.354-87.874 22.354s-39.312-43.937-87.874-22.354-48.562 93.27-5.396 141.061c20.756 22.98 40.076 39.705 56.01 50.895 73.542-28.952 130.444-90.968 152.408-167.737z" fill="#ff4155"/></g><g><g><path d="m333.73 443.397c-43.166-47.791-43.166-119.478 5.396-141.061 2.572-1.143 5.117-2.092 7.633-2.884-13.721-4.155-30.071-4.921-47.633 2.884-48.562 21.583-48.562 93.27-5.396 141.061 20.756 22.98 40.076 39.705 56.01 50.895 8.564-3.371 16.891-7.209 24.974-11.448-12.5-10.226-26.384-23.283-40.984-39.447z" fill="#e80054"/></g></g><g><path d="m153.269 4.294c-34.964-15.54-63.269 16.095-63.269 16.095s-28.305-31.635-63.269-16.095c-34.965 15.54-34.965 67.154-3.885 101.564 31.08 34.409 57.72 49.394 67.154 49.394 9.435 0 36.075-14.985 67.154-49.394 31.08-34.409 31.08-86.024-3.885-101.564z" fill="#ff4155"/></g><g><g><path d="m62.846 105.858c-31.08-34.41-31.08-86.024 3.885-101.564.005-.002.01-.004.015-.006-10.9-4.592-24.828-6.743-40.015.006-34.965 15.54-34.965 67.154-3.885 101.564 31.08 34.409 57.719 49.394 67.154 49.394 3.955 0 10.94-2.645 20-8.237-12.555-7.749-29.101-21.17-47.154-41.157z" fill="#e80054"/></g></g><g><path d="m80.762 229.402c0 13.741-11.14 24.881-24.881 24.881-11.453 0-21.092-7.741-23.987-18.273-.58 6.587-.894 13.252-.894 19.99 0 86.112 48.383 160.913 119.44 198.734-3.215-13.758-8.936-40.338-6.849-47.061 2.85-9.183 41.031-19.632 52.114-36.414s7.772-44.334-2.216-56.046-112.727-44.713-112.727-85.811z" fill="#8ddd16"/></g></g></svg>