<svg id="ei0v4hp5p6df1" xmlns="http://www.w3.org/2000/svg" xmlns:xlink="http://www.w3.org/1999/xlink" viewBox="0 0 512 512" shape-rendering="geometricPrecision" text-rendering="geometricPrecision"><style><![CDATA[#ei0v4hp5p6df8_to {animation: ei0v4hp5p6df8_to__to 3000ms linear 1 normal forwards}@keyframes ei0v4hp5p6df8_to__to { 0% {transform: translate(135.719494px,226px)} 66.666667% {transform: translate(382.189030px,226px)} 100% {transform: translate(382.189030px,226px)} }#ei0v4hp5p6df10_to {animation: ei0v4hp5p6df10_to__to 3000ms linear 1 normal forwards}@keyframes ei0v4hp5p6df10_to__to { 0% {transform: translate(130.082844px,155.252000px)} 66.666667% {transform: translate(376.552380px,155.252000px)} 100% {transform: translate(376.552380px,155.252000px)} }#ei0v4hp5p6df12_to {animation: ei0v4hp5p6df12_to__to 3000ms linear 1 normal forwards}@keyframes ei0v4hp5p6df12_to__to { 0% {transform: translate(152.396364px,385.664997px)} 66.666667% {transform: translate(398.865900px,385.664997px)} 100% {transform: translate(398.865900px,385.664997px)} }#ei0v4hp5p6df26_ts {animation: ei0v4hp5p6df26_ts__ts 3000ms linear 1 normal forwards}@keyframes ei0v4hp5p6df26_ts__ts { 0% {transform: translate(89.999996px,77.625883px) scale(1,1)} 16.666667% {transform: translate(89.999996px,77.625883px) scale(0.500000,0.500000)} 33.333333% {transform: translate(89.999996px,77.625883px) scale(1,1)} 50% {transform: translate(89.999996px,77.625883px) scale(0.500000,0.500000)} 66.666667% {transform: translate(89.999996px,77.625883px) scale(1,1)} 83.333333% {transform: translate(89.999996px,77.625883px) scale(0.500000,0.500000)} 100% {transform: translate(89.999996px,77.625883px) scale(1,1)} }#ei0v4hp5p6df29_ts {animation: ei0v4hp5p6df29_ts__ts 3000ms linear 1 normal forwards}@keyframes ei0v4hp5p6df29_ts__ts { 0% {transform: translate(55.000095px,77.844424px) scale(1,1)} 16.666667% {transform: translate(55.000095px,77.844424px) scale(0.500000,0.500000)} 33.333333% {transform: translate(55.000095px,77.844424px) scale(1,1)} 50% {transform: translate(55.000095px,77.844424px) scale(0.500000,0.500000)} 66.666667% {transform: translate(55.000095px,77.844424px) scale(1,1)} 83.333333% {transform: translate(55.000095px,77.844424px) scale(0.500000,0.500000)} 100% {transform: translate(55.000095px,77.844424px) scale(1,1)} }]]></style><g id="ei0v4hp5p6df2"><g id="ei0v4hp5p6df3"><path id="ei0v4hp5p6df4" d="M502.148000,326.554000C508.561000,304.141000,512,280.473000,512,256C512,114.615000,397.385000,-0,256,-0C114.615000,-0,0,114.615000,0,256C0,397.385000,114.615000,512,256,512C289.088000,512,320.710000,505.721000,349.740000,494.292000Z" fill="rgb(77,77,121)" stroke="none" stroke-width="1"/></g><g id="ei0v4hp5p6df5"><path id="ei0v4hp5p6df6" d="M470.471000,187.819000L423.180000,187.819000L423.180000,105.426000C382.995000,60.838000,325.232000,32.411000,260.805000,31.060000L149.953000,69L52,236L150.440000,454.734000C181.922000,471.491000,217.848000,481,256,481C380.264000,481,481,380.264000,481,256C481,232.230000,477.303000,209.327000,470.471000,187.819000Z" fill="rgb(227,255,253)" stroke="none" stroke-width="1"/></g><g id="ei0v4hp5p6df7"><g id="ei0v4hp5p6df8_to" transform="translate(135.719494,226)"><path id="ei0v4hp5p6df8" d="M173.293000,206.750000C173.293000,215.034000,166.577000,221.750000,158.293000,221.750000L141.081000,221.750000C132.797000,221.750000,126.081000,228.466000,126.081000,236.750000C126.081000,245.034000,132.797000,251.750000,141.081000,251.750000L260.994000,251.750000C269.278000,251.750000,275.994000,245.034000,275.994000,236.750000C275.994000,228.466000,282.710000,221.750000,290.994000,221.750000L308.206000,221.750000C316.490000,221.750000,323.206000,215.034000,323.206000,206.750000C323.206000,198.466000,316.490000,191.750000,308.206000,191.750000L188.293000,191.750000C180.008000,191.750000,173.293000,198.466000,173.293000,206.750000Z" transform="translate(-224.643494,-221.750000)" fill="rgb(175,239,234)" stroke="none" stroke-width="1"/></g></g><g id="ei0v4hp5p6df9"><g id="ei0v4hp5p6df10_to" transform="translate(130.082844,155.252000)"><path id="ei0v4hp5p6df10" d="M225,161.750000L105,161.750000C96.716000,161.750000,90,155.034000,90,146.750000C90,138.466000,96.716000,131.750000,105,131.750000L225,131.750000C233.284000,131.750000,240,138.466000,240,146.750000C240,155.034000,233.284000,161.750000,225,161.750000Z" transform="translate(-165,-146.750000)" fill="rgb(175,239,234)" stroke="none" stroke-width="1"/></g></g><g id="ei0v4hp5p6df11"><g id="ei0v4hp5p6df12_to" transform="translate(152.396364,385.664997)"><path id="ei0v4hp5p6df12" d="M336.081000,429.659000L216.081000,429.659000C207.797000,429.659000,201.081000,422.943000,201.081000,414.659000C201.081000,406.375000,207.797000,399.659000,216.081000,399.659000L336.081000,399.659000C344.365000,399.659000,351.081000,406.375000,351.081000,414.659000C351.081000,422.943000,344.365000,429.659000,336.081000,429.659000Z" transform="translate(-276.080994,-414.658997)" fill="rgb(175,239,234)" stroke="none" stroke-width="1"/></g></g><g id="ei0v4hp5p6df13"><path id="ei0v4hp5p6df14" d="M446.937000,267.716000C444.404000,261.383000,436.488000,254.724000,436.488000,248.871000C436.488000,243.018000,448.521000,242.068000,450.420000,237.635000C451.846000,234.308000,464.331000,203.155000,470.471000,187.820000C460.660000,156.932000,444.366000,128.935000,423.180000,105.427000C422.998000,105.409000,399.866000,103.053000,387.566000,101.161000C375.217000,99.261000,349.569000,74.563000,341.019000,75.038000C332.469000,75.513000,313.471000,85.012000,313.471000,93.087000C313.471000,101.162000,314.896000,108.761000,309.196000,112.561000C303.496000,116.361000,277.848000,114.461000,272.148000,123.010000C266.448000,131.559000,265.498000,148.183000,272.148000,154.358000C278.798000,160.533000,293.047000,160.533000,299.696000,150.083000C306.346000,139.634000,317.270000,134.409000,329.619000,135.834000C341.968000,137.259000,346.217000,153.908000,350.492000,163.883000C354.767000,173.858000,365.216000,182.407000,378.515000,182.882000C391.814000,183.357000,397.514000,193.331000,394.664000,198.556000C391.814000,203.781000,380.652000,204.256000,373.053000,199.981000C365.454000,195.706000,361.179000,195.706000,357.854000,197.131000C354.529000,198.556000,347.405000,203.306000,340.755000,196.656000C334.105000,190.006000,326.506000,175.045000,316.769000,175.045000C307.032000,175.045000,272.122000,182.645000,264.997000,186.682000C257.872000,190.719000,234.282000,229.087000,234.282000,246.502000C234.282000,263.917000,263.572000,293.524000,273.071000,294.949000C282.570000,296.374000,298.523000,293.562000,310.594000,304.448000C322.665000,315.335000,334.267000,322.298000,331.892000,333.697000C329.517000,345.096000,331.575000,357.445000,335.058000,364.570000C338.541000,371.695000,354.998000,400.668000,374.331000,400.668000C393.664000,400.668000,398.862000,381.194000,402.662000,364.095000C406.462000,346.996000,420.812000,304.923000,429.361000,295.898000C437.913000,286.873000,449.471000,274.049000,446.937000,267.716000Z" fill="rgb(172,241,67)" stroke="none" stroke-width="1"/></g><g id="ei0v4hp5p6df15"><g id="ei0v4hp5p6df16"><path id="ei0v4hp5p6df17" d="M430.580000,229.128000C411.136000,229.128000,395.373000,213.365000,395.373000,193.921000L395.187000,193.869000C395.555000,195.582000,395.391000,197.222000,394.665000,198.553000C391.815000,203.778000,380.653000,204.253000,373.054000,199.978000C365.455000,195.703000,361.180000,195.703000,357.855000,197.128000C354.530000,198.553000,347.406000,203.303000,340.756000,196.653000C334.106000,190.003000,326.507000,175.042000,316.770000,175.042000C307.033000,175.042000,272.123000,182.641000,264.998000,186.679000C257.873000,190.716000,234.283000,229.084000,234.283000,246.499000C234.283000,263.915000,263.573000,293.521000,273.072000,294.946000C282.571000,296.371000,298.524000,293.559000,310.595000,304.445000C322.666000,315.332000,334.268000,322.295000,331.893000,333.694000C329.518000,345.093000,331.576000,357.442000,335.060000,364.567000C338.543000,371.692000,355,400.665000,374.333000,400.665000C393.666000,400.665000,398.864000,381.191000,402.664000,364.092000C406.464000,346.993000,420.814000,304.920000,429.363000,295.895000C437.912000,286.870000,449.470000,274.046000,446.937000,267.714000C444.404000,261.381000,436.488000,254.722000,436.488000,248.869000C436.488000,243.016000,448.521000,242.066000,450.420000,237.633000C451.252000,235.692000,455.846000,224.285000,460.748000,212.073000C454.587000,222.293000,443.383000,229.128000,430.580000,229.128000Z" transform="matrix(1 0 0 1 -0.00099999999998 0.00000000000023)" fill="rgb(141,221,22)" stroke="none" stroke-width="1"/></g></g><g id="ei0v4hp5p6df18"><path id="ei0v4hp5p6df19" d="M31,256C31,342.112000,79.383000,416.913000,150.440000,454.734000C147.225000,440.976000,141.504000,414.396000,143.591000,407.673000C146.441000,398.490000,184.622000,388.041000,195.705000,371.259000C206.788000,354.477000,203.477000,326.925000,193.489000,315.213000C183.501000,303.501000,80.762000,270.500000,80.762000,229.402000C80.762000,213.806000,122.559000,167.339000,129.209000,159.423000C135.859000,151.507000,166.573000,144.857000,171.956000,138.841000C177.339000,132.825000,170.505000,109.710000,164.173000,103.060000C157.840000,96.410000,157.207000,81.845000,159.107000,75.828000C161.007000,69.812000,198.584000,60.069000,202.067000,67.985000C205.550000,75.901000,195.417000,100.283000,203.334000,105.666000C211.250000,111.049000,247.926000,100.210000,263.600000,93.560000C279.274000,86.910000,285.449000,73.136000,284.974000,65.062000C284.623000,59.090000,268.948000,40.395000,260.806000,31.060000C259.207000,31.027000,257.607000,31,256,31C131.736000,31,31,131.736000,31,256Z" fill="rgb(172,241,67)" stroke="none" stroke-width="1"/></g><g id="ei0v4hp5p6df20"><path id="ei0v4hp5p6df21" d="M502.148000,326.554000C495.995000,316.147000,486.934000,307.695000,474.874000,302.335000C426.312000,280.752000,387,324.689000,387,324.689000C387,324.689000,347.688000,280.752000,299.126000,302.335000C250.564000,323.918000,250.564000,395.605000,293.730000,443.396000C314.486000,466.376000,333.806000,483.101000,349.740000,494.291000C423.282000,465.339000,480.184000,403.323000,502.148000,326.554000Z" fill="rgb(255,65,85)" stroke="none" stroke-width="1"/></g><g id="ei0v4hp5p6df22"><g id="ei0v4hp5p6df23"><path id="ei0v4hp5p6df24" d="M333.730000,443.397000C290.564000,395.606000,290.564000,323.919000,339.126000,302.336000C341.698000,301.193000,344.243000,300.244000,346.759000,299.452000C333.038000,295.297000,316.688000,294.531000,299.126000,302.336000C250.564000,323.919000,250.564000,395.606000,293.730000,443.397000C314.486000,466.377000,333.806000,483.102000,349.740000,494.292000C358.304000,490.921000,366.631000,487.083000,374.714000,482.844000C362.214000,472.618000,348.330000,459.561000,333.730000,443.397000Z" fill="rgb(232,0,84)" stroke="none" stroke-width="1"/></g></g><g id="ei0v4hp5p6df25"><g id="ei0v4hp5p6df26_ts" transform="translate(89.999996,77.625883) scale(1,1)"><path id="ei0v4hp5p6df26" d="M153.269000,4.294000C118.305000,-11.246000,90,20.389000,90,20.389000C90,20.389000,61.695000,-11.246000,26.731000,4.294000C-8.234000,19.834000,-8.234000,71.448000,22.846000,105.858000C53.926000,140.267000,80.566000,155.252000,90,155.252000C99.435000,155.252000,126.075000,140.267000,157.154000,105.858000C188.234000,71.449000,188.234000,19.834000,153.269000,4.294000Z" transform="translate(-89.999996,-77.625883)" fill="rgb(255,65,85)" stroke="none" stroke-width="1"/></g></g><g id="ei0v4hp5p6df27"><g id="ei0v4hp5p6df28"><g id="ei0v4hp5p6df29_ts" transform="translate(55.000095,77.844424) scale(1,1)"><path id="ei0v4hp5p6df29" d="M62.846000,105.858000C31.766000,71.448000,31.766000,19.834000,66.731000,4.294000C66.736000,4.292000,66.741000,4.290000,66.746000,4.288000C55.846000,-0.304000,41.918000,-2.455000,26.731000,4.294000C-8.234000,19.834000,-8.234000,71.448000,22.846000,105.858000C53.926000,140.267000,80.565000,155.252000,90,155.252000C93.955000,155.252000,100.940000,152.607000,110,147.015000C97.445000,139.266000,80.899000,125.845000,62.846000,105.858000Z" transform="translate(-55.000095,-77.626372)" fill="rgb(232,0,84)" stroke="none" stroke-width="1"/></g></g></g><g id="ei0v4hp5p6df30"><path id="ei0v4hp5p6df31" d="M80.762000,229.402000C80.762000,243.143000,69.622000,254.283000,55.881000,254.283000C44.428000,254.283000,34.789000,246.542000,31.894000,236.010000C31.314000,242.597000,31,249.262000,31,256C31,342.112000,79.383000,416.913000,150.440000,454.734000C147.225000,440.976000,141.504000,414.396000,143.591000,407.673000C146.441000,398.490000,184.622000,388.041000,195.705000,371.259000C206.788000,354.477000,203.477000,326.925000,193.489000,315.213000C183.501000,303.501000,80.762000,270.500000,80.762000,229.402000Z" fill="rgb(141,221,22)" stroke="none" stroke-width="1"/></g></g></svg>