<svg id="eet56c6eba7i1" xmlns="http://www.w3.org/2000/svg" xmlns:xlink="http://www.w3.org/1999/xlink" viewBox="0 0 511.999000 511.999000" shape-rendering="geometricPrecision" text-rendering="geometricPrecision"><style><![CDATA[#eet56c6eba7i2_to {animation: eet56c6eba7i2_to__to 3000ms linear 1 normal forwards}@keyframes eet56c6eba7i2_to__to { 0% {transform: translate(-238.371588px,391.106720px)} 100% {transform: translate(259.308328px,391.106720px)} }#eet56c6eba7i3_to {animation: eet56c6eba7i3_to__to 3000ms linear 1 normal forwards}@keyframes eet56c6eba7i3_to__to { 0% {transform: translate(-345.863578px,268.673004px)} 100% {transform: translate(151.816339px,268.673004px)} }#eet56c6eba7i5_to {animation: eet56c6eba7i5_to__to 3000ms linear 1 normal forwards}@keyframes eet56c6eba7i5_to__to { 0% {transform: translate(-390.492572px,211.681396px)} 100% {transform: translate(107.187345px,211.681396px)} }#eet56c6eba7i6_to {animation: eet56c6eba7i6_to__to 3000ms linear 1 normal forwards}@keyframes eet56c6eba7i6_to__to { 0% {transform: translate(-301.225577px,211.681404px)} 100% {transform: translate(196.454340px,211.681404px)} }#eet56c6eba7i7_to {animation: eet56c6eba7i7_to__to 3000ms linear 1 normal forwards}@keyframes eet56c6eba7i7_to__to { 0% {transform: translate(-345.862578px,420.847488px)} 100% {transform: translate(151.817339px,420.847488px)} }#eet56c6eba7i9_to {animation: eet56c6eba7i9_to__to 3000ms linear 1 normal forwards}@keyframes eet56c6eba7i9_to__to { 0% {transform: translate(-407.734976px,476.897980px)} 100% {transform: translate(89.944940px,476.897980px)} }#eet56c6eba7i10_to {animation: eet56c6eba7i10_to__to 3000ms linear 1 normal forwards}@keyframes eet56c6eba7i10_to__to { 0% {transform: translate(-345.860076px,384.900482px)} 100% {transform: translate(151.819841px,384.900482px)} }#eet56c6eba7i11_to {animation: eet56c6eba7i11_to__to 3000ms linear 1 normal forwards}@keyframes eet56c6eba7i11_to__to { 0% {transform: translate(-163.667586px,180.815018px)} 100% {transform: translate(334.012331px,180.815018px)} }#eet56c6eba7i12_to {animation: eet56c6eba7i12_to__to 3000ms linear 1 normal forwards}@keyframes eet56c6eba7i12_to__to { 0% {transform: translate(-153.605384px,260.510361px)} 100% {transform: translate(344.074533px,260.510361px)} }#eet56c6eba7i13_to {animation: eet56c6eba7i13_to__to 3000ms linear 1 normal forwards}@keyframes eet56c6eba7i13_to__to { 0% {transform: translate(-202.307578px,160.310493px)} 100% {transform: translate(295.372339px,160.310493px)} }#eet56c6eba7i14_to {animation: eet56c6eba7i14_to__to 3000ms linear 1 normal forwards}@keyframes eet56c6eba7i14_to__to { 0% {transform: translate(-382.006365px,273.280731px)} 100% {transform: translate(115.673551px,273.280731px)} }#eet56c6eba7i15_to {animation: eet56c6eba7i15_to__to 3000ms linear 1 normal forwards}@keyframes eet56c6eba7i15_to__to { 0% {transform: translate(-309.662200px,273.282715px)} 100% {transform: translate(188.017717px,273.282715px)} }#eet56c6eba7i16_to {animation: eet56c6eba7i16_to__to 3000ms linear 1 normal forwards}@keyframes eet56c6eba7i16_to__to { 0% {transform: translate(-345.859076px,311.905289px)} 100% {transform: translate(151.820841px,311.905289px)} }#eet56c6eba7i17_to {animation: eet56c6eba7i17_to__to 3000ms linear 1 normal forwards}@keyframes eet56c6eba7i17_to__to { 0% {transform: translate(-241.680697px,255.998505px)} 100% {transform: translate(255.999220px,255.998505px)} }#eet56c6eba7i18_to {animation: eet56c6eba7i18_to__to 3000ms linear 1 normal forwards}@keyframes eet56c6eba7i18_to__to { 0% {transform: translate(-245.597823px,147.915298px)} 100% {transform: translate(252.082094px,147.915298px)} }#eet56c6eba7i19_to {animation: eet56c6eba7i19_to__to 3000ms linear 1 normal forwards}@keyframes eet56c6eba7i19_to__to { 0% {transform: translate(-201.161078px,217.845306px)} 100% {transform: translate(296.518839px,217.845306px)} }]]></style><g id="eet56c6eba7i2_to" transform="translate(-238.371588,391.106720)"><path id="eet56c6eba7i2" d="M399.538000,341.687000C399.404000,342.946000,391.236000,419.043000,316.477000,466.445000C274.779000,492.888000,212.367000,510.416000,119.076000,501.044000L119.076000,501.033000L121.371000,463.013000C121.371000,463.013000,133.573000,461.765000,151.836000,458.299000L151.847000,458.299000C168.863000,455.067000,191.149000,449.908000,213.725000,442.019000C218.416000,440.392000,223.119000,438.643000,227.788000,436.759000L227.788000,436.581000C227.788000,428.948000,226.663000,421.582000,224.568000,414.629000C264.884000,374.313000,248.815000,334.187000,292.151000,291.007000C296.263000,286.906000,300.921000,282.772000,306.202000,278.616000L306.391000,278.616000L306.391000,296.311000C306.391000,296.311000,362.809000,307.387000,381.061000,289.146000C377.963000,312.647000,368.102000,334.922000,352.479000,353.141000C352.479000,353.141000,353.994000,353.308000,356.658000,353.308000C364.382000,353.308000,381.665000,351.984000,399.538000,341.687000Z" transform="translate(-259.306992,-391.106720)" fill="rgb(244,192,99)" stroke="none" stroke-width="1"/></g><g id="eet56c6eba7i3_to" transform="translate(-345.863578,268.673004)"><circle id="eet56c6eba7i3" r="91.931000" transform="translate(0,0)" fill="rgb(249,220,164)" stroke="none" stroke-width="1"/></g><g id="eet56c6eba7i4"><g id="eet56c6eba7i5_to" transform="translate(-390.492572,211.681396)"><path id="eet56c6eba7i5" d="M151.820000,176.732000C151.820000,248.976000,62.552000,246.622000,62.552000,246.622000C72.417000,206.494000,108.650000,176.732000,151.820000,176.732000Z" transform="translate(-107.186008,-211.681396)" fill="rgb(244,192,99)" stroke="none" stroke-width="1"/></g><g id="eet56c6eba7i6_to" transform="translate(-301.225577,211.681404)"><path id="eet56c6eba7i6" d="M241.087000,246.622000C241.087000,246.622000,151.819000,248.977000,151.819000,176.732000C194.988000,176.732000,231.222000,206.494000,241.087000,246.622000Z" transform="translate(-196.453003,-211.681404)" fill="rgb(244,192,99)" stroke="none" stroke-width="1"/></g></g><g id="eet56c6eba7i7_to" transform="translate(-345.862578,420.847488)"><path id="eet56c6eba7i7" d="M75.844000,481.080000L75.844000,436.581000C75.844000,415.603000,84.344000,396.608000,98.097000,382.868000C111.838000,369.114000,130.832000,360.615000,151.822000,360.615000C193.777000,360.615000,227.788000,394.626000,227.788000,436.581000L227.788000,436.745000" transform="translate(-151.816002,-420.847488)" fill="rgb(236,88,155)" stroke="none" stroke-width="1"/></g><g id="eet56c6eba7i8"><g id="eet56c6eba7i9_to" transform="translate(-407.734976,476.897980)"><path id="eet56c6eba7i9" d="M121.375000,463.014000L119.080000,501.034000L119.080000,501.045000C105.073000,499.641000,90.375000,497.635000,74.942000,494.950000C74.797000,494.928000,74.641000,494.894000,74.496000,494.872000C58.060000,492.008000,52.789000,471.003000,65.871000,460.651000L75.844000,452.751000L75.855000,452.751000C105.206000,464.228000,121.375000,463.014000,121.375000,463.014000Z" transform="translate(-89.943604,-476.897980)" fill="rgb(249,220,164)" stroke="none" stroke-width="1"/></g></g><g id="eet56c6eba7i10_to" transform="translate(-345.860076,384.900482)"><path id="eet56c6eba7i10" d="M205.548000,382.879000C193.106000,398.882000,173.672000,409.192000,151.828000,409.192000C129.965000,409.192000,110.514000,398.881000,98.089000,382.861000C111.830000,369.120000,130.817000,360.609000,151.809000,360.609000C172.801000,360.609000,191.807000,369.119000,205.548000,382.879000Z" transform="translate(-151.818504,-384.900482)" fill="rgb(231,192,128)" stroke="none" stroke-width="1"/></g><g id="eet56c6eba7i11_to" transform="translate(-163.667586,180.815018)"><path id="eet56c6eba7i11" d="M453.341000,212.938000C453.341000,262.761000,442.303000,294.967000,427.513000,315.755000C427.513000,315.755000,427.513000,315.755000,427.513000,315.768000C403.063000,350.146000,368.382000,353.290000,356.484000,353.290000C353.819000,353.290000,352.303000,353.125000,352.303000,353.125000C367.926000,334.902000,377.790000,312.635000,380.884000,289.131000C381.819000,282.122000,382.134000,274.998000,381.831000,267.851000C381.137000,251.395000,379.810000,235.747000,377.360000,221.387000C370.237000,179.684000,353.516000,148.717000,314.415000,139.687000C303.466000,137.161000,293.349000,133.360000,284.105000,128.801000C271.134000,122.397000,259.869000,114.466000,250.385000,106.371000C230.583000,89.510000,218.483000,71.943000,214.681000,66.007000C221.008000,33.158000,249.930000,8.340000,284.623000,8.340000L311.890000,8.340000C316.639000,8.340000,321.236000,8.529000,325.682000,8.896000C325.744000,8.896000,325.808000,8.896000,325.859000,8.908000C427.855000,17.308000,453.341000,118.596000,453.341000,212.938000Z" transform="translate(-334.010994,-180.815018)" fill="rgb(77,77,77)" stroke="none" stroke-width="1"/></g><g id="eet56c6eba7i12_to" transform="translate(-153.605384,260.510361)"><path id="eet56c6eba7i12" d="M381.830000,267.853000C382.133000,275.001000,381.818000,282.124000,380.883000,289.134000L380.871000,289.134000C362.634000,307.383000,306.205000,296.295000,306.205000,296.295000L306.205000,278.613000L306.205000,254.617000C334.786000,254.617000,360.335000,241.697000,377.359000,221.389000C379.808000,235.748000,381.134000,251.397000,381.830000,267.853000Z" transform="translate(-344.073196,-260.510361)" fill="rgb(231,192,128)" stroke="none" stroke-width="1"/></g><g id="eet56c6eba7i13_to" transform="translate(-202.307578,160.310493)"><path id="eet56c6eba7i13" d="M377.362000,221.388000C369.077000,231.264000,358.772000,239.398000,347.089000,245.131000C334.762000,251.206000,320.883000,254.615000,306.207000,254.615000C299.438000,254.615000,292.833000,253.895000,286.467000,252.506000C244.688000,243.463000,213.380000,206.282000,213.380000,161.789000L213.380000,79.583000C213.380000,74.935000,213.822000,70.401000,214.680000,66.006000C218.482000,71.942000,230.580000,89.509000,250.384000,106.370000C259.869000,114.465000,271.135000,122.397000,284.104000,128.800000C293.348000,133.359000,303.465000,137.161000,314.414000,139.686000C314.490000,139.699000,314.553000,139.724000,314.629000,139.736000C353.581000,148.831000,370.252000,179.761000,377.362000,221.388000Z" transform="translate(-295.371002,-160.310493)" fill="rgb(249,220,164)" stroke="none" stroke-width="1"/></g><g id="eet56c6eba7i14_to" transform="translate(-382.006365,273.280731)"><path id="eet56c6eba7i14" d="M110.517000,266.665000C107.592000,268.937000,106.519000,273.032000,107.942000,276.450000C109.228000,279.538000,112.317000,281.609000,115.664000,281.609000C119.761000,281.609000,123.308000,278.513000,123.928000,274.481000C125.053000,267.142000,116.308000,262.167000,110.517000,266.665000Z" transform="translate(-115.672215,-273.280731)" fill="rgb(0,0,0)" stroke="none" stroke-width="1"/></g><g id="eet56c6eba7i15_to" transform="translate(-309.662200,273.282715)"><path id="eet56c6eba7i15" d="M187.983000,281.608000C192.078000,281.608000,195.627000,278.517000,196.246000,274.480000C197.419000,266.825000,187.950000,261.903000,182.304000,267.117000C176.820000,272.182000,180.551000,281.608000,187.983000,281.608000Z" transform="translate(-188.016380,-273.282715)" fill="rgb(0,0,0)" stroke="none" stroke-width="1"/></g><g id="eet56c6eba7i16_to" transform="translate(-345.859076,311.905289)"><path id="eet56c6eba7i16" d="M176.638000,302.080000C173.375000,298.815000,168.083000,298.816000,164.820000,302.080000C161.348000,305.552000,156.731000,307.465000,151.819000,307.465000C146.908000,307.465000,142.292000,305.553000,138.819000,302.080000C135.555000,298.816000,130.263000,298.815000,127.001000,302.080000C123.736000,305.344000,123.736000,310.635000,127,313.898000C133.629000,320.528000,142.444000,324.179000,151.819000,324.179000C161.195000,324.179000,170.010000,320.529000,176.639000,313.898000C179.903000,310.636000,179.903000,305.344000,176.638000,302.080000Z" transform="translate(-151.819504,-311.905289)" fill="rgb(0,0,0)" stroke="none" stroke-width="1"/></g><g id="eet56c6eba7i17_to" transform="translate(-241.680697,255.998505)"><path id="eet56c6eba7i17" d="M450.136000,113.826000C440.650000,79.345000,425.397000,52.238000,404.799000,33.257000C401.406000,30.130000,396.118000,30.345000,392.990000,33.739000C389.862000,37.133000,390.078000,42.421000,393.474000,45.548000C436.191000,84.912000,445.158000,158.309000,445.158000,212.950000C445.158000,266.576000,432.263000,304.729000,406.830000,326.350000C394.005000,337.254000,380.258000,341.838000,369.869000,343.712000C384.313000,321.122000,391.512000,294.651000,390.356000,267.512000C389.577000,249.045000,388.078000,233.502000,385.774000,219.993000C381.687000,196.065000,374.852000,177.578000,364.878000,163.473000C353.250000,147.028000,336.963000,136.289000,316.470000,131.557000C265.247000,119.735000,233.188000,78.137000,223.788000,64.366000C230.683000,36.564000,255.824000,16.715000,284.802000,16.715000L316.401000,16.715000C319.179000,16.715000,321.945000,16.870000,324.626000,17.175000C324.769000,17.196000,324.914000,17.214000,325.059000,17.227000L325.241000,17.245000C325.362000,17.256000,325.485000,17.266000,325.607000,17.272000C344.012000,18.820000,360.505000,23.689000,374.634000,31.748000C378.644000,34.033000,383.748000,32.638000,386.033000,28.629000C388.321000,24.620000,386.923000,19.515000,382.914000,17.228000C366.639000,7.946000,347.805000,2.355000,326.933000,0.609000C326.824000,0.597000,326.722000,0.587000,326.627000,0.579000C323.284000,0.195000,319.846000,0,316.401000,0L284.802000,0C246.817000,0,214.035000,26.954000,206.723000,64.113000C206.703000,64.199000,206.685000,64.285000,206.667000,64.370000C206.664000,64.387000,206.659000,64.403000,206.656000,64.420000C205.691000,69.364000,205.201000,74.471000,205.201000,79.599000L205.201000,161.804000C205.201000,170.022000,206.193000,178.012000,208.051000,185.668000C192.003000,174.761000,172.643000,168.381000,151.819000,168.381000C131.721000,168.381000,112.329000,174.306000,95.738000,185.514000C91.913000,188.098000,90.907000,193.293000,93.490000,197.118000C96.073000,200.942000,101.267000,201.947000,105.093000,199.364000C116.446000,191.694000,129.378000,187.003000,142.921000,185.570000C141.355000,197.947000,136.388000,208.287000,128.091000,216.389000C112.463000,231.651000,88.368000,236.274000,74.222000,237.667000C77.613000,229.176000,82.381000,221.229000,88.429000,214.197000C91.439000,210.698000,91.043000,205.422000,87.544000,202.411000C84.045000,199.401000,78.769000,199.797000,75.758000,203.296000C60.130000,221.462000,51.523000,244.680000,51.523000,268.674000C51.523000,310.446000,77.196000,346.330000,113.590000,361.391000C105.782000,365.370000,98.558000,370.577000,92.187000,376.952000C76.256000,392.868000,67.483000,414.043000,67.483000,436.578000L67.483000,449.758000C65.401000,450.719000,60.672000,454.095000,60.672000,454.095000C51.986000,460.969000,48.283000,471.915000,51.009000,482.660000C53.727000,493.373000,62.172000,501.207000,73.041000,503.102000L73.502000,503.182000C107.373000,509.062000,138.981000,511.997000,168.263000,511.997000C236.831000,511.997000,292.639000,495.902000,334.844000,463.840000C391.584000,420.736000,404.649000,362.868000,407.267000,346.740000C410.747000,344.524000,414.227000,341.995000,417.652000,339.082000C446.991000,314.139000,461.868000,271.702000,461.868000,212.947000C461.872000,175.486000,457.923000,142.136000,450.136000,113.826000ZM248.900000,352.513000C243.860000,368.545000,239.044000,383.844000,227.269000,398.984000C219.185000,382.828000,206.067000,369.623000,189.980000,361.423000C226.409000,346.379000,252.114000,310.477000,252.114000,268.679000C252.114000,260.650000,251.160000,252.841000,249.369000,245.353000C263.452000,254.994000,280.083000,261.171000,298.028000,262.645000L298.028000,274.467000C264.900000,301.633000,256.767000,327.487000,248.900000,352.513000ZM193.741000,383.594000C182.641000,394.622000,167.751000,400.834000,151.827000,400.834000C135.880000,400.834000,120.972000,394.613000,109.868000,383.567000C121.759000,374.117000,136.386000,368.972000,151.822000,368.972000C167.648000,368.972000,182.209000,374.453000,193.741000,383.594000ZM314.742000,262.648000C335.756000,260.919000,355.554000,252.694000,371.554000,239.196000C372.510000,247.949000,373.205000,257.559000,373.656000,268.222000C373.894000,273.817000,373.722000,279.377000,373.159000,284.870000C366.663000,289.454000,354.134000,291.709000,337.342000,291.222000C328.481000,290.968000,320.226000,290,314.743000,289.208000L314.742000,262.648000L314.742000,262.648000ZM275.930000,133.865000L275.930000,181.057000C275.930000,185.672000,279.671000,189.414000,284.287000,189.414000L304.727000,189.414000C309.344000,189.414000,313.084000,185.672000,313.084000,181.057000C313.084000,176.442000,309.343000,172.700000,304.727000,172.700000L292.645000,172.700000L292.645000,141.593000C299.007000,144.087000,305.686000,146.224000,312.710000,147.845000C343.302000,154.910000,360.642000,176.897000,368.596000,218.921000C352.598000,236.350000,330.141000,246.276000,306.385000,246.276000C259.809000,246.276000,221.916000,208.384000,221.916000,161.807000L221.916000,89.328000C233.547000,103.032000,251.699000,120.833000,275.930000,133.865000ZM229.420000,237.692000C215.315000,236.323000,191.295000,231.729000,175.598000,216.441000C167.272000,208.332000,162.288000,197.978000,160.719000,185.578000C191.983000,188.901000,218.137000,209.540000,229.420000,237.692000ZM68.240000,268.678000C68.240000,264.009000,68.647000,259.379000,69.412000,254.826000C83.974000,254.074000,117.598000,249.946000,139.705000,228.415000C144.631000,223.617000,148.664000,218.266000,151.820000,212.398000C154.976000,218.266000,159.008000,223.617000,163.935000,228.415000C186.045000,249.949000,219.671000,254.074000,234.230000,254.826000C234.985000,259.335000,235.399000,263.958000,235.399000,268.678000C235.399000,314.764000,197.906000,352.257000,151.820000,352.257000C105.734000,352.257000,68.240000,314.763000,68.240000,268.678000ZM98.142000,395.476000C112.355000,409.597000,131.428000,417.549000,151.827000,417.549000C172.204000,417.549000,191.259000,409.606000,205.468000,395.501000C213.178000,405.545000,218.125000,417.803000,219.193000,431.145000C172.701000,448.717000,124.172000,454.297000,120.706000,454.677000C119.528000,454.717000,108.310000,454.927000,88.815000,448.539000C87.294000,448.041000,85.751000,447.684000,84.200000,447.443000L84.200000,436.583000C84.200000,421.514000,89.107000,407.214000,98.142000,395.476000ZM75.922000,486.639000C71.561000,485.879000,68.306000,482.856000,67.215000,478.552000C66.115000,474.216000,67.548000,469.974000,71.048000,467.203000L71.946000,466.493000C75.243000,463.882000,79.601000,463.108000,83.612000,464.420000C96.314000,468.582000,106.022000,470.301000,112.516000,470.984000L111.258000,491.784000C99.925000,490.462000,88.308000,488.789000,76.369000,486.716000L75.922000,486.639000ZM324.466000,450.741000C277.386000,486.364000,211.405000,500.664000,127.900000,493.479000L129.293000,470.462000C142.424000,468.698000,172.097000,463.972000,204.526000,453.862000C263.210000,435.564000,300.503000,409.441000,315.367000,376.219000C317.252000,372.006000,315.365000,367.063000,311.153000,365.177000C306.941000,363.295000,301.996000,365.178000,300.111000,369.392000C289.149000,393.891000,263.684000,411.711000,235.272000,424.517000C234.908000,421.986000,234.423000,419.496000,233.839000,417.042000C252.440000,396.972000,258.746000,376.936000,264.848000,357.524000C271.304000,336.986000,277.464000,317.407000,298.057000,296.911000C298.327000,300.643000,301.058000,303.775000,304.776000,304.506000C307.935000,305.127000,323.699000,308.038000,341.181000,308.038000C350.645000,308.038000,360.608000,307.180000,369.349000,304.648000C364.857000,320.341000,357.011000,335.018000,346.138000,347.698000C344.118000,350.053000,343.570000,353.332000,344.713000,356.216000C345.854000,359.100000,348.501000,361.113000,351.584000,361.447000C351.913000,361.483000,353.697000,361.659000,356.663000,361.659000C362.765000,361.659000,374.533000,360.891000,388.073000,356.096000C382.214000,378,366.200000,419.160000,324.466000,450.741000Z" transform="translate(-255.997883,-255.998505)" fill="rgb(0,0,0)" stroke="none" stroke-width="1"/></g><g id="eet56c6eba7i18_to" transform="translate(-245.597823,147.915298)"><path id="eet56c6eba7i18" d="M244.377000,155.606000L258.269000,156.869000C258.525000,156.892000,258.782000,156.904000,259.036000,156.904000C263.309000,156.904000,266.954000,153.641000,267.349000,149.303000C267.767000,144.706000,264.379000,140.641000,259.783000,140.224000L245.891000,138.961000C241.309000,138.546000,237.229000,141.931000,236.813000,146.527000C236.392000,151.123000,239.780000,155.188000,244.377000,155.606000Z" transform="translate(-252.080757,-147.915298)" fill="rgb(0,0,0)" stroke="none" stroke-width="1"/></g><g id="eet56c6eba7i19_to" transform="translate(-201.161078,217.845306)"><path id="eet56c6eba7i19" d="M296.517000,230.119000C305.893000,230.119000,314.708000,226.469000,321.337000,219.838000C324.601000,216.574000,324.601000,211.282000,321.336000,208.020000C318.073000,204.755000,312.781000,204.756000,309.518000,208.020000C306.046000,211.492000,301.429000,213.405000,296.517000,213.405000C291.606000,213.405000,286.990000,211.493000,283.517000,208.020000C280.253000,204.756000,274.961000,204.755000,271.699000,208.020000C268.434000,211.284000,268.434000,216.575000,271.698000,219.838000C278.326000,226.467000,287.141000,230.119000,296.517000,230.119000Z" transform="translate(-296.517502,-217.845306)" fill="rgb(0,0,0)" stroke="none" stroke-width="1"/></g></svg>