<svg id="eb7zpa3jqs2g1" xmlns="http://www.w3.org/2000/svg" xmlns:xlink="http://www.w3.org/1999/xlink" viewBox="-46 0 512 512.000550" shape-rendering="geometricPrecision" text-rendering="geometricPrecision"><style><![CDATA[#eb7zpa3jqs2g3_to {animation: eb7zpa3jqs2g3_to__to 3000ms linear 1 normal forwards}@keyframes eb7zpa3jqs2g3_to__to { 0% {transform: translate(671.780722px,69.979300px)} 33.333333% {transform: translate(671.780722px,69.979300px)} 50% {transform: translate(128.526371px,69.979300px)} 100% {transform: translate(128.526371px,69.979300px)} }#eb7zpa3jqs2g4_to {animation: eb7zpa3jqs2g4_to__to 3000ms linear 1 normal forwards}@keyframes eb7zpa3jqs2g4_to__to { 0% {transform: translate(753.256159px,99.976563px)} 33.333333% {transform: translate(753.256159px,99.976563px)} 50% {transform: translate(210.001808px,99.976563px)} 100% {transform: translate(210.001808px,99.976563px)} }#eb7zpa3jqs2g5_to {animation: eb7zpa3jqs2g5_to__to 3000ms linear 1 normal forwards}@keyframes eb7zpa3jqs2g5_to__to { 0% {transform: translate(834.727824px,69.977347px)} 33.333333% {transform: translate(834.727824px,69.977347px)} 50% {transform: translate(291.473473px,69.977347px)} 100% {transform: translate(291.473473px,69.977347px)} }#eb7zpa3jqs2g6_to {animation: eb7zpa3jqs2g6_to__to 3000ms linear 1 normal forwards}@keyframes eb7zpa3jqs2g6_to__to { 0% {transform: translate(871.256159px,169.974609px)} 16.666667% {transform: translate(871.256159px,169.974609px)} 33.333333% {transform: translate(328.001953px,169.974609px)} 100% {transform: translate(328.001953px,169.974609px)} }#eb7zpa3jqs2g7_to {animation: eb7zpa3jqs2g7_to__to 3000ms linear 1 normal forwards}@keyframes eb7zpa3jqs2g7_to__to { 0% {transform: translate(750.037409px,169.974609px)} 16.666667% {transform: translate(750.037409px,169.974609px)} 33.333333% {transform: translate(206.783203px,169.974609px)} 100% {transform: translate(206.783203px,169.974609px)} }#eb7zpa3jqs2g8_to {animation: eb7zpa3jqs2g8_to__to 3000ms linear 1 normal forwards}@keyframes eb7zpa3jqs2g8_to__to { 0% {transform: translate(635.254206px,169.974609px)} 16.666667% {transform: translate(635.254206px,169.974609px)} 33.333333% {transform: translate(92px,169.974609px)} 100% {transform: translate(92px,169.974609px)} }#eb7zpa3jqs2g9_to {animation: eb7zpa3jqs2g9_to__to 3000ms linear 1 normal forwards}@keyframes eb7zpa3jqs2g9_to__to { 0% {transform: translate(753.254206px,355.988281px)} 16.666667% {transform: translate(753.254206px,355.988281px)} 33.333333% {transform: translate(210px,355.988281px)} 100% {transform: translate(210px,355.988281px)} }#eb7zpa3jqs2g10_to {animation: eb7zpa3jqs2g10_to__to 3000ms linear 1 normal forwards}@keyframes eb7zpa3jqs2g10_to__to { 0% {transform: translate(819.421022px,265.987955px)} 50% {transform: translate(819.421022px,265.987955px)} 66.666667% {transform: translate(210.001952px,265.987955px)} 100% {transform: translate(210.001952px,265.987955px)} }#eb7zpa3jqs2g11_to {animation: eb7zpa3jqs2g11_to__to 3000ms linear 1 normal forwards}@keyframes eb7zpa3jqs2g11_to__to { 0% {transform: translate(753.256159px,415.990234px)} 16.666667% {transform: translate(210.001953px,415.990234px)} 100% {transform: translate(210.001953px,415.990234px)} }#eb7zpa3jqs2g12_to {animation: eb7zpa3jqs2g12_to__to 3000ms linear 1 normal forwards}@keyframes eb7zpa3jqs2g12_to__to { 0% {transform: translate(843.260066px,415.990341px)} 16.666667% {transform: translate(300.005859px,415.990341px)} 100% {transform: translate(300.005859px,415.990341px)} }#eb7zpa3jqs2g13_to {animation: eb7zpa3jqs2g13_to__to 3000ms linear 1 normal forwards}@keyframes eb7zpa3jqs2g13_to__to { 0% {transform: translate(663.250300px,415.990341px)} 16.666667% {transform: translate(119.996094px,415.990341px)} 100% {transform: translate(119.996094px,415.990341px)} }#eb7zpa3jqs2g14_to {animation: eb7zpa3jqs2g14_to__to 3000ms linear 1 normal forwards}@keyframes eb7zpa3jqs2g14_to__to { 0% {transform: translate(743.254206px,295.984375px)} 16.666667% {transform: translate(200px,295.984375px)} 100% {transform: translate(200px,295.984375px)} }#eb7zpa3jqs2g15_to {animation: eb7zpa3jqs2g15_to__to 3000ms linear 1 normal forwards}@keyframes eb7zpa3jqs2g15_to__to { 0% {transform: translate(663.252253px,295.986328px)} 16.666667% {transform: translate(119.998047px,295.986328px)} 100% {transform: translate(119.998047px,295.986328px)} }#eb7zpa3jqs2g16_to {animation: eb7zpa3jqs2g16_to__to 3000ms linear 1 normal forwards}@keyframes eb7zpa3jqs2g16_to__to { 0% {transform: translate(808.256159px,275.990234px)} 16.666667% {transform: translate(265.001953px,275.990234px)} 100% {transform: translate(265.001953px,275.990234px)} }#eb7zpa3jqs2g17_to {animation: eb7zpa3jqs2g17_to__to 3000ms linear 1 normal forwards}@keyframes eb7zpa3jqs2g17_to__to { 0% {transform: translate(808.256159px,315.982422px)} 16.666667% {transform: translate(265.001953px,315.982422px)} 100% {transform: translate(265.001953px,315.982422px)} }#eb7zpa3jqs2g18_to {animation: eb7zpa3jqs2g18_to__to 3000ms linear 1 normal forwards}@keyframes eb7zpa3jqs2g18_to__to { 0% {transform: translate(653.246394px,169.972656px)} 16.666667% {transform: translate(653.246394px,169.972656px)} 33.333333% {transform: translate(109.992187px,169.972656px)} 100% {transform: translate(109.992187px,169.972656px)} }#eb7zpa3jqs2g19_to {animation: eb7zpa3jqs2g19_to__to 3000ms linear 1 normal forwards}@keyframes eb7zpa3jqs2g19_to__to { 0% {transform: translate(858.258113px,502px)} 16.666667% {transform: translate(858.258113px,502px)} 33.333333% {transform: translate(315.003906px,502px)} 100% {transform: translate(315.003906px,502px)} }]]></style><g id="eb7zpa3jqs2g2"><g id="eb7zpa3jqs2g3_to" transform="translate(671.780722,69.979300)"><path id="eb7zpa3jqs2g3" d="M74.093750,100.890625C81.167969,127.281250,130.976562,129.789062,167.574219,129.972656L184.007812,129.972656C178.511719,129.972656,174.011719,125.476562,174.011719,119.976562L174.011719,79.980469C174.011719,75.558594,176.921875,71.781250,180.921875,70.472656C174.597656,39.726562,156.593750,2.890625,125.898438,11.167969C109.511719,15.585938,99.675781,32.617188,104.042969,49.019531C105.792969,55.593750,101.835938,61.453125,95.949219,63.039062C79.562500,67.457031,69.726562,84.488281,74.093750,100.890625ZM74.093750,100.890625" transform="translate(-128.532375,-69.979300)" fill="rgb(255,105,119)" fill-rule="evenodd" stroke="none" stroke-width="1"/></g><g id="eb7zpa3jqs2g4_to" transform="translate(753.256159,99.976563)"><path id="eb7zpa3jqs2g4" d="M174.011719,119.976562C174.011719,125.476562,178.511719,129.972656,184.011719,129.972656L236.003906,129.972656C241.503906,129.972656,246.003906,125.476562,246.003906,119.976562L246.003906,79.980469C246.003906,75.558594,243.093750,71.781250,239.093750,70.472656C238.121094,70.152344,237.082031,69.980469,236.007812,69.980469L184.011719,69.980469C182.933594,69.980469,181.894531,70.152344,180.921875,70.472656C176.921875,71.781250,174.011719,75.558594,174.011719,79.980469ZM174.011719,119.976562" transform="translate(-210.007813,-99.976563)" fill="rgb(255,105,119)" fill-rule="evenodd" stroke="none" stroke-width="1"/></g><g id="eb7zpa3jqs2g5_to" transform="translate(834.727824,69.977347)"><path id="eb7zpa3jqs2g5" d="M246.003906,91.882812L246.003906,119.976562C246.003906,125.472656,241.503906,129.972656,236.003906,129.972656L252.437500,129.972656C289.035156,129.785156,338.847656,127.281250,345.917969,100.890625C350.285156,84.488281,340.453125,67.457031,324.066406,63.039062C318.179688,61.449219,314.222656,55.589844,315.972656,49.019531C320.335938,32.617188,310.503906,15.585938,294.117188,11.164062C263.421875,2.886719,245.414062,39.722656,239.093750,70.472656C243.093750,71.781250,246.003906,75.554688,246.003906,79.980469ZM246.003906,91.882812" transform="translate(-291.479477,-69.977347)" fill="rgb(255,105,119)" fill-rule="evenodd" stroke="none" stroke-width="1"/></g><g id="eb7zpa3jqs2g6_to" transform="translate(871.256159,169.974609)"><path id="eb7zpa3jqs2g6" d="M390.011719,129.972656L252.437500,129.972656C250.242188,129.984375,248.093750,129.988281,246.003906,129.988281L246.003906,209.976562L410.011719,209.976562L410.011719,149.976562C410.011719,138.976562,401.011719,129.972656,390.011719,129.972656ZM390.011719,129.972656" transform="translate(-328.007813,-169.974609)" fill="rgb(131,128,226)" fill-rule="evenodd" stroke="none" stroke-width="1"/></g><g id="eb7zpa3jqs2g7_to" transform="translate(750.037409,169.974609)"><path id="eb7zpa3jqs2g7" d="M184.007812,129.972656L174.011719,129.972656L174.011719,129.988281C177.531250,129.988281,180.886719,129.972656,184.007812,129.972656ZM246.003906,209.976562L174.011719,209.976562L174.011719,129.988281C171.921875,129.988281,169.773438,129.984375,167.574219,129.972656L236.003906,129.972656C239.128906,129.972656,242.480469,129.988281,246.003906,129.988281ZM246.003906,209.976562" transform="translate(-206.789063,-169.974609)" fill="rgb(255,192,89)" fill-rule="evenodd" stroke="none" stroke-width="1"/></g><g id="eb7zpa3jqs2g8_to" transform="translate(635.254206,169.974609)"><path id="eb7zpa3jqs2g8" d="M174.011719,209.976562L174.011719,129.988281C171.921875,129.988281,169.773438,129.984375,167.578125,129.972656L30,129.972656C19,129.972656,10,138.976562,10,149.976562L10,209.976562ZM174.011719,209.976562" transform="translate(-92.005859,-169.974609)" fill="rgb(131,128,226)" fill-rule="evenodd" stroke="none" stroke-width="1"/></g><g id="eb7zpa3jqs2g9_to" transform="translate(753.254206,355.988281)"><path id="eb7zpa3jqs2g9" d="M174.011719,209.976562L20,209.976562L20,482C20,493,29.003906,502,40.003906,502L380.011719,502C391.011719,502,400.011719,493.003906,400.011719,482L400.011719,209.976562ZM174.011719,209.976562" transform="translate(-210.005859,-355.988281)" fill="rgb(176,174,236)" fill-rule="evenodd" stroke="none" stroke-width="1"/></g></g><g id="eb7zpa3jqs2g10_to" transform="translate(819.421022,265.987955)"><path id="eb7zpa3jqs2g10" d="M390.011719,119.972656L345.464844,119.972656C350.281250,115.527344,353.804688,110.101562,355.582031,103.460938C361.375000,81.707031,348.406250,59.242188,326.667969,53.382812C326.144531,53.238281,325.308594,52.820312,325.636719,51.589844C331.425781,29.835938,318.457031,7.371094,296.722656,1.511719C285.441406,-1.531250,274.316406,0.039062,264.550781,6.058594C245.234375,17.964844,235.625000,43.648438,231.296875,59.980469L188.718750,59.980469C184.386719,43.648438,174.781250,17.960938,155.460938,6.058594C145.699219,0.042969,134.578125,-1.531250,123.292969,1.511719C101.558594,7.371094,88.585938,29.835938,94.378906,51.589844C94.707031,52.820312,93.871094,53.238281,93.343750,53.382812C71.609375,59.242188,58.640625,81.707031,64.433594,103.476562C66.210938,110.105469,69.726562,115.531250,74.535156,119.972656L30,119.972656C13.457031,119.972656,0,133.429688,0,149.972656L0,209.976562C0,215.496094,4.476562,219.976562,10,219.976562L10,482C10,498.542969,23.457031,512,40,512L270.007812,512C275.531250,512,280.007812,507.523438,280.007812,502C280.007812,496.476562,275.531250,492,270.007812,492L40.003906,492C34.488281,492,30.003906,487.515625,30.003906,482L30.003906,219.976562L390.011719,219.976562L390.011719,482C390.011719,487.515625,385.527344,492,380.011719,492L360.011719,492C354.488281,492,350.011719,496.476562,350.011719,502C350.011719,507.523438,354.488281,512,360.011719,512L380.011719,512C396.554688,512,410.011719,498.542969,410.011719,482L410.011719,219.976562C415.535156,219.976562,420.011719,215.496094,420.011719,209.976562L420.011719,149.972656C420.011719,133.429688,406.554688,119.972656,390.011719,119.972656ZM400.011719,149.972656L400.011719,199.972656C400.007812,199.972656,400,199.976562,399.992188,199.976562L256.003906,199.976562L256.003906,139.972656L390.011719,139.972656C395.527344,139.972656,400.011719,144.460938,400.011719,149.972656ZM184.011719,139.972656L236.003906,139.972656L236.003906,199.976562L184.011719,199.976562ZM275.046875,23.085938C280.136719,19.945312,285.523438,19.207031,291.515625,20.820312C302.636719,23.820312,309.273438,35.316406,306.308594,46.445312C303.222656,58.039062,309.878906,69.570312,321.460938,72.695312C332.582031,75.691406,339.218750,87.187500,336.261719,98.300781C331.289062,116.851562,287.015625,119.566406,256.003906,119.933594L256.003906,98.566406L280.277344,88.523438C285.378906,86.414062,287.804688,80.562500,285.691406,75.460938C283.582031,70.359375,277.734375,67.929688,272.628906,70.042969L255.761719,77.023438C255.132812,72.804688,253.203125,69.003906,250.363281,66.074219C255.593750,45.570312,264.792969,29.402344,275.046875,23.085938ZM184.019531,79.980469L235.988281,79.980469C235.992188,79.980469,236,79.980469,236.003906,79.984375L236.003906,91.757812L236.003906,91.878906L236.003906,119.972656L184.011719,119.972656L184.011719,91.890625C184.011719,91.843750,184.011719,91.796875,184.011719,91.746094L184.011719,79.984375C184.011719,79.984375,184.015625,79.980469,184.019531,79.980469ZM98.550781,72.695312C110.136719,69.570312,116.792969,58.039062,113.707031,46.445312C110.742188,35.316406,117.378906,23.820312,128.500000,20.820312C130.546875,20.269531,132.523438,19.992188,134.445312,19.992188C138.136719,19.992188,141.617188,21.019531,144.968750,23.085938C155.222656,29.402344,164.421875,45.570312,169.648438,66.070312C166.812500,69,164.882812,72.800781,164.253906,77.023438L147.386719,70.042969C142.281250,67.929688,136.433594,70.355469,134.324219,75.460938C132.210938,80.562500,134.636719,86.410156,139.742188,88.523438L164.011719,98.566406L164.011719,119.929688C133,119.566406,88.726562,116.851562,83.757812,98.316406C80.796875,87.187500,87.433594,75.691406,98.550781,72.695312ZM30,139.972656L164.011719,139.972656L164.011719,199.976562L20.019531,199.976562C20.015625,199.976562,20.007812,199.972656,20,199.972656L20,179.972656L65,179.972656C70.523438,179.972656,75,175.496094,75,169.972656C75,164.453125,70.523438,159.972656,65,159.972656L20,159.972656L20,149.972656C20,144.460938,24.488281,139.972656,30,139.972656ZM30,139.972656" transform="translate(-210.005859,-256.000202)" fill="rgb(0,0,0)" stroke="none" stroke-width="1"/></g><g id="eb7zpa3jqs2g11_to" transform="translate(753.256159,415.990234)"><path id="eb7zpa3jqs2g11" d="M210.007812,455.992188C229.308594,455.992188,245.007812,438.046875,245.007812,415.992188C245.007812,393.933594,229.308594,375.988281,210.007812,375.988281C190.707031,375.988281,175.007812,393.933594,175.007812,415.992188C175.007812,438.046875,190.707031,455.992188,210.007812,455.992188ZM210.007812,395.988281C218.136719,395.988281,225.007812,405.148438,225.007812,415.992188C225.007812,426.832031,218.136719,435.992188,210.007812,435.992188C201.875000,435.992188,195.007812,426.832031,195.007812,415.992188C195.007812,405.148438,201.875000,395.988281,210.007812,395.988281ZM210.007812,395.988281" transform="translate(-210.007813,-415.990234)" fill="rgb(0,0,0)" stroke="none" stroke-width="1"/></g><g id="eb7zpa3jqs2g12_to" transform="translate(843.260066,415.990341)"><path id="eb7zpa3jqs2g12" d="M328.414062,376.585938C324.457031,375.152344,320.023438,376.355469,317.328125,379.585938L300.011719,400.371094L282.691406,379.585938C279.996094,376.355469,275.566406,375.152344,271.605469,376.585938C267.648438,378.019531,265.011719,381.781250,265.011719,385.988281L265.011719,445.992188C265.011719,451.515625,269.488281,455.992188,275.011719,455.992188C280.535156,455.992188,285.011719,451.515625,285.011719,445.992188L285.011719,413.609375L292.328125,422.394531C294.230469,424.671875,297.042969,425.992188,300.011719,425.992188C302.980469,425.992188,305.792969,424.671875,307.691406,422.394531L315.011719,413.613281L315.011719,445.992188C315.011719,451.515625,319.488281,455.992188,325.011719,455.992188C330.535156,455.992188,335.011719,451.515625,335.011719,445.992188L335.011719,385.988281C335.011719,381.781250,332.375000,378.019531,328.414062,376.585938ZM328.414062,376.585938" transform="translate(-300.011719,-415.990341)" fill="rgb(0,0,0)" stroke="none" stroke-width="1"/></g><g id="eb7zpa3jqs2g13_to" transform="translate(663.250300,415.990341)"><path id="eb7zpa3jqs2g13" d="M145.003906,455.992188C150.527344,455.992188,155.003906,451.515625,155.003906,445.992188L155.003906,385.988281C155.003906,381.781250,152.367188,378.019531,148.406250,376.585938C144.449219,375.152344,140.015625,376.355469,137.320312,379.585938L120.003906,400.371094L102.683594,379.585938C99.988281,376.355469,95.558594,375.152344,91.597656,376.585938C87.640625,378.019531,85,381.781250,85,385.988281L85,445.992188C85,451.515625,89.480469,455.992188,95.003906,455.992188C100.523438,455.992188,105.003906,451.515625,105.003906,445.992188L105.003906,413.609375L112.320312,422.394531C114.218750,424.671875,117.035156,425.992188,120.003906,425.992188C122.972656,425.992188,125.785156,424.671875,127.683594,422.394531L135.003906,413.613281L135.003906,445.992188C135.003906,451.515625,139.480469,455.992188,145.003906,455.992188ZM145.003906,455.992188" transform="translate(-120.001953,-415.990341)" fill="rgb(0,0,0)" stroke="none" stroke-width="1"/></g><g id="eb7zpa3jqs2g14_to" transform="translate(743.254206,295.984375)"><path id="eb7zpa3jqs2g14" d="M235.007812,295.984375C235.007812,273.925781,219.304688,255.984375,200.007812,255.984375C180.707031,255.984375,165.003906,273.925781,165.003906,295.984375C165.003906,318.039062,180.707031,335.984375,200.007812,335.984375C219.304688,335.984375,235.007812,318.039062,235.007812,295.984375ZM185.003906,295.984375C185.003906,285.144531,191.875000,275.984375,200.007812,275.984375C208.136719,275.984375,215.007812,285.144531,215.007812,295.984375C215.007812,306.824219,208.136719,315.984375,200.007812,315.984375C191.875000,315.984375,185.003906,306.824219,185.003906,295.984375ZM185.003906,295.984375" transform="translate(-200.005859,-295.984375)" fill="rgb(0,0,0)" stroke="none" stroke-width="1"/></g><g id="eb7zpa3jqs2g15_to" transform="translate(663.252253,295.986328)"><path id="eb7zpa3jqs2g15" d="M120.003906,335.988281C125.527344,335.988281,130.003906,331.507812,130.003906,325.984375L130.003906,275.984375L145.003906,275.984375C150.527344,275.984375,155.003906,271.507812,155.003906,265.984375C155.003906,260.460938,150.527344,255.984375,145.003906,255.984375L120.023438,255.984375C120.015625,255.984375,120.011719,255.984375,120.003906,255.984375C119.996094,255.984375,119.992188,255.984375,119.984375,255.984375L95.003906,255.984375C89.480469,255.984375,85.003906,260.460938,85.003906,265.984375C85.003906,271.507812,89.480469,275.984375,95.003906,275.984375L110.003906,275.984375L110.003906,325.984375C110.003906,331.507812,114.480469,335.988281,120.003906,335.988281ZM120.003906,335.988281" transform="translate(-120.003906,-295.986328)" fill="rgb(0,0,0)" stroke="none" stroke-width="1"/></g><g id="eb7zpa3jqs2g16_to" transform="translate(808.256159,275.990234)"><path id="eb7zpa3jqs2g16" d="M265.007812,285.992188C270.531250,285.992188,275.007812,281.515625,275.007812,275.992188L275.007812,275.984375C275.007812,270.460938,270.531250,265.988281,265.007812,265.988281C259.484375,265.988281,255.007812,270.468750,255.007812,275.992188C255.007812,281.515625,259.484375,285.992188,265.007812,285.992188ZM265.007812,285.992188" transform="translate(-265.007813,-275.990234)" fill="rgb(0,0,0)" stroke="none" stroke-width="1"/></g><g id="eb7zpa3jqs2g17_to" transform="translate(808.256159,315.982422)"><path id="eb7zpa3jqs2g17" d="M265.007812,325.984375C270.531250,325.984375,275.007812,321.507812,275.007812,315.984375L275.007812,315.976562C275.007812,310.457031,270.531250,305.980469,265.007812,305.980469C259.484375,305.980469,255.007812,310.460938,255.007812,315.984375C255.007812,321.507812,259.484375,325.984375,265.007812,325.984375ZM265.007812,325.984375" transform="translate(-265.007813,-315.982422)" fill="rgb(0,0,0)" stroke="none" stroke-width="1"/></g><g id="eb7zpa3jqs2g18_to" transform="translate(653.246394,169.972656)"><path id="eb7zpa3jqs2g18" d="M109.996094,179.972656L110.003906,179.972656C115.527344,179.972656,120,175.496094,120,169.972656C120,164.453125,115.519531,159.972656,109.996094,159.972656C104.472656,159.972656,99.996094,164.453125,99.996094,169.972656C99.996094,175.496094,104.472656,179.972656,109.996094,179.972656ZM109.996094,179.972656" transform="translate(-109.998047,-169.972656)" fill="rgb(0,0,0)" stroke="none" stroke-width="1"/></g><g id="eb7zpa3jqs2g19_to" transform="translate(858.258113,502)"><path id="eb7zpa3jqs2g19" d="M315.011719,492L315.003906,492C309.480469,492,305.007812,496.476562,305.007812,502C305.007812,507.523438,309.488281,512,315.011719,512C320.535156,512,325.011719,507.523438,325.011719,502C325.011719,496.476562,320.535156,492,315.011719,492ZM315.011719,492" transform="translate(-315.009766,-502)" fill="rgb(0,0,0)" stroke="none" stroke-width="1"/></g></svg>
