<svg id="e8l2kxgigmpg1" xmlns="http://www.w3.org/2000/svg" xmlns:xlink="http://www.w3.org/1999/xlink" viewBox="0 0 512 512" shape-rendering="geometricPrecision" text-rendering="geometricPrecision"><style><![CDATA[#e8l2kxgigmpg3_ts {animation: e8l2kxgigmpg3_ts__ts 3000ms linear 1 normal forwards}@keyframes e8l2kxgigmpg3_ts__ts { 0% {transform: translate(255.999467px,374.418030px) scale(0.800000,0.800000)} 100% {transform: translate(255.999467px,374.418030px) scale(1,1)} }#e8l2kxgigmpg4_ts {animation: e8l2kxgigmpg4_ts__ts 3000ms linear 1 normal forwards}@keyframes e8l2kxgigmpg4_ts__ts { 0% {transform: translate(256.000015px,383.897995px) scale(0.800000,0.800000)} 100% {transform: translate(256.000015px,383.897995px) scale(1,1)} }#e8l2kxgigmpg5_ts {animation: e8l2kxgigmpg5_ts__ts 3000ms linear 1 normal forwards}@keyframes e8l2kxgigmpg5_ts__ts { 0% {transform: translate(256px,437.329010px) scale(0.800000,0.800000)} 100% {transform: translate(256px,437.329010px) scale(1,1)} }#e8l2kxgigmpg6_ts {animation: e8l2kxgigmpg6_ts__ts 3000ms linear 1 normal forwards}@keyframes e8l2kxgigmpg6_ts__ts { 0% {transform: translate(256px,418.053238px) scale(0.800000,0.800000)} 100% {transform: translate(256px,418.053238px) scale(1,1)} }#e8l2kxgigmpg7_ts {animation: e8l2kxgigmpg7_ts__ts 3000ms linear 1 normal forwards}@keyframes e8l2kxgigmpg7_ts__ts { 0% {transform: translate(256px,394.504425px) scale(0.800000,0.800000)} 100% {transform: translate(256px,394.504425px) scale(1,1)} }#e8l2kxgigmpg8_ts {animation: e8l2kxgigmpg8_ts__ts 3000ms linear 1 normal forwards}@keyframes e8l2kxgigmpg8_ts__ts { 0% {transform: translate(256px,219.225998px) scale(0.800000,0.800000)} 100% {transform: translate(256px,219.225998px) scale(1,1)} }#e8l2kxgigmpg9_ts {animation: e8l2kxgigmpg9_ts__ts 3000ms linear 1 normal forwards}@keyframes e8l2kxgigmpg9_ts__ts { 0% {transform: translate(255.999527px,157.900009px) scale(0.800000,0.800000)} 100% {transform: translate(255.999527px,157.900009px) scale(1,1)} }#e8l2kxgigmpg10_ts {animation: e8l2kxgigmpg10_ts__ts 3000ms linear 1 normal forwards}@keyframes e8l2kxgigmpg10_ts__ts { 0% {transform: translate(255.999496px,132.564491px) scale(0.800000,0.800000)} 100% {transform: translate(255.999496px,132.564491px) scale(1,1)} }#e8l2kxgigmpg11_ts {animation: e8l2kxgigmpg11_ts__ts 3000ms linear 1 normal forwards}@keyframes e8l2kxgigmpg11_ts__ts { 0% {transform: translate(321.742996px,132.565002px) scale(0.800000,0.800000)} 100% {transform: translate(321.742996px,132.565002px) scale(1,1)} }#e8l2kxgigmpg12_ts {animation: e8l2kxgigmpg12_ts__ts 3000ms linear 1 normal forwards}@keyframes e8l2kxgigmpg12_ts__ts { 0% {transform: translate(190.257004px,132.565002px) scale(0.800000,0.800000)} 100% {transform: translate(190.257004px,132.565002px) scale(1,1)} }#e8l2kxgigmpg13_ts {animation: e8l2kxgigmpg13_ts__ts 3000ms linear 1 normal forwards}@keyframes e8l2kxgigmpg13_ts__ts { 0% {transform: translate(178.742508px,127.936504px) scale(0.800000,0.800000)} 100% {transform: translate(178.742508px,127.936504px) scale(1,1)} }#e8l2kxgigmpg14_ts {animation: e8l2kxgigmpg14_ts__ts 3000ms linear 1 normal forwards}@keyframes e8l2kxgigmpg14_ts__ts { 0% {transform: translate(337.842529px,140.072006px) scale(0.800000,0.800000)} 100% {transform: translate(337.842529px,140.072006px) scale(1,1)} }#e8l2kxgigmpg17_ts {animation: e8l2kxgigmpg17_ts__ts 3000ms linear 1 normal forwards}@keyframes e8l2kxgigmpg17_ts__ts { 0% {transform: translate(176.355003px,281.387009px) scale(0.800000,0.800000)} 33.333333% {transform: translate(176.355003px,281.387009px) scale(1.300000,1.300000)} 66.666667% {transform: translate(176.355003px,281.387009px) scale(1.500000,1.500000)} 100% {transform: translate(176.355003px,281.387009px) scale(1,1)} }#e8l2kxgigmpg18_ts {animation: e8l2kxgigmpg18_ts__ts 3000ms linear 1 normal forwards}@keyframes e8l2kxgigmpg18_ts__ts { 0% {transform: translate(335.644989px,281.387009px) scale(0.800000,0.800000)} 33.333333% {transform: translate(335.644989px,281.387009px) scale(1.300000,1.300000)} 66.666667% {transform: translate(335.644989px,281.387009px) scale(1.500000,1.500000)} 100% {transform: translate(335.644989px,281.387009px) scale(1,1)} }#e8l2kxgigmpg19_ts {animation: e8l2kxgigmpg19_ts__ts 3000ms linear 1 normal forwards}@keyframes e8l2kxgigmpg19_ts__ts { 0% {transform: translate(255.999496px,268.653008px) scale(0.800000,0.800000)} 100% {transform: translate(255.999496px,268.653008px) scale(1,1)} }#e8l2kxgigmpg20_ts {animation: e8l2kxgigmpg20_ts__ts 3000ms linear 1 normal forwards}@keyframes e8l2kxgigmpg20_ts__ts { 0% {transform: translate(255.999680px,256.000011px) scale(0.800000,0.800000)} 100% {transform: translate(255.999680px,256.000011px) scale(1,1)} }]]></style><g id="e8l2kxgigmpg2"><g id="e8l2kxgigmpg3_ts" transform="translate(255.999467,374.418030) scale(0.800000,0.800000)"><path id="e8l2kxgigmpg3" d="M461.629000,278.118000C461.629000,313.930000,481.668000,364.659000,498.933000,389.985000C504.979000,398.853000,501.688000,411.071000,491.885000,415.443000C477.351000,421.924000,459.110000,426.466000,447.963000,427.849000C443.457000,428.408000,439.551000,431.068000,437.118000,434.902000C424.654000,454.540000,393.568000,470.718000,350.043000,470.718000L161.956000,470.718000C118.431000,470.718000,87.345000,454.540000,74.881000,434.902000C72.448000,431.069000,68.542000,428.408000,64.036000,427.849000C52.888000,426.467000,34.648000,421.925000,20.114000,415.443000C10.311000,411.072000,7.020000,398.854000,13.066000,389.985000C30.331000,364.659000,50.370000,313.930000,50.370000,278.118000Z" transform="translate(-255.999467,-374.418030)" fill="rgb(97,113,163)" stroke="none" stroke-width="1"/></g><g id="e8l2kxgigmpg4_ts" transform="translate(256.000015,383.897995) scale(0.800000,0.800000)"><path id="e8l2kxgigmpg4" d="M443.062000,429.391000C423.420000,406.571000,404.996000,360.362000,402.422000,297.079000L109.578000,297.079000C107.004000,360.362000,88.580000,406.571000,68.938000,429.391000C71.338000,430.645000,73.388000,432.549000,74.881000,434.901000C87.345000,454.539000,118.431000,470.717000,161.956000,470.717000L350.044000,470.717000C393.569000,470.717000,424.655000,454.539000,437.119000,434.901000C438.611000,432.549000,440.662000,430.646000,443.062000,429.391000Z" transform="translate(-256.000015,-383.897995)" fill="rgb(71,90,153)" stroke="none" stroke-width="1"/></g><g id="e8l2kxgigmpg5_ts" transform="translate(256,437.329010) scale(0.800000,0.800000)"><path id="e8l2kxgigmpg5" d="M370.347000,504.500000C381.782000,504.500000,390.444000,494.243000,388.624000,482.954000C378.314000,419.001000,322.861000,370.158000,256,370.158000C189.139000,370.158000,133.686000,419.002000,123.376000,482.954000C121.556000,494.243000,130.218000,504.500000,141.653000,504.500000Z" transform="translate(-256,-437.329010)" fill="rgb(210,153,111)" stroke="none" stroke-width="1"/></g><g id="e8l2kxgigmpg6_ts" transform="translate(256,418.053238) scale(0.800000,0.800000)"><path id="e8l2kxgigmpg6" d="M382.613000,459.487000C364.105000,407.431000,314.406000,370.157000,256,370.157000C197.594000,370.157000,147.895000,407.430000,129.387000,459.487000C163.917000,474.730000,223.666000,461.021000,255.999000,438.999000C288.091000,460.859000,347.924000,474.800000,382.613000,459.487000Z" transform="translate(-256,-418.053238)" fill="rgb(203,119,90)" stroke="none" stroke-width="1"/></g><g id="e8l2kxgigmpg7_ts" transform="translate(256,394.504425) scale(0.800000,0.800000)"><path id="e8l2kxgigmpg7" d="M341.647000,353.094000C373.659000,370.411000,397.869000,421.614000,369.426000,432.492000C339.056000,444.107000,268.497000,424.730000,256,395.946000C243.503000,424.730000,172.944000,444.107000,142.574000,432.492000C114.131000,421.614000,138.341000,370.411000,170.353000,353.094000Z" transform="translate(-256,-394.504425)" fill="rgb(239,237,255)" stroke="none" stroke-width="1"/></g><g id="e8l2kxgigmpg8_ts" transform="translate(256,219.225998) scale(0.800000,0.800000)"><path id="e8l2kxgigmpg8" d="M467.199000,228.587000C467.199000,331.357000,372.642000,395.946000,256,395.946000C139.358000,395.946000,44.801000,331.357000,44.801000,228.587000C44.801000,125.817000,139.358000,42.506000,256,42.506000C372.642000,42.505000,467.199000,125.817000,467.199000,228.587000Z" transform="translate(-256,-219.225998)" fill="rgb(255,212,190)" stroke="none" stroke-width="1"/></g><g id="e8l2kxgigmpg9_ts" transform="translate(255.999527,157.900009) scale(0.800000,0.800000)"><path id="e8l2kxgigmpg9" d="M415.015000,210.316000L415.015000,266.885000C415.015000,289.758000,433.557000,308.300000,456.430000,308.300000C472.083000,308.300000,484.772000,295.611000,484.772000,279.958000L484.772000,185.842000C484.773000,110.486000,451.281000,7.500000,256,7.500000C60.719000,7.500000,27.227000,110.486000,27.227000,185.842000L27.227000,279.958000C27.227000,295.611000,39.916000,308.300000,55.569000,308.300000C78.442000,308.300000,96.984000,289.758000,96.984000,266.885000L96.984000,210.316000C96.984000,174.603000,125.935000,145.652000,161.648000,145.652000L350.350000,145.652000C386.064000,145.652000,415.015000,174.604000,415.015000,210.316000Z" transform="translate(-255.999527,-157.900009)" fill="rgb(210,153,111)" stroke="none" stroke-width="1"/></g><g id="e8l2kxgigmpg10_ts" transform="translate(255.999496,132.564491) scale(0.800000,0.800000)"><path id="e8l2kxgigmpg10" d="M321.742000,56.296000C298.357000,56.296000,279.945000,62.311000,266.176000,71.824000C260.024000,76.075000,251.975000,76.075000,245.822000,71.824000C232.054000,62.310000,213.641000,56.295000,190.256000,56.295000C130.282000,56.295000,102.967000,95.830000,102.967000,132.564000C102.967000,169.298000,130.282000,208.834000,190.256000,208.834000C213.641000,208.834000,232.054000,202.819000,245.822000,193.305000C251.974000,189.054000,260.023000,189.054000,266.176000,193.305000C279.944000,202.818000,298.357000,208.833000,321.742000,208.833000C381.716000,208.833000,409.032000,169.297000,409.032000,132.563000C409.032000,95.831000,381.716000,56.296000,321.742000,56.296000Z" transform="translate(-255.999496,-132.564491)" fill="rgb(97,113,163)" stroke="none" stroke-width="1"/></g><g id="e8l2kxgigmpg11_ts" transform="translate(321.742996,132.565002) scale(0.800000,0.800000)"><ellipse id="e8l2kxgigmpg11" rx="44.195999" ry="33.175999" transform="translate(0.000015,0)" fill="rgb(140,214,254)" stroke="none" stroke-width="1"/></g><g id="e8l2kxgigmpg12_ts" transform="translate(190.257004,132.565002) scale(0.800000,0.800000)"><ellipse id="e8l2kxgigmpg12" rx="44.195999" ry="33.175999" transform="translate(0,0)" fill="rgb(140,214,254)" stroke="none" stroke-width="1"/></g><g id="e8l2kxgigmpg13_ts" transform="translate(178.742508,127.936504) scale(0.800000,0.800000)"><path id="e8l2kxgigmpg13" d="M190.257000,99.389000C160.088000,99.389000,146.061000,114.242000,146.061000,132.565000C146.061000,141.966000,149.765000,150.448000,157.436000,156.484000L211.424000,102.496000C205.544000,100.507000,198.509000,99.389000,190.257000,99.389000Z" transform="translate(-178.742508,-127.936504)" fill="rgb(95,197,252)" stroke="none" stroke-width="1"/></g><g id="e8l2kxgigmpg14_ts" transform="translate(337.842529,140.072006) scale(0.800000,0.800000)"><path id="e8l2kxgigmpg14" d="M321.743000,165.741000C351.912000,165.741000,365.939000,150.888000,365.939000,132.565000C365.939000,125.859000,364.051000,119.622000,360.189000,114.403000L309.746000,164.846000C313.420000,165.425000,317.409000,165.741000,321.743000,165.741000Z" transform="translate(-337.842529,-140.072006)" fill="rgb(95,197,252)" stroke="none" stroke-width="1"/></g><g id="e8l2kxgigmpg15"><g id="e8l2kxgigmpg16"><g id="e8l2kxgigmpg17_ts" transform="translate(176.355003,281.387009) scale(0.800000,0.800000)"><ellipse id="e8l2kxgigmpg17" rx="29.386999" ry="23.403000" transform="translate(-0.000008,-0.000015)" fill="rgb(237,161,171)" stroke="none" stroke-width="1"/></g><g id="e8l2kxgigmpg18_ts" transform="translate(335.644989,281.387009) scale(0.800000,0.800000)"><ellipse id="e8l2kxgigmpg18" rx="29.386999" ry="23.403000" transform="translate(0,-0.000015)" fill="rgb(237,161,171)" stroke="none" stroke-width="1"/></g><g id="e8l2kxgigmpg19_ts" transform="translate(255.999496,268.653008) scale(0.800000,0.800000)"><path id="e8l2kxgigmpg19" d="M279.693000,263.406000C279.693000,248.763000,269.085000,247.387000,256,247.387000C242.914000,247.387000,232.306000,248.763000,232.306000,263.406000C232.306000,278.049000,242.914000,289.919000,256,289.919000C269.085000,289.919000,279.693000,278.048000,279.693000,263.406000Z" transform="translate(-255.999496,-268.653008)" fill="rgb(78,86,96)" stroke="none" stroke-width="1"/></g></g></g><g id="e8l2kxgigmpg20_ts" transform="translate(255.999680,256.000011) scale(0.800000,0.800000)"><path id="e8l2kxgigmpg20" d="M321.743000,173.241000C357.097000,173.241000,373.439000,154.222000,373.439000,132.565000C373.439000,110.917000,357.110000,91.889000,321.743000,91.889000C286.412000,91.889000,270.047000,110.888000,270.047000,132.565000C270.046000,154.213000,286.375000,173.241000,321.743000,173.241000ZM321.743000,106.889000C344.721000,106.889000,358.439000,116.488000,358.439000,132.565000C358.439000,148.642000,344.721000,158.241000,321.743000,158.241000C298.765000,158.241000,285.047000,148.642000,285.047000,132.565000C285.046000,116.487000,298.765000,106.889000,321.743000,106.889000ZM276.145000,243.216000C270.697000,240.453000,264.151000,239.887000,256,239.887000C247.849000,239.887000,241.303000,240.453000,235.854000,243.216000C230.814000,245.772000,224.806000,251.349000,224.806000,263.405000C224.806000,282.160000,238.799000,297.418000,255.999000,297.418000C273.199000,297.418000,287.192000,282.160000,287.192000,263.405000C287.193000,251.349000,281.185000,245.772000,276.145000,243.216000ZM256,282.418000C247.071000,282.418000,239.807000,273.889000,239.807000,263.405000C239.807000,257.498000,240.462000,254.886000,256,254.886000C271.538000,254.886000,272.193000,257.497000,272.193000,263.405000C272.193000,273.890000,264.929000,282.418000,256,282.418000ZM181.268000,233.947000C177.126000,233.947000,173.768000,237.305000,173.768000,241.447000L173.768000,253.447000C173.768000,257.589000,177.126000,260.947000,181.268000,260.947000C185.410000,260.947000,188.768000,257.589000,188.768000,253.447000L188.768000,241.447000C188.768000,237.305000,185.410000,233.947000,181.268000,233.947000ZM505.130000,385.760000C492.542000,367.296000,480.015000,337.484000,473.682000,311.363000C484.753000,305.256000,492.272000,293.470000,492.272000,279.958000L492.272000,185.842000C492.272000,135.256000,477.748000,94.026000,449.102000,63.298000C409.947000,21.297000,344.978000,-0,256,-0C194.121000,-0,143.506000,10.364000,105.562000,30.804000C101.916000,32.769000,100.552000,37.317000,102.516000,40.964000C104.480000,44.611000,109.032000,45.975000,112.676000,44.010000C148.410000,24.760000,196.631000,15,256,15C383.088000,15,477.272000,59.794000,477.272000,185.842000L477.272000,279.958000C477.272000,291.451000,467.922000,300.800000,456.430000,300.800000C437.729000,300.800000,422.514000,285.586000,422.514000,266.885000L422.514000,210.316000C422.514000,194.978000,417.586000,180.045000,408.574000,167.729000C413.735000,156.844000,416.532000,144.792000,416.532000,132.564000C416.532000,111.200000,408.031000,90.356000,393.208000,75.379000C375.997000,57.988000,351.284000,48.795000,321.742000,48.795000C298.231000,48.795000,278.101000,54.467000,261.913000,65.653000C258.320000,68.135000,253.678000,68.135000,250.086000,65.653000C233.897000,54.467000,213.768000,48.795000,190.256000,48.795000C160.714000,48.795000,136.002000,57.987000,118.791000,75.379000C103.968000,90.357000,95.467000,111.200000,95.467000,132.564000C95.467000,144.792000,98.263000,156.844000,103.425000,167.729000C94.413000,180.045000,89.485000,194.978000,89.485000,210.316000L89.485000,266.885000C89.485000,285.586000,74.270000,300.800000,55.569000,300.800000C44.077000,300.800000,34.727000,291.450000,34.727000,279.958000L34.727000,185.842000C34.727000,133.137000,51.460000,91.915000,84.460000,63.322000C87.591000,60.610000,87.930000,55.873000,85.217000,52.742000C82.505000,49.612000,77.768000,49.273000,74.637000,51.985000C38.200000,83.555000,19.726000,128.591000,19.726000,185.842000L19.726000,279.958000C19.726000,293.471000,27.245000,305.257000,38.316000,311.363000C31.983000,337.484000,19.456000,367.296000,6.869000,385.760000C-1.829000,398.517000,3.017000,416.030000,17.059000,422.292000C32.613000,429.228000,51.835000,433.893000,63.113000,435.291000C65.274000,435.559000,67.254000,436.881000,68.548000,438.920000C77.899000,453.654000,95.636000,465.540000,117.866000,472.169000C117.130000,475.333000,116.492000,478.529000,115.972000,481.760000C113.418000,497.602000,125.600000,512,141.653000,512L321.808000,512C325.950000,512,329.308000,508.642000,329.308000,504.500000C329.308000,500.358000,325.950000,497,321.808000,497L141.653000,497C134.679000,497,129.720000,490.730000,130.781000,484.147000C133.224000,468.989000,138.337000,454.621000,145.983000,441.351000C175.193000,448.411000,224.303000,436.345000,248.500000,416.574000L248.500000,463.157000C248.500000,467.299000,251.858000,470.657000,256,470.657000C260.142000,470.657000,263.500000,467.299000,263.500000,463.157000L263.500000,416.574000C287.559000,436.231000,336.636000,448.451000,366.017000,441.351000C373.663000,454.621000,378.775000,468.989000,381.219000,484.147000C382.282000,490.737000,377.312000,497,370.347000,497L357.907000,497C353.765000,497,350.407000,500.358000,350.407000,504.500000C350.407000,508.642000,353.765000,512,357.907000,512L370.347000,512C386.392000,512,398.583000,497.608000,396.028000,481.760000C395.507000,478.529000,394.869000,475.333000,394.133000,472.169000C416.363000,465.540000,434.099000,453.654000,443.451000,438.920000C444.744000,436.882000,446.725000,435.560000,448.886000,435.292000C460.164000,433.894000,479.386000,429.229000,494.940000,422.293000C508.985000,416.029000,513.827000,398.517000,505.130000,385.760000ZM129.453000,85.931000C143.784000,71.451000,164.810000,63.796000,190.257000,63.796000C210.664000,63.796000,227.924000,68.573000,241.560000,77.995000C250.332000,84.055000,261.668000,84.056000,270.441000,77.995000C284.076000,68.573000,301.336000,63.796000,321.743000,63.796000C347.190000,63.796000,368.216000,71.450000,382.547000,85.931000C394.612000,98.123000,401.532000,115.120000,401.532000,132.565000C401.532000,150.010000,394.612000,167.007000,382.547000,179.199000C368.216000,193.680000,347.190000,201.334000,321.743000,201.334000C301.337000,201.334000,284.076000,196.557000,270.441000,187.136000C261.670000,181.075000,250.334000,181.073000,241.560000,187.136000C227.925000,196.558000,210.664000,201.335000,190.258000,201.335000C164.811000,201.335000,143.785000,193.681000,129.454000,179.200000C117.389000,167.008000,110.469000,150.011000,110.469000,132.566000C110.468000,115.120000,117.388000,98.123000,129.453000,85.931000ZM132.247000,435.157000C128.166000,442.413000,124.756000,449.956000,122.038000,457.751000C103.318000,452.169000,88.638000,442.580000,81.214000,430.883000C77.510000,425.046000,71.586000,421.227000,64.960000,420.406000C54.752000,419.140000,37.319000,414.903000,23.169000,408.593000C17.538000,406.082000,15.910000,399.130000,19.263000,394.210000C32.855000,374.274000,45.873000,343.519000,52.706000,315.676000C56.095000,315.946000,59.622000,315.739000,62.840000,315.258000C79.597000,340.605000,104.344000,361.793000,134.905000,376.953000C123.043000,395.039000,115.510000,421.715000,132.247000,435.157000ZM145.253000,425.486000C141.387000,424.008000,139.107000,421.573000,138.076000,417.824000C135.750000,409.359000,140.010000,395.924000,148.777000,383.232000C176.599000,394.764000,208.147000,401.543000,241.262000,403.092000C219.446000,422.690000,168.041000,434.203000,145.253000,425.486000ZM256,388.446000C188.905000,388.446000,116.575000,365.523000,77.753000,310.460000C93.603000,302.358000,104.486000,285.874000,104.486000,266.886000L104.486000,210.317000C104.486000,200.314000,107.135000,190.530000,112.054000,181.940000C130.410000,206.162000,159.462000,216.335000,190.257000,216.335000C213.768000,216.335000,233.897000,210.663000,250.087000,199.477000C253.679000,196.995000,258.321000,196.995000,261.914000,199.477000C278.103000,210.663000,298.232000,216.335000,321.743000,216.335000C352.446000,216.335000,381.553000,206.218000,399.952000,181.933000C404.870000,190.525000,407.515000,200.314000,407.515000,210.318000L407.515000,266.887000C407.515000,285.875000,418.398000,302.359000,434.248000,310.461000C395.426000,365.522000,323.098000,388.446000,256,388.446000ZM373.923000,417.824000C372.893000,421.573000,370.612000,424.008000,366.746000,425.486000C343.918000,434.216000,292.518000,422.656000,270.738000,403.092000C303.853000,401.543000,335.401000,394.764000,363.222000,383.232000C371.990000,395.924000,376.249000,409.359000,373.923000,417.824000ZM488.831000,408.593000C474.681000,414.903000,457.249000,419.139000,447.040000,420.406000C440.415000,421.227000,434.490000,425.046000,430.787000,430.883000C423.363000,442.580000,408.683000,452.169000,389.963000,457.752000C387.244000,449.958000,383.835000,442.414000,379.754000,435.158000C396.476000,421.728000,388.994000,395.079000,377.103000,376.950000C407.661000,361.790000,432.405000,340.604000,449.160000,315.259000C452.443000,315.750000,455.953000,315.943000,459.294000,315.677000C466.127000,343.519000,479.145000,374.274000,492.737000,394.210000C496.091000,399.132000,494.459000,406.083000,488.831000,408.593000ZM190.257000,173.241000C225.590000,173.241000,241.953000,154.242000,241.953000,132.565000C241.953000,110.917000,225.624000,91.889000,190.257000,91.889000C154.926000,91.889000,138.561000,110.888000,138.561000,132.565000C138.560000,154.213000,154.889000,173.241000,190.257000,173.241000ZM190.257000,106.889000C213.235000,106.889000,226.953000,116.488000,226.953000,132.565000C226.953000,148.642000,213.235000,158.241000,190.257000,158.241000C167.279000,158.241000,153.561000,148.642000,153.561000,132.565000C153.560000,116.487000,167.279000,106.889000,190.257000,106.889000ZM330.732000,233.947000C326.590000,233.947000,323.232000,237.305000,323.232000,241.447000L323.232000,253.447000C323.232000,257.589000,326.590000,260.947000,330.732000,260.947000C334.874000,260.947000,338.232000,257.589000,338.232000,253.447000L338.232000,241.447000C338.232000,237.305000,334.874000,233.947000,330.732000,233.947000Z" transform="translate(-255.999680,-256.000011)" fill="rgb(0,0,0)" stroke="none" stroke-width="1"/></g></g></svg>