<svg id="Capa_1" enable-background="new 0 0 512 512" height="512" viewBox="0 0 512 512" width="512" xmlns="http://www.w3.org/2000/svg"><g><path d="m461.629 278.118c0 35.812 20.039 86.541 37.304 111.867 6.046 8.868 2.755 21.086-7.048 25.458-14.534 6.481-32.775 11.023-43.922 12.406-4.506.559-8.412 3.219-10.845 7.053-12.464 19.638-43.55 35.816-87.075 35.816h-188.087c-43.525 0-74.611-16.178-87.075-35.816-2.433-3.833-6.339-6.494-10.845-7.053-11.148-1.382-29.388-5.924-43.922-12.406-9.803-4.371-13.094-16.589-7.048-25.458 17.265-25.326 37.304-76.055 37.304-111.867z" fill="#6171a3"/><path d="m443.062 429.391c-19.642-22.82-38.066-69.029-40.64-132.312h-292.844c-2.574 63.283-20.998 109.492-40.64 132.312 2.4 1.254 4.45 3.158 5.943 5.51 12.464 19.638 43.55 35.816 87.075 35.816h188.088c43.525 0 74.611-16.178 87.075-35.816 1.492-2.352 3.543-4.255 5.943-5.51z" fill="#475a99"/><path d="m370.347 504.5c11.435 0 20.097-10.257 18.277-21.546-10.31-63.953-65.763-112.796-132.624-112.796s-122.314 48.844-132.624 112.796c-1.82 11.289 6.842 21.546 18.277 21.546z" fill="#d2996f"/><path d="m382.613 459.487c-18.508-52.056-68.207-89.33-126.613-89.33s-108.105 37.273-126.613 89.33c34.53 15.243 94.279 1.534 126.612-20.488 32.092 21.86 91.925 35.801 126.614 20.488z" fill="#cb775a"/><path d="m341.647 353.094c32.012 17.317 56.222 68.52 27.779 79.398-30.37 11.615-100.929-7.762-113.426-36.546-12.497 28.784-83.056 48.161-113.426 36.546-28.443-10.878-4.233-62.081 27.779-79.398z" fill="#efedff"/><path d="m467.199 228.587c0 102.77-94.557 167.359-211.199 167.359s-211.199-64.589-211.199-167.359 94.557-186.081 211.199-186.081c116.642-.001 211.199 83.311 211.199 186.081z" fill="#ffd4be"/><path d="m415.015 210.316v56.569c0 22.873 18.542 41.415 41.415 41.415 15.653 0 28.342-12.689 28.342-28.342v-94.116c.001-75.356-33.491-178.342-228.772-178.342s-228.773 102.986-228.773 178.342v94.116c0 15.653 12.689 28.342 28.342 28.342 22.873 0 41.415-18.542 41.415-41.415v-56.569c0-35.713 28.951-64.664 64.664-64.664h188.702c35.714 0 64.665 28.952 64.665 64.664z" fill="#d2996f"/><path d="m321.742 56.296c-23.385 0-41.797 6.015-55.566 15.528-6.152 4.251-14.201 4.251-20.354 0-13.768-9.514-32.181-15.529-55.566-15.529-59.974 0-87.289 39.535-87.289 76.269s27.315 76.27 87.289 76.27c23.385 0 41.798-6.015 55.566-15.529 6.152-4.251 14.201-4.251 20.354 0 13.768 9.513 32.181 15.528 55.566 15.528 59.974 0 87.29-39.536 87.29-76.27 0-36.732-27.316-76.267-87.29-76.267z" fill="#6171a3"/><ellipse cx="321.743" cy="132.565" fill="#8cd6fe" rx="44.196" ry="33.176"/><ellipse cx="190.257" cy="132.565" fill="#8cd6fe" rx="44.196" ry="33.176"/><path d="m190.257 99.389c-30.169 0-44.196 14.853-44.196 33.176 0 9.401 3.704 17.883 11.375 23.919l53.988-53.988c-5.88-1.989-12.915-3.107-21.167-3.107z" fill="#5fc5fc"/><path d="m321.743 165.741c30.169 0 44.196-14.853 44.196-33.176 0-6.706-1.888-12.943-5.75-18.162l-50.443 50.443c3.674.579 7.663.895 11.997.895z" fill="#5fc5fc"/><g><g><ellipse cx="176.355" cy="281.387" fill="#eda1ab" rx="29.387" ry="23.403"/><ellipse cx="335.645" cy="281.387" fill="#eda1ab" rx="29.387" ry="23.403"/><path d="m279.693 263.406c0-14.643-10.608-16.019-23.693-16.019-13.086 0-23.694 1.376-23.694 16.019s10.608 26.513 23.694 26.513c13.085 0 23.693-11.871 23.693-26.513z" fill="#4e5660"/></g></g><path d="m321.743 173.241c35.354 0 51.696-19.019 51.696-40.676 0-21.648-16.329-40.676-51.696-40.676-35.331 0-51.696 18.999-51.696 40.676-.001 21.648 16.328 40.676 51.696 40.676zm0-66.352c22.978 0 36.696 9.599 36.696 25.676s-13.718 25.676-36.696 25.676-36.696-9.599-36.696-25.676c-.001-16.078 13.718-25.676 36.696-25.676zm-45.598 136.327c-5.448-2.763-11.994-3.329-20.145-3.329s-14.697.566-20.146 3.329c-5.04 2.556-11.048 8.133-11.048 20.189 0 18.755 13.993 34.013 31.193 34.013s31.193-15.258 31.193-34.013c.001-12.056-6.007-17.633-11.047-20.189zm-20.145 39.202c-8.929 0-16.193-8.529-16.193-19.013 0-5.907.655-8.519 16.193-8.519s16.193 2.611 16.193 8.519c0 10.485-7.264 19.013-16.193 19.013zm-74.732-48.471c-4.142 0-7.5 3.358-7.5 7.5v12c0 4.142 3.358 7.5 7.5 7.5s7.5-3.358 7.5-7.5v-12c0-4.142-3.358-7.5-7.5-7.5zm323.862 151.813c-12.588-18.464-25.115-48.276-31.448-74.397 11.071-6.107 18.59-17.893 18.59-31.405v-94.116c0-50.586-14.524-91.816-43.17-122.544-39.155-42.001-104.124-63.298-193.102-63.298-61.879 0-112.494 10.364-150.438 30.804-3.646 1.965-5.01 6.513-3.046 10.16s6.516 5.011 10.16 3.046c35.734-19.25 83.955-29.01 143.324-29.01 127.088 0 221.272 44.794 221.272 170.842v94.116c0 11.493-9.35 20.842-20.842 20.842-18.701 0-33.916-15.214-33.916-33.915v-56.569c0-15.338-4.928-30.271-13.94-42.587 5.161-10.885 7.958-22.937 7.958-35.165 0-21.364-8.501-42.208-23.324-57.185-17.211-17.391-41.924-26.584-71.466-26.584-23.511 0-43.641 5.672-59.829 16.858-3.593 2.482-8.235 2.482-11.827 0-16.189-11.186-36.318-16.858-59.83-16.858-29.542 0-54.254 9.192-71.465 26.584-14.823 14.978-23.324 35.821-23.324 57.185 0 12.228 2.796 24.28 7.958 35.165-9.012 12.316-13.94 27.249-13.94 42.587v56.569c0 18.701-15.215 33.915-33.916 33.915-11.492 0-20.842-9.35-20.842-20.842v-94.116c0-52.705 16.733-93.927 49.733-122.52 3.131-2.712 3.47-7.449.757-10.58-2.712-3.13-7.449-3.469-10.58-.757-36.437 31.57-54.911 76.606-54.911 133.857v94.116c0 13.513 7.519 25.299 18.59 31.405-6.333 26.121-18.86 55.933-31.447 74.397-8.698 12.757-3.852 30.27 10.19 36.532 15.554 6.936 34.776 11.601 46.054 12.999 2.161.268 4.141 1.59 5.435 3.629 9.351 14.734 27.088 26.62 49.318 33.249-.736 3.164-1.374 6.36-1.894 9.591-2.554 15.842 9.628 30.24 25.681 30.24h180.155c4.142 0 7.5-3.358 7.5-7.5s-3.358-7.5-7.5-7.5h-180.155c-6.974 0-11.933-6.27-10.872-12.853 2.443-15.158 7.556-29.526 15.202-42.796 29.21 7.06 78.32-5.006 102.517-24.777v46.583c0 4.142 3.358 7.5 7.5 7.5s7.5-3.358 7.5-7.5v-46.583c24.059 19.657 73.136 31.877 102.517 24.777 7.646 13.27 12.758 27.638 15.202 42.796 1.063 6.59-3.907 12.853-10.872 12.853h-12.44c-4.142 0-7.5 3.358-7.5 7.5s3.358 7.5 7.5 7.5h12.44c16.045 0 28.236-14.392 25.681-30.24-.521-3.231-1.159-6.427-1.895-9.591 22.23-6.629 39.966-18.515 49.318-33.249 1.293-2.038 3.274-3.36 5.435-3.628 11.278-1.398 30.5-6.063 46.054-12.999 14.045-6.264 18.887-23.776 10.19-36.533zm-375.677-299.829c14.331-14.48 35.357-22.135 60.804-22.135 20.407 0 37.667 4.777 51.303 14.199 8.772 6.06 20.108 6.061 28.881 0 13.635-9.422 30.895-14.199 51.302-14.199 25.447 0 46.473 7.654 60.804 22.135 12.065 12.192 18.985 29.189 18.985 46.634s-6.92 34.442-18.985 46.634c-14.331 14.481-35.357 22.135-60.804 22.135-20.406 0-37.667-4.777-51.302-14.198-8.771-6.061-20.107-6.063-28.881 0-13.635 9.422-30.896 14.199-51.302 14.199-25.447 0-46.473-7.654-60.804-22.135-12.065-12.192-18.985-29.189-18.985-46.634-.001-17.446 6.919-34.443 18.984-46.635zm2.794 349.226c-4.081 7.256-7.491 14.799-10.209 22.594-18.72-5.582-33.4-15.171-40.824-26.868-3.704-5.837-9.628-9.656-16.254-10.477-10.208-1.266-27.641-5.503-41.791-11.813-5.631-2.511-7.259-9.463-3.906-14.383 13.592-19.936 26.61-50.691 33.443-78.534 3.389.27 6.916.063 10.134-.418 16.757 25.347 41.504 46.535 72.065 61.695-11.862 18.086-19.395 44.762-2.658 58.204zm13.006-9.671c-3.866-1.478-6.146-3.913-7.177-7.662-2.326-8.465 1.934-21.9 10.701-34.592 27.822 11.532 59.37 18.311 92.485 19.86-21.816 19.598-73.221 31.111-96.009 22.394zm110.747-37.04c-67.095 0-139.425-22.923-178.247-77.986 15.85-8.102 26.733-24.586 26.733-43.574v-56.569c0-10.003 2.649-19.787 7.568-28.377 18.356 24.222 47.408 34.395 78.203 34.395 23.511 0 43.64-5.672 59.83-16.858 3.592-2.482 8.234-2.482 11.827 0 16.189 11.186 36.318 16.858 59.829 16.858 30.703 0 59.81-10.117 78.209-34.402 4.918 8.592 7.563 18.381 7.563 28.385v56.569c0 18.988 10.883 35.472 26.733 43.574-38.822 55.061-111.15 77.985-178.248 77.985zm117.923 29.378c-1.03 3.749-3.311 6.184-7.177 7.662-22.828 8.73-74.228-2.83-96.008-22.394 33.115-1.549 64.663-8.328 92.484-19.86 8.768 12.692 13.027 26.127 10.701 34.592zm114.908-9.231c-14.15 6.31-31.582 10.546-41.791 11.813-6.625.821-12.55 4.64-16.253 10.477-7.424 11.697-22.104 21.286-40.824 26.869-2.719-7.794-6.128-15.338-10.209-22.594 16.722-13.43 9.24-40.079-2.651-58.208 30.558-15.16 55.302-36.346 72.057-61.691 3.283.491 6.793.684 10.134.418 6.833 27.842 19.851 58.597 33.443 78.533 3.354 4.922 1.722 11.873-3.906 14.383zm-298.574-235.352c35.333 0 51.696-18.999 51.696-40.676 0-21.648-16.329-40.676-51.696-40.676-35.331 0-51.696 18.999-51.696 40.676-.001 21.648 16.328 40.676 51.696 40.676zm0-66.352c22.978 0 36.696 9.599 36.696 25.676s-13.718 25.676-36.696 25.676-36.696-9.599-36.696-25.676c-.001-16.078 13.718-25.676 36.696-25.676zm140.475 127.058c-4.142 0-7.5 3.358-7.5 7.5v12c0 4.142 3.358 7.5 7.5 7.5s7.5-3.358 7.5-7.5v-12c0-4.142-3.358-7.5-7.5-7.5z"/></g></svg>